<svg xmlns="http://www.w3.org/2000/svg" viewBox="0 0 526.87 522.77"><defs><style>.cls-1{fill:#603813;}.cls-2{fill:#a57c52;}.cls-27,.cls-3{fill:#fff;}.cls-4{fill:#e1e1e1;}.cls-5{fill:#534741;}.cls-6{fill:#13bf9e;}.cls-7{fill:#8b6239;}.cls-8{fill:#ececec;}.cls-9{fill:#fafafa;}.cls-10{fill:#f6921e;}.cls-11{fill:#8bc53f;}.cls-12{fill:#c59b6d;}.cls-13{fill:#f5f5f5;}.cls-14{opacity:0.5;}.cls-15{fill:#00a89c;}.cls-16{opacity:0.8;}.cls-17{fill:#29aae1;}.cls-18,.cls-28{fill:red;}.cls-19{fill:#1a2e35;}.cls-20{fill:#375a64;}.cls-21{fill:#ff4f5b;}.cls-22{fill:#ffbf9d;}.cls-23{fill:#ff9a6c;}.cls-24{opacity:0.3;}.cls-25{fill:#b66955;}.cls-26{fill:#8e3823;}.cls-27{font-size:25px;}.cls-27,.cls-28{font-family:UTM-Androgyne, UTM Androgyne;}.cls-28{font-size:16.68px;}</style></defs><g id="Layer_2" data-name="Layer 2"><g id="Layer_2-2" data-name="Layer 2"><rect class="cls-1" x="449.07" y="118.49" width="77.8" height="81.1"/><rect class="cls-2" x="443.81" y="118.49" width="77.8" height="81.1"/><path class="cls-2" d="M521.63,199.61H443.78V118.46h77.85Zm-77.8-.05h77.75v-81H443.83Z"/><rect class="cls-3" x="454.26" y="129.39" width="56.88" height="59.29"/><path class="cls-4" d="M454.26,189.08a9,9,0,0,1-1.4,1.63c-.91,1-2.18,2.25-3.62,3.66s-2.74,2.67-3.71,3.56a9,9,0,0,1-1.65,1.37,9.57,9.57,0,0,1,1.4-1.63c.91-.95,2.19-2.26,3.62-3.67s2.76-2.67,3.73-3.56A8.82,8.82,0,0,1,454.26,189.08Z"/><path class="cls-4" d="M511.14,188.93a9.5,9.5,0,0,1,1.64,1.4c1,.91,2.25,2.19,3.66,3.62s2.67,2.75,3.56,3.72a9.16,9.16,0,0,1,1.37,1.64,9,9,0,0,1-1.63-1.4c-1-.91-2.26-2.19-3.67-3.62s-2.67-2.75-3.56-3.72A9.6,9.6,0,0,1,511.14,188.93Z"/><path class="cls-4" d="M511,129.55a8.47,8.47,0,0,1,1.4-1.64c.91-1,2.19-2.25,3.62-3.66s2.74-2.67,3.71-3.56a9,9,0,0,1,1.65-1.37A9,9,0,0,1,520,121c-.91,1-2.19,2.26-3.62,3.67s-2.75,2.67-3.72,3.56A9,9,0,0,1,511,129.55Z"/><path class="cls-4" d="M454.11,129.69a9,9,0,0,1-1.63-1.4c-1-.91-2.26-2.19-3.67-3.62s-2.66-2.74-3.56-3.71a8.62,8.62,0,0,1-1.36-1.65,9.65,9.65,0,0,1,1.62,1.4c1,.91,2.26,2.19,3.67,3.62s2.67,2.76,3.57,3.73A9.38,9.38,0,0,1,454.11,129.69Z"/><path class="cls-4" d="M511,188.68s0-.1,0-.29,0-.47,0-.82c0-.75,0-1.82,0-3.21,0-2.8,0-6.89-.06-12.08,0-10.38-.06-25.18-.11-42.89l.22.22-56.72,0h0l.26-.25c0,21.76,0,42.12,0,59.29l-.22-.21,41.08.11,11.53,0,3.06,0h.81l-.77,0-3,0-11.49.06-41.21.11h-.21v-.22c0-17.17,0-37.53,0-59.29v-.25h.26l56.72,0h.22v.22c0,17.77-.09,32.61-.11,43,0,5.17-.05,9.24-.06,12q0,2.06,0,3.15c0,.35,0,.61,0,.81A2.17,2.17,0,0,1,511,188.68Z"/><path d="M482.59,163l-7.94.11-1.47,3.54-4.06,0,7.41-16.55,3.91-.05,7.86,16.36-4.15,0Zm-1.29-2.87-2.79-6.27-2.63,6.34Z"/><path d="M497.56,160.74l.07,5.81-1.71,0,0-1.27a3.76,3.76,0,0,1-3.26,1.42c-2.26,0-3.71-1.11-3.73-2.78s1-2.83,4-2.86l2.86,0v-.35c0-1.47-.92-2.31-2.71-2.28a5.15,5.15,0,0,0-3.15,1.07l-.77-1.29a6.76,6.76,0,0,1,4.11-1.29C496,156.86,497.52,158.11,497.56,160.74Zm-1.78,2.89v-1.34l-2.79,0c-1.79,0-2.29.7-2.28,1.51,0,1,.85,1.55,2.22,1.53A2.89,2.89,0,0,0,495.78,163.63Z"/><rect class="cls-1" x="452.1" y="216.66" width="63.87" height="66.58"/><rect class="cls-2" x="447.78" y="216.66" width="63.87" height="66.58"/><path class="cls-2" d="M511.67,283.26H447.76V216.64h63.91Zm-63.87,0h63.83V216.68H447.8Z"/><rect class="cls-3" x="456.36" y="225.61" width="46.7" height="48.68"/><path class="cls-4" d="M456.36,274.62a7.41,7.41,0,0,1-1.15,1.34c-.74.78-1.79,1.85-3,3s-2.25,2.18-3.05,2.92a7.17,7.17,0,0,1-1.35,1.12,7.19,7.19,0,0,1,1.15-1.33c.75-.79,1.8-1.86,3-3s2.26-2.19,3.06-2.93A7.21,7.21,0,0,1,456.36,274.62Z"/><path class="cls-4" d="M503.06,274.5a6.69,6.69,0,0,1,1.34,1.15c.79.74,1.85,1.79,3,3s2.19,2.25,2.92,3.05a7.54,7.54,0,0,1,1.13,1.35,7.41,7.41,0,0,1-1.34-1.15c-.79-.74-1.85-1.8-3-3s-2.2-2.26-2.93-3.06A8.24,8.24,0,0,1,503.06,274.5Z"/><path class="cls-4" d="M502.93,225.74a8.42,8.42,0,0,1,1.16-1.34c.74-.78,1.79-1.85,3-3s2.25-2.18,3.05-2.92a7.17,7.17,0,0,1,1.35-1.12,7.19,7.19,0,0,1-1.15,1.33c-.75.79-1.8,1.86-3,3s-2.26,2.19-3.05,2.93A6.7,6.7,0,0,1,502.93,225.74Z"/><path class="cls-4" d="M456.24,225.86a6.69,6.69,0,0,1-1.34-1.15c-.79-.74-1.86-1.79-3-3s-2.19-2.25-2.92-3.05a7.54,7.54,0,0,1-1.13-1.35,7.41,7.41,0,0,1,1.34,1.15c.78.74,1.85,1.79,3,3s2.2,2.26,2.93,3.06A8.24,8.24,0,0,1,456.24,225.86Z"/><path class="cls-4" d="M502.93,274.29s0-.08,0-.23,0-.39,0-.68c0-.61,0-1.49,0-2.63,0-2.31,0-5.66,0-9.92,0-8.53-.06-20.67-.1-35.22l.18.18-46.56,0h0l.21-.21c0,17.87,0,34.59,0,48.68l-.18-.17,33.72.09,9.48,0,2.5,0h.87s-.06,0-.2,0h-.63l-2.47,0-9.43.05-33.84.09h-.17v-.18c0-14.09,0-30.81,0-48.68v-.2h.21l46.56,0h.19v.18c0,14.59-.07,26.78-.1,35.33,0,4.25,0,7.59,0,9.88,0,1.13,0,2,0,2.6,0,.28,0,.49,0,.66S502.94,274.3,502.93,274.29Z"/><path d="M483.23,252.35c0,2.34-1.87,3.71-5.56,3.76l-7.26.09-.18-13.51,6.86-.09c3.51,0,5.33,1.34,5.36,3.44a3.24,3.24,0,0,1-1.82,3A3.35,3.35,0,0,1,483.23,252.35ZM473.49,245l0,3.19,3.23,0c1.59,0,2.44-.58,2.43-1.64s-.88-1.57-2.47-1.55Zm6.47,7.06c0-1.14-.92-1.67-2.61-1.64l-3.79.05.05,3.34,3.79-.05C479.08,253.74,480,253.22,480,252.06Z"/><path d="M493.91,252.15a3.92,3.92,0,0,1-4.09,4.09,3.5,3.5,0,0,1-2.94-1.3v1.25l-1.42,0-.14-11,1.48,0,.06,4.35a3.51,3.51,0,0,1,2.84-1.3A3.9,3.9,0,0,1,493.91,252.15Zm-1.5,0a2.76,2.76,0,1,0-2.73,2.82A2.65,2.65,0,0,0,492.41,252.17Z"/><rect class="cls-5" x="97.33" y="92.19" width="329.34" height="235.22"/><rect class="cls-6" x="105.15" y="101.59" width="311.34" height="216.78"/><rect class="cls-7" x="86.61" y="327.41" width="358.17" height="9.36"/><path class="cls-8" d="M97.45,92.41q4.67,4.16,8.92,8.73"/><path class="cls-8" d="M106.37,101.14c-.13.12-2.11-1.85-4.57-4.26a45.38,45.38,0,0,1-4.35-4.47,27,27,0,0,1,4.77,4A27.75,27.75,0,0,1,106.37,101.14Z"/><path class="cls-8" d="M416.74,102.28l9.95-9.66"/><path class="cls-8" d="M426.69,92.62a41,41,0,0,1-4.77,5,41.05,41.05,0,0,1-5.18,4.62c-.12-.12,2-2.37,4.77-5A41.05,41.05,0,0,1,426.69,92.62Z"/><path class="cls-8" d="M417.3,318.32c3.4,3.07,10.08,9.09,9.37,9.09"/><path class="cls-8" d="M426.67,327.41A64.15,64.15,0,0,0,422,323a40.61,40.61,0,0,1-4.67-4.65,35.73,35.73,0,0,1,5.07,4.21c1.33,1.24,2.51,2.4,3.31,3.28a11.92,11.92,0,0,1,.9,1.11,1.23,1.23,0,0,1,.18.37C426.8,327.44,426.65,327.44,426.67,327.41Z"/><rect class="cls-9" x="225.7" y="323.88" width="34.14" height="3.72"/><path class="cls-10" d="M121,284.37v43.19h74.23Zm11.38,17.39L163.27,320H132.41Z"/><path class="cls-10" d="M128.16,288.52a8,8,0,0,1-1.31,2.66,7.83,7.83,0,0,1-1.8,2.35,7.44,7.44,0,0,1,1.3-2.66C127.21,289.48,128,288.43,128.16,288.52Z"/><path class="cls-10" d="M139.17,294.85a7.18,7.18,0,0,1-1.29,2.59c-.85,1.35-1.65,2.37-1.79,2.28a7.18,7.18,0,0,1,1.29-2.59C138.23,295.79,139,294.77,139.17,294.85Z"/><path class="cls-10" d="M150.18,301.19a7.34,7.34,0,0,1-1.55,2.44c-1,1.25-1.89,2.18-2,2.08a7.17,7.17,0,0,1,1.56-2.45C149.15,302,150.05,301.09,150.18,301.19Z"/><path class="cls-10" d="M161,307.77a7.18,7.18,0,0,1-1.56,2.44c-1,1.25-1.88,2.18-2,2.08a7.34,7.34,0,0,1,1.55-2.44C160,308.6,160.87,307.67,161,307.77Z"/><path class="cls-10" d="M172.3,314.25a7.55,7.55,0,0,1-1.42,2.6c-.92,1.35-1.78,2.36-1.91,2.27a7.46,7.46,0,0,1,1.42-2.6C171.31,315.17,172.17,314.15,172.3,314.25Z"/><path class="cls-10" d="M184.05,321.06a6.64,6.64,0,0,1-1.27,2.48c-.84,1.28-1.63,2.25-1.77,2.16a6.64,6.64,0,0,1,1.27-2.48C183.12,321.94,183.91,321,184.05,321.06Z"/><path class="cls-10" d="M131.59,290.52c.14.08-.1.71-.52,1.4s-.89,1.18-1,1.09.1-.71.53-1.4S131.45,290.43,131.59,290.52Z"/><path class="cls-10" d="M135.2,292.53c.14.09-.1.71-.52,1.4s-.89,1.18-1,1.09.1-.71.53-1.4S135.06,292.44,135.2,292.53Z"/><path class="cls-10" d="M143.23,297.25c.14.09-.1.71-.52,1.4s-.89,1.18-1,1.1.1-.72.53-1.41S143.09,297.17,143.23,297.25Z"/><path class="cls-10" d="M146.84,299.26c.14.09-.1.72-.52,1.41s-.89,1.17-1,1.09.1-.72.53-1.4S146.7,299.18,146.84,299.26Z"/><path class="cls-10" d="M154.1,303.76c.14.09-.1.71-.53,1.4s-.88,1.18-1,1.1.1-.72.52-1.41S154,303.68,154.1,303.76Z"/><path class="cls-10" d="M157.54,305.78c.14.08-.09.71-.52,1.4s-.89,1.18-1,1.09.1-.71.53-1.4S157.41,305.69,157.54,305.78Z"/><path class="cls-10" d="M165,310.07c.14.08-.09.71-.52,1.4s-.89,1.18-1,1.09.09-.71.52-1.4S164.84,310,165,310.07Z"/><path class="cls-10" d="M169,312.42c.13.09-.1.71-.53,1.4s-.88,1.18-1,1.09.1-.71.52-1.4S168.83,312.33,169,312.42Z"/><path class="cls-10" d="M176.15,316.62c.13.09-.1.72-.53,1.41s-.88,1.17-1,1.09.09-.72.52-1.4S176,316.54,176.15,316.62Z"/><path class="cls-10" d="M180.29,319c.14.08-.1.71-.52,1.4s-.89,1.18-1,1.09.1-.71.53-1.4S180.15,318.91,180.29,319Z"/><path class="cls-11" d="M479.57,411.72c5.8-3,12.64-3.38,19.09-2.32,3.46.57,7.07,1.61,9.43,4.21s2.8,7.18.09,9.42c-1.61,1.33-3.85,1.53-5.94,1.51-5.05-.06-10.65-1-14.68,2.08-2.3,1.74-3.83,4.62-6.58,5.47s-5.73-.76-7.15-3.18a11.08,11.08,0,0,1-.81-8.2A12.53,12.53,0,0,1,479.57,411.72Z"/><path class="cls-11" d="M466.26,386c3.55,5.07,10.45,3.39,13.65.3s4.56-7.58,5.79-11.86c2.81-9.78,5.65-20,3.55-30a16.63,16.63,0,0,0-3.82-8.16c-2.1-2.2-5.31-3.52-8.25-2.74-3.48.92-5.64,4.33-7.21,7.57a71.58,71.58,0,0,0-7.06,30.67c0,4.94.57,10.12,3.35,14.2"/><path class="cls-11" d="M456.51,393.32c3.86-4.58,4.59-11.25,2.87-17s-5.59-10.61-10.05-14.59a54.27,54.27,0,0,0-18-10.63,19.18,19.18,0,0,0-8.1-1.37,8.48,8.48,0,0,0-6.8,4.11c-1.89,3.61-.08,8,1.89,11.57a136.09,136.09,0,0,0,11.83,18c3.54,4.57,7.6,9.08,13,11.14s11,1.83,13.88-1.92"/><path class="cls-11" d="M466,462.54a10.39,10.39,0,0,0,.32-2.31c.17-1.67.37-3.78.62-6.28a91.27,91.27,0,0,1,1.41-9.23,71.27,71.27,0,0,1,3.35-10.89,40.61,40.61,0,0,1,5.56-9.85,20.76,20.76,0,0,1,7-5.84,19.67,19.67,0,0,1,5.92-1.84,11.48,11.48,0,0,0,2.29-.33,10.22,10.22,0,0,0-2.33,0,17.87,17.87,0,0,0-6.17,1.61,20.66,20.66,0,0,0-7.42,5.89,39,39,0,0,0-5.76,10.05,66.33,66.33,0,0,0-3.33,11.06,75.86,75.86,0,0,0-1.22,9.34c-.2,2.67-.28,4.84-.32,6.33A11.48,11.48,0,0,0,466,462.54Z"/><path class="cls-11" d="M466.46,457.7a5,5,0,0,0,.06-1.07c0-.8,0-1.82,0-3.06,0-2.65,0-6.49.14-11.23.23-9.49,1.05-19.69,2.62-34.08,1.5-13.53,3.5-29.28,5.62-39.52.45-2.33.91-4.42,1.34-6.26s.76-3.42,1.1-4.7.52-2.19.71-3a5.16,5.16,0,0,0,.19-1.06,4.57,4.57,0,0,0-.37,1c-.24.77-.53,1.74-.89,2.93s-.8,2.85-1.26,4.68-1,3.92-1.48,6.24a347.22,347.22,0,0,0-5.9,36.67c-1.58,14.42-2.29,27.55-2.36,37.05-.05,4.76,0,8.61.17,11.26.08,1.24.14,2.25.19,3.06A3.87,3.87,0,0,0,466.46,457.7Z"/><path class="cls-11" d="M466.52,432.38a20.68,20.68,0,0,0,0-3.2c-.12-2.05-.4-5-1-8.65a112.45,112.45,0,0,0-2.82-12.61A102.76,102.76,0,0,0,457.43,393,79.53,79.53,0,0,0,442,368.89a38.71,38.71,0,0,0-3.64-3.38c-.56-.47-1.06-.94-1.56-1.32l-1.41-1a19,19,0,0,0-2.69-1.72c-.15.2,3.81,2.54,8.81,7.86a83.57,83.57,0,0,1,15.1,24,117,117,0,0,1,5.3,14.78c1.38,4.63,2.3,8.9,3,12.48s1,6.54,1.27,8.57A20.2,20.2,0,0,0,466.52,432.38Z"/><polygon class="cls-12" points="442.04 477.05 444.58 511.81 489.24 511.81 491.78 477.05 442.04 477.05"/><rect class="cls-12" x="437.73" y="463.34" width="59.38" height="13.7"/><polygon class="cls-8" points="437.73 510.48 437.73 514.28 440.52 514.28 496.13 514.28 496.13 510.48 437.73 510.48"/><polygon class="cls-4" points="443.25 520.96 440.52 514.28 494 514.28 490.81 520.96 443.25 520.96"/><path class="cls-13" d="M491,488.41a1.53,1.53,0,0,1-.21.32l-.67.88-2.6,3.33-.11.15-.12-.16-6.39-8.84h.37L474.93,493l-.2.28-.22-.26c-2.32-2.76-4.85-5.76-7.46-8.88h.43l-.41.51L460.39,493l-.22.28L460,493l-6.29-8.91.37,0L446.28,493l-.14.16-.1-.18-2.43-4.08-.62-1.08a1.62,1.62,0,0,1-.19-.39,1.74,1.74,0,0,1,.26.34l.69,1c.62,1,1.47,2.32,2.55,4l-.25,0,7.63-8.94.19-.22.18.24,6.35,8.87-.43,0,6.66-8.37.41-.52.21-.27.22.27,7.44,8.89-.41,0c2.29-3.21,4.43-6.19,6.35-8.87l.19-.26.18.26,6.26,8.94h-.23l2.71-3.24.72-.84Q490.94,488.4,491,488.41Z"/><path class="cls-13" d="M492.4,476.82c0,.15-11.19.27-25,.27s-25-.12-25-.27,11.18-.28,25-.28S492.4,476.66,492.4,476.82Z"/><path class="cls-2" d="M494.65,514.65c0,.15-12.16.28-27.15.28s-27.17-.13-27.17-.28,12.16-.28,27.17-.28S494.65,514.5,494.65,514.65Z"/><g class="cls-14"><path class="cls-15" d="M128.11,36.64s10,46.32,16.63,46c8.49-.37,37.08-39.35,37.08-39.35S132.87,37.37,128.11,36.64Z"/></g><g class="cls-16"><path class="cls-17" d="M187.13,44s14.81,45.33,21.33,44.54c8.42-1,32.89-42,32.89-42S192,44.35,187.13,44Z"/></g><g class="cls-14"><path class="cls-15" d="M246.64,46.48s19.47,44,25.9,42.68c8.28-1.67,28.39-44.39,28.39-44.39S251.48,46.47,246.64,46.48Z"/></g><g class="cls-16"><path class="cls-17" d="M303.41,44.82s22.43,42.9,28.75,41.28c8.16-2.08,25.35-45.73,25.35-45.73S308.24,44.57,303.41,44.82Z"/></g><g class="cls-14"><path class="cls-15" d="M360.84,39.1S388.3,79.73,394.4,77.56c7.87-2.81,19.75-47.72,19.75-47.72S365.62,38.41,360.84,39.1Z"/></g><g class="cls-16"><path class="cls-17" d="M417.24,29.07s31,38.7,36.85,36.14c7.61-3.31,15.53-48.85,15.53-48.85S422,28.07,417.24,29.07Z"/></g><g class="cls-16"><path class="cls-17" d="M70.72,25.14S76.51,72,83.09,72.19c8.49.21,40.53-36.72,40.53-36.72S75.4,26.2,70.72,25.14Z"/></g><path class="cls-18" d="M520.56.85s-.42.17-1.26.47l-3.75,1.33-6.1,2.16-3.9,1.37-4.48,1.46-10.54,3.43-12.65,3.81c-2.26.71-4.63,1.35-7.07,2L463.25,19c-1.3.35-2.61.73-3.95,1.08l-4.09,1-8.49,2.16A797.45,797.45,0,0,1,363.79,39C348,41.06,331.34,42.85,314,44.14s-35.31,2-53.73,2.11H246.55L233,46l-3.36-.07-3.34-.14-6.64-.28-6.59-.27-6.53-.41c-4.33-.29-8.63-.49-12.87-.85l-12.6-1.06c-4.15-.37-8.25-.86-12.3-1.27L162.72,41l-6-.76c-15.8-1.87-30.68-4.41-44.57-6.87C98.35,30.68,85.52,28,73.93,25.11L65.45,23c-2.76-.67-5.4-1.45-8-2.14-5.17-1.41-10.07-2.69-14.58-4.09S34.13,14.21,30.29,13L19.8,9.55c-1.57-.52-3.07-1-4.45-1.48L11.48,6.69,5.42,4.53,1.7,3.19.44,2.72s.44.13,1.28.42l3.75,1.3,6.07,2.12,3.88,1.36c1.39.48,2.89.94,4.46,1.46l10.5,3.39C34.22,14,38.46,15.18,43,16.53s9.4,2.66,14.58,4.07c2.59.68,5.24,1.45,8,2.11L74,24.79c11.58,2.85,24.42,5.53,38.25,8.17,13.88,2.45,28.75,5,44.55,6.83l5.95.75,6,.64c4.06.41,8.15.89,12.3,1.25l12.59,1.06c4.24.36,8.54.56,12.86.85l6.52.4,6.59.27,6.64.28,3.34.14,3.35.07,13.54.27h13.73c18.41-.15,36.38-.89,53.69-2.09s33.95-3.07,49.74-5.12A799.66,799.66,0,0,0,446.61,23l8.5-2.14,4.08-1,4-1.08,7.56-2.08c2.44-.67,4.81-1.3,7.08-2l12.66-3.77L501,7.46,505.48,6l3.91-1.34,6.12-2.11,3.76-1.29Z"/><path class="cls-18" d="M46.66,18.87c-1.41-.4-2.8-.81-4.15-1.23l-4.64-1.39c-2.79-.83-5.45-1.62-7.95-2.42l-12.15-4c-1-.32-1.93-.62-2.82-.94L1.29,4C.43,3.71,0,3.54,0,3.54L.8,1.87l1.31.43L15.82,7.08c.88.31,1.81.61,2.77.91l12.16,3.93c2.45.77,5,1.54,7.79,2.34l4.78,1.42c3.5,1.08,7.23,2.08,11.18,3.14l3.38.91c.92.24,1.85.5,2.79.76,1.69.46,3.41.93,5.17,1.35l8.49,2.08C84.82,26.5,97,29.1,112.52,32.08c13.07,2.3,28.37,4.92,44.47,6.81l12,1.39,4.3.45c2.64.29,5.29.57,8,.8l12.59,1.06c2.73.23,5.48.4,8.24.56,1.53.09,3.06.18,4.6.29l13.07.67,13.31.48,13.54.28h13.7c17.63-.15,35.67-.85,53.61-2.09,16-1.2,32.75-2.92,49.67-5.12a805.94,805.94,0,0,0,82.76-15.58l18.77-4.85,6.29-1.73c2.08-.57,4.11-1.12,6.05-1.72L490.11,10,509,3.84l9.89-3.4L520.22,0,521,1.68l-1.3.48L501.43,8.48,490.9,11.92l-12.68,3.82c-2,.61-4,1.17-6.13,1.76l-9.91,2.74c-.85.24-1.71.48-2.59.71L447,24.15A806.14,806.14,0,0,1,364,39.89c-17,2.22-33.75,4-49.85,5.15-18,1.26-36.1,2-53.81,2.11H246.54l-33.53-1-6.55-.4c-1.55-.11-3.09-.2-4.63-.29-2.77-.17-5.53-.34-8.27-.57L181,43.79c-2.71-.24-5.39-.53-8.05-.82l-4.27-.45-12-1.4c-16.2-1.92-31.53-4.56-44.63-6.88-15.6-3-27.78-5.64-38.33-8.26l-8.48-2.09c-1.8-.43-3.56-.92-5.29-1.4l-2.73-.74-3.32-.91C51.35,20.18,49,19.53,46.66,18.87Z"/><rect class="cls-1" x="6.77" y="272.03" width="63.87" height="66.58"/><rect class="cls-2" x="2.44" y="272.03" width="63.87" height="66.58"/><path class="cls-2" d="M66.33,338.63H2.42V272H66.33Zm-63.87,0H66.29V272.05H2.46Z"/><rect class="cls-3" x="11.03" y="280.98" width="46.7" height="48.68"/><path class="cls-4" d="M11,330a8,8,0,0,1-1.15,1.34c-.75.79-1.8,1.85-3,3s-2.26,2.19-3.05,2.92a7.56,7.56,0,0,1-1.35,1.12A7.76,7.76,0,0,1,3.65,337c.75-.79,1.8-1.86,3-3s2.26-2.19,3.06-2.92A7.34,7.34,0,0,1,11,330Z"/><path class="cls-4" d="M57.73,329.86A8,8,0,0,1,59.07,331c.78.75,1.85,1.8,3,3s2.19,2.26,2.92,3a7.56,7.56,0,0,1,1.12,1.35,7.19,7.19,0,0,1-1.33-1.15c-.79-.74-1.86-1.79-3-3s-2.19-2.26-2.92-3.06A6.4,6.4,0,0,1,57.73,329.86Z"/><path class="cls-4" d="M57.6,281.11a7.14,7.14,0,0,1,1.15-1.34c.75-.79,1.8-1.86,3-3s2.26-2.19,3-2.92a8,8,0,0,1,1.35-1.13A7.56,7.56,0,0,1,65,274.05c-.75.78-1.8,1.85-3,3s-2.26,2.2-3.06,2.93A7.34,7.34,0,0,1,57.6,281.11Z"/><path class="cls-4" d="M10.9,281.23a8.42,8.42,0,0,1-1.34-1.16c-.78-.74-1.85-1.79-3-3s-2.19-2.26-2.92-3.06a7.34,7.34,0,0,1-1.12-1.34,6.85,6.85,0,0,1,1.33,1.14c.79.75,1.86,1.8,3,3s2.19,2.26,2.92,3.05A6.58,6.58,0,0,1,10.9,281.23Z"/><path class="cls-4" d="M57.6,329.66s0-.09,0-.24,0-.39,0-.68c0-.61,0-1.49,0-2.63,0-2.3,0-5.66-.05-9.92,0-8.52,0-20.67-.09-35.21l.18.18-46.57,0h0l.21-.2c0,17.86,0,34.58,0,48.68l-.18-.18,33.72.09,9.47,0,2.51,0h.64a.82.82,0,0,1,.23,0h-.83l-2.48,0-9.43,0L11,329.83h-.18v-.17c0-14.1,0-30.82,0-48.68v-.21H11l46.57,0h.18V281c0,14.59-.07,26.77-.09,35.33,0,4.24,0,7.58,0,9.88,0,1.12,0,2,0,2.59,0,.28,0,.5,0,.66A1.76,1.76,0,0,1,57.6,329.66Z"/><path class="cls-19" d="M26.06,194.06s0-.18.09-.52.18-.88.32-1.53c.3-1.36.74-3.33,1.29-5.85,1.16-5.11,2.82-12.46,4.88-21.54,4.18-18.2,10-43.34,16.34-71.19l.29-1.25.28,1.26c.11.5.24,1,.36,1.58,6.36,28.23,12.11,53.79,16.28,72.32,2,9.24,3.72,16.73,4.87,21.93.56,2.58,1,4.58,1.3,6,.13.67.24,1.18.32,1.56s.09.53.09.53-.06-.17-.15-.52-.22-.88-.38-1.54c-.33-1.39-.8-3.38-1.4-6-1.2-5.19-2.93-12.66-5-21.89-4.22-18.52-10-44.06-16.45-72.28-.13-.54-.25-1.08-.36-1.58h.57c-6.46,27.83-12.29,53-16.51,71.15-2.13,9.06-3.86,16.39-5.05,21.49-.61,2.51-1.08,4.47-1.41,5.83-.16.64-.28,1.15-.38,1.51S26.06,194.06,26.06,194.06Z"/><path class="cls-20" d="M26,215.2V197.33H73.72V215.2A20.8,20.8,0,0,1,52.92,236H46.85A20.81,20.81,0,0,1,26,215.2Z"/><path class="cls-19" d="M26,197.33a4.72,4.72,0,0,1,.54.75L28,200.3l5.25,8.2c4.42,7,10.47,16.57,17.15,27.16l.12.19h-.5L66.7,208.55l5.09-8.24,1.41-2.22a7.22,7.22,0,0,1,.52-.76,4.48,4.48,0,0,1-.42.82L72,200.43l-4.93,8.33-16.48,27.4-.25.41-.25-.4L50,236l-17-27.25-5.1-8.3c-.56-.95-1-1.71-1.36-2.27A8.07,8.07,0,0,1,26,197.33Z"/><path class="cls-19" d="M54.62,93.28a5.21,5.21,0,1,1-5.21-5.21A5.2,5.2,0,0,1,54.62,93.28Z"/><path class="cls-19" d="M49.41,4.66c.16,0,.3,20.06.3,44.79s-.14,44.8-.3,44.8-.29-20-.29-44.8S49.25,4.66,49.41,4.66Z"/><path class="cls-19" d="M52.11,238a2.23,2.23,0,1,1-2.23-2.23A2.23,2.23,0,0,1,52.11,238Z"/><path class="cls-19" d="M48.9,238.78l.36-.17A4.94,4.94,0,0,0,47,242.29a12.84,12.84,0,0,0,.39,4.44c.09.47.34,1.05.81,1s.63-.54.7-1a8.86,8.86,0,0,0,.07-2.67,4.68,4.68,0,0,0,1,3.15c.14.17.34.35.55.29s.29-.28.35-.49a10.91,10.91,0,0,0,.33-2.29,3.6,3.6,0,0,0,.71,1.87,1.23,1.23,0,0,0,1.78.11,1.7,1.7,0,0,0,.19-1.3,15.41,15.41,0,0,0-3.12-7.32"/><path class="cls-21" d="M29,197.33S7.62,172.64,10,171.75s21.42,12.79,21.42,12.79S15.06,148,18.33,145.27,38.86,177.7,38.86,177.7s-2.67-51.17,0-51.77,12.5,51.17,12.5,51.17,14.58-47.3,18.74-47.3-4.46,45.52-4.46,45.52S82.9,146.16,85.57,150s-12.2,35.4-12.2,35.4S95.09,167.28,96,169.66s-23.51,27.67-23.51,27.67Z"/><path class="cls-19" d="M26.06,160.14c.14-.06,3.94,8.08,8.48,18.2s8.1,18.36,8,18.43-3.94-8.08-8.48-18.19S25.91,160.21,26.06,160.14Z"/><path class="cls-19" d="M43.36,164.7c.16,0,.79,7.16,1.41,16s1,16.07.82,16.08-.79-7.17-1.41-16S43.2,164.71,43.36,164.7Z"/><path class="cls-19" d="M67.23,141.78a2,2,0,0,1-.13.58c-.12.43-.28,1-.47,1.62-.44,1.5-1,3.51-1.79,6-1.51,5-3.54,12-5.61,19.74s-3.77,14.81-5,19.93c-.59,2.49-1.06,4.54-1.42,6.06-.16.66-.29,1.2-.4,1.64a2.4,2.4,0,0,1-.18.57,2.16,2.16,0,0,1,.06-.59l.3-1.67c.26-1.45.68-3.53,1.23-6.11,1.1-5.14,2.75-12.22,4.82-20s4.16-14.71,5.78-19.72c.8-2.5,1.48-4.52,2-5.91.23-.64.42-1.16.57-1.59A2.19,2.19,0,0,1,67.23,141.78Z"/><path class="cls-19" d="M77.55,168.16c.14.09-4,6.32-9.34,13.92s-9.68,13.68-9.82,13.59,4-6.33,9.34-13.93S77.42,168.06,77.55,168.16Z"/><path class="cls-19" d="M36.27,196.81a8.29,8.29,0,0,1-1.87-1.34,52.56,52.56,0,0,1-4.08-3.76,55.46,55.46,0,0,1-3.66-4.17,8.19,8.19,0,0,1-1.29-1.91c.14-.11,2.37,2.59,5.38,5.67S36.38,196.68,36.27,196.81Z"/><path class="cls-19" d="M49.28,187c.17,0,.51,2.27.76,5.09a23,23,0,0,1,.18,5.15,23.1,23.1,0,0,1-.76-5.09A23,23,0,0,1,49.28,187Z"/><path class="cls-3" d="M73.72,208.47a11.86,11.86,0,0,1-1.84.38c-1.19.21-2.92.48-5.06.78A167.43,167.43,0,0,1,50,211.13a106.76,106.76,0,0,1-16.91-.71c-2.15-.28-3.88-.56-5.07-.81a12.75,12.75,0,0,1-1.83-.44,11.87,11.87,0,0,1,1.87.21c1.2.18,2.93.4,5.08.63a126.35,126.35,0,0,0,16.84.53c6.58-.23,12.52-.84,16.81-1.32l5.09-.59A11.69,11.69,0,0,1,73.72,208.47Z"/><path class="cls-3" d="M73.72,213.79a11.86,11.86,0,0,1-1.84.38c-1.19.21-2.92.48-5.06.78A167.43,167.43,0,0,1,50,216.45a106.76,106.76,0,0,1-16.91-.71c-2.15-.28-3.88-.56-5.07-.81a12.75,12.75,0,0,1-1.83-.44,11.87,11.87,0,0,1,1.87.21c1.2.19,2.93.4,5.08.63a126.35,126.35,0,0,0,16.84.53c6.58-.23,12.52-.84,16.81-1.32l5.09-.59A11.69,11.69,0,0,1,73.72,213.79Z"/><path class="cls-9" d="M403.8,87.13a38.79,38.79,0,0,0-32.42,60.09l-5.58,14.21,14.64-4.54A38.79,38.79,0,1,0,403.8,87.13Z"/><path class="cls-21" d="M413.5,133.1h-5.36a4.56,4.56,0,0,1-4.69,4.59,4.34,4.34,0,0,1-4.2-2.77,4.79,4.79,0,0,1,.38-4.35c.91-1.5,2.91-2.86,6.52-2.23v-12.1h-5.3v7.09a10.38,10.38,0,0,0-7.45,10.13c0,7.85,7,9.67,10.05,9.67C405.76,143.13,413.61,142.57,413.5,133.1Z"/><rect class="cls-21" x="400.78" y="108.72" width="5.39" height="5.03" transform="translate(806.95 222.47) rotate(180)"/><path class="cls-19" d="M442.9,125.92a4.38,4.38,0,0,0,0-.68c0-.49,0-1.15-.06-2,0-.44,0-.93-.06-1.47s-.16-1.13-.25-1.76-.19-1.33-.29-2.06l-.57-2.29a37.22,37.22,0,0,0-4.85-11.13,39.28,39.28,0,0,0-29.52-18,41.77,41.77,0,0,0-5.38-.1c-.91.06-1.83,0-2.75.17l-2.77.42a39.57,39.57,0,0,0-11,3.74,42.4,42.4,0,0,0-9.84,7.15,41.26,41.26,0,0,0-7.4,10.3,37.41,37.41,0,0,0-3.85,12.56,25,25,0,0,0-.29,3.35,31.91,31.91,0,0,0-.06,3.39,40.05,40.05,0,0,0,.86,6.78,39.37,39.37,0,0,0,5.68,13.5l0-.41L365,161.11l-.33.81.85-.23,14.7-4.05-.36-.06a39.37,39.37,0,0,0,16.8,7.33,35.37,35.37,0,0,0,8.6.54,28.19,28.19,0,0,0,4.14-.39l2-.31c.66-.13,1.3-.33,1.95-.48a39.38,39.38,0,0,0,22.37-15.35,37.65,37.65,0,0,0,4.81-9.13c.26-.71.5-1.4.74-2.06l.5-1.95.44-1.79c.11-.57.17-1.12.25-1.64.13-1,.31-1.95.35-2.75s.05-1.47.07-2,0-.91,0-1.23a1.67,1.67,0,0,0,0-.42,2.29,2.29,0,0,0-.06.42c0,.31-.06.72-.1,1.23s-.08,1.22-.13,2-.26,1.7-.42,2.72a39.08,39.08,0,0,1-29,31.28c-.63.15-1.26.34-1.91.46l-2,.3a27.11,27.11,0,0,1-4.06.36,35,35,0,0,1-8.43-.56,38.73,38.73,0,0,1-16.44-7.23l-.16-.13-.2.06-14.71,4,.51.58q2.71-6.72,5.54-13.75l.09-.21-.13-.2a38.57,38.57,0,0,1-5.55-13.2,39.17,39.17,0,0,1-.84-6.63,30.47,30.47,0,0,1,.06-3.31,23.65,23.65,0,0,1,.28-3.27A36.49,36.49,0,0,1,369,108.58a40.89,40.89,0,0,1,7.23-10.1,41.46,41.46,0,0,1,9.61-7,38.62,38.62,0,0,1,10.71-3.7l2.72-.42c.9-.13,1.8-.12,2.7-.18a40.33,40.33,0,0,1,5.28.08,38.89,38.89,0,0,1,29.16,17.57,37.32,37.32,0,0,1,4.93,11c.21.79.42,1.55.61,2.26s.23,1.4.33,2,.2,1.2.29,1.74.07,1,.1,1.46c.07.84.11,1.49.15,2A3.63,3.63,0,0,0,442.9,125.92Z"/><path class="cls-19" d="M247.9,344.21c-.66,2.2-3.65,100.53,14.56,178.06l90.63.2c1.2-53,21.44-135.4-7.85-181Z"/><path class="cls-19" d="M339.4,156.71c3,10.88,7.51,19.61,11.92,24s9.14,9.5,9,15.71c-.06,2.44-.88,5,.19,7.22,1.38,2.86,5.07,3.47,7.84,5,4.08,2.29,6.36,7.16,6.2,11.84a19.06,19.06,0,0,1-5.83,12.44c-3.43,3.46-8.87,5.88-13.14,3.52-2.57-1.42-4-4.2-5.34-6.84Q340.14,209.11,332,187.73"/><path class="cls-19" d="M311.89,110.12A28,28,0,0,0,263,129.18c.08,7.28,2.93,14.92.05,21.61-2,4.74-6.75,8.32-7.4,13.43-.75,5.93,4.32,11.32,4.06,17.29-.17,3.9-2.62,7.35-5.43,10.05s-6.09,4.94-8.67,7.87c-7.17,8.15-7.63,21-2.21,30.42s15.89,15.3,26.67,16.57,21.76-1.69,31.3-6.87c6.21-3.37,12.05-7.82,15.74-13.84s5-13.84,2-20.28"/><path class="cls-20" d="M277.7,105.73a36.27,36.27,0,0,1,4.82.23c3,.36,6.9,1.66,11.24,3.13s8.52,2.28,11.57,2a14,14,0,0,0,3.52-.62,5.34,5.34,0,0,0,1.22-.49,24.34,24.34,0,0,1-4.76.73c-3,.12-7.06-.72-11.38-2.18s-8.33-2.74-11.36-3a17.59,17.59,0,0,0-3.58-.06A5,5,0,0,0,277.7,105.73Z"/><path class="cls-21" d="M368.91,240.22a33.56,33.56,0,0,0-.56-4.16,35.17,35.17,0,0,0-21-25.18L320.1,199.37l-31.16.8s-23.16,10.58-27.82,16.09c-.35.41-3.46,3.47-3.66,4.67L234,290.53l-30,18.68,8.22,10.49,44.19-4.2,5.36-8.71c-2.94,6.57-14.59,33.18-14.59,41.33,0,0,68.2,14.59,95.35,11.86,11.95-1.2,14.78-2.32,14.78-2.32l-8-29.87c6.61-.46,13.36-4.5,16.07-10.18C370.1,307.86,369.75,253.36,368.91,240.22Z"/><polygon class="cls-4" points="156.01 250.6 151.32 250.6 157.75 311.35 213.3 307.53 207.04 255.22 156.01 250.6"/><polygon class="cls-9" points="156.01 247.6 160.93 309.21 270.6 305.69 257.09 247.6 207.78 252.35 156.01 247.6"/><path class="cls-19" d="M156,247.6l.89.06,2.65.22,10.27.89,38,3.37h0l49.3-4.81.24,0,.05.23c4.16,17.85,8.73,37.48,13.53,58.09l.08.35h-.36l-5.17.17-104.5,3.29h-.21l0-.22c-1.46-18.92-2.65-34.35-3.47-45.07-.4-5.32-.71-9.46-.93-12.3-.1-1.39-.17-2.45-.23-3.19s-.06-1.07-.06-1.07.05.38.11,1.12.16,1.82.28,3.23c.24,2.85.59,7,1,12.35.88,10.68,2.15,26,3.7,44.89l-.23-.21,104.49-3.42,5.18-.17-.28.36c-4.79-20.61-9.34-40.25-13.49-58.09l.29.21-49.31,4.69h0L170,249l-10.31-1-2.7-.27Z"/><path class="cls-19" d="M216.72,306.67a2.2,2.2,0,0,1-.18-.53c-.1-.42-.23-.92-.39-1.54-.32-1.33-.76-3.28-1.28-5.69-1-4.81-2.36-11.49-3.6-18.9s-2.15-14.16-2.73-19.05c-.29-2.45-.5-4.43-.63-5.8,0-.63-.09-1.15-.13-1.58a2,2,0,0,1,0-.56,2,2,0,0,1,.12.54c.07.43.15.95.24,1.57.21,1.45.48,3.4.81,5.77.69,4.88,1.67,11.6,2.9,19s2.49,14.09,3.42,18.92c.46,2.35.83,4.28,1.11,5.73.11.62.2,1.13.28,1.56A1.89,1.89,0,0,1,216.72,306.67Z"/><path class="cls-21" d="M187.93,268.59,189,290.07l-5,.25-.86-17.5-4.3.22-.2-4Z"/><path class="cls-21" d="M247.36,283.58l.41,4-16.18,1.62-.32-3.21,7.47-8.63c1.72-2,1.94-3.12,1.84-4.16-.17-1.69-1.43-2.55-3.69-2.32a5.23,5.23,0,0,0-4.22,2.58l-3.84-2c1.41-2.58,4.25-4.44,8.1-4.83,4.77-.48,8.2,1.65,8.59,5.54.2,2.08-.19,4-2.9,7.11l-4.46,5.15Z"/><path class="cls-22" d="M201.53,321.37l-10.12-7.45.55-17s4,.82,4.41,4.79.76,7.74.76,7.74l3.2,1-.44-2.2,7.77-11.07s2.94,2.18,1.71,5.06c1.42-1.38,3.65-.24,3.42,1l.55-3s3.54-1.05,3.38,2.53a21.65,21.65,0,0,1-.42,4.26l12.34,0s-3.56,6-5.61,7.67-20.81,6.71-20.81,6.71"/><path class="cls-23" d="M202.48,318.12a13.58,13.58,0,0,1-2-4.69,13.72,13.72,0,0,1-.65-5c.17,0,.5,2.21,1.22,4.88S202.63,318.05,202.48,318.12Z"/><path class="cls-23" d="M206.58,315.5a42.54,42.54,0,0,1-1.23-6.68v-.1l0-.09.19-.33a43.62,43.62,0,0,1,3.79-6.08,44.45,44.45,0,0,1-3.28,6.37l-.19.33,0-.18A40.33,40.33,0,0,1,206.58,315.5Z"/><path class="cls-23" d="M211.62,313.54a17.26,17.26,0,0,1-.49-4v-.07c.14-.64.28-1.31.43-2a31.12,31.12,0,0,1,1.62-5.86,32.2,32.2,0,0,1-1.05,6l-.46,2v-.07A18.27,18.27,0,0,1,211.62,313.54Z"/><path class="cls-22" d="M325.71,119.44l0,5.54,1.18,82.91c.13,9.63-8,17.41-18.34,17.48h0c-10.41.07-19.09-7.75-19.38-17.47-.32-10.21-.83-20.94-.83-20.94s-13.21-1.82-16.41-18.9c-1.58-8.49-1.54-22.49-1.14-33.94a18.12,18.12,0,0,1,19.51-17.44Z"/><path class="cls-19" d="M277.26,146.5a2.19,2.19,0,0,0,2.18,2.16,2.1,2.1,0,0,0,2.21-2,2.21,2.21,0,0,0-2.18-2.17A2.1,2.1,0,0,0,277.26,146.5Z"/><path class="cls-19" d="M274.07,141.31c.28.28,1.91-1,4.28-1.06s4.13,1.08,4.38.78c.12-.13-.17-.64-.94-1.17a6,6,0,0,0-3.52-1,5.87,5.87,0,0,0-3.4,1.2C274.16,140.66,273.93,141.19,274.07,141.31Z"/><path class="cls-19" d="M300.6,146.5a2.2,2.2,0,0,0,2.18,2.16,2.1,2.1,0,0,0,2.21-2,2.19,2.19,0,0,0-2.18-2.16A2.1,2.1,0,0,0,300.6,146.5Z"/><path class="cls-19" d="M297.35,141.11c.28.28,1.91-1,4.28-1.06s4.13,1.08,4.38.78c.12-.13-.17-.64-.94-1.17a6,6,0,0,0-3.52-1,5.87,5.87,0,0,0-3.4,1.2C297.44,140.46,297.21,141,297.35,141.11Z"/><path class="cls-19" d="M289.24,158.9a15.88,15.88,0,0,0-3.86-.59c-.61,0-1.18-.15-1.3-.56a3.07,3.07,0,0,1,.36-1.8c.52-1.48,1.08-3,1.66-4.65,2.3-6.62,3.95-12.06,3.68-12.15s-2.35,5.2-4.65,11.82c-.56,1.64-1.08,3.19-1.59,4.68a3.52,3.52,0,0,0-.25,2.38,1.52,1.52,0,0,0,1,.86,4,4,0,0,0,1,.11C287.75,159.07,289.23,159,289.24,158.9Z"/><path class="cls-23" d="M288.38,187a43.71,43.71,0,0,0,22.8-6.76s-5.25,11.93-22.46,10.8Z"/><path class="cls-23" d="M290.4,164.58a4.26,4.26,0,0,1,3.78-1.69,3.89,3.89,0,0,1,2.73,1.37,2.46,2.46,0,0,1,.26,2.81,2.85,2.85,0,0,1-3.08.87,8.82,8.82,0,0,1-3.07-1.72,2.52,2.52,0,0,1-.7-.68.79.79,0,0,1,0-.88"/><path class="cls-19" d="M296.25,160.35c-.38,0-.32,2.55-2.47,4.44s-4.89,1.68-4.9,2c0,.16.62.48,1.78.48a6.48,6.48,0,0,0,4.1-1.56,5.56,5.56,0,0,0,1.9-3.72C296.73,161,296.43,160.33,296.25,160.35Z"/><path class="cls-19" d="M296.48,131.85c.25.64,2.61.27,5.39.53s5.05,1,5.41.36c.15-.28-.25-.87-1.18-1.47a9.4,9.4,0,0,0-8.22-.68C296.87,131,296.37,131.55,296.48,131.85Z"/><path class="cls-19" d="M274.75,134.44c.43.52,2.05-.08,4-.16s3.63.26,4-.31c.16-.28-.11-.81-.85-1.3a5.8,5.8,0,0,0-6.45.38C274.77,133.62,274.56,134.18,274.75,134.44Z"/><path class="cls-19" d="M304.14,114c-4.58,6.09.19,14.72,5.47,20.22s11.71,11.89,10.27,19.38c-1.67,8.68-13.54,14.24-11.78,22.9.65,3.16,3.14,5.86,3.15,9.09,0,5.82-7.51,8.65-9.68,14.05-3,7.41,5.2,14.8,5.32,22.78.07,4.53-2.49,8.76-2.63,13.29C304,245,315,251.79,324,249.51s15.16-11.07,17.12-20.14-1-21.84-2.46-31L354.21,202c2.9-2.77-1.07-5.72-1.72-9.68-1.64-9.92-8.17-18.33-11.27-27.89-2.72-8.37-2.73-17.33-3.92-26s-3.89-17.79-10.54-23.54-18.17-6.46-23.56.5"/><path class="cls-22" d="M314.25,273l-4.74-6.45L316,252.12l2.27-33.63s-4.67-1.24-5.15,4l-.53,5.88-5.31-1.71-7.54,2.23s.34,3.84,3.37,3.08a19.05,19.05,0,0,1,5.5-.57l2.89,4.26v1.51l-3.84-2.73H300l-4.7,4.12s1.59,3.75,4.05,2.62c0,0-4.09,11.08-4.47,13.16,0,0-4.17,10.81,0,17.07a70.85,70.85,0,0,0,9.77,11.38Z"/><path class="cls-23" d="M316.14,240.11a3,3,0,0,0,.32-1.67,21.46,21.46,0,0,0-1.64-4,32.94,32.94,0,0,1-2.3-5.8,32.88,32.88,0,0,1,2.83,5.56c.34.76.66,1.5,1,2.21a5.7,5.7,0,0,1,.55,2,2.31,2.31,0,0,1-.35,1.36C316.34,240.05,316.17,240.14,316.14,240.11Z"/><path class="cls-23" d="M314.17,239.24c-.1.14-1.66-.79-3.48-2.09s-3.22-2.5-3.08-2.66a19.75,19.75,0,0,1,3.42,2.18A15.08,15.08,0,0,1,314.17,239.24Z"/><path class="cls-23" d="M310.77,245.59a6,6,0,0,1-1.6-1.79,13.57,13.57,0,0,1-1.24-2.31c-.19-.45-.37-1-.52-1.44a.73.73,0,0,0-.33-.46,3.21,3.21,0,0,0-.71-.15c-1.55-.2-3-.46-4.19-.58h.07a4.53,4.53,0,0,0-1.11.92c-.33.33-.61.63-.86.86-.49.47-.88.65-.9.6s.27-.28.69-.8l.77-.94a4.24,4.24,0,0,1,1.27-1.12h.08c1.28.07,2.7.3,4.26.5a3.06,3.06,0,0,1,.89.21,1.25,1.25,0,0,1,.61.79c.16.53.31,1,.48,1.43a16.42,16.42,0,0,0,1.1,2.29C310.26,244.83,310.84,245.53,310.77,245.59Z"/><path class="cls-23" d="M303.71,246.57a12.19,12.19,0,0,1,.46-3.72,12.37,12.37,0,0,1,1-3.61,11.85,11.85,0,0,1-.46,3.72A12,12,0,0,1,303.71,246.57Z"/><path class="cls-23" d="M309.42,252.86a1.7,1.7,0,0,0-.14-1.07,2,2,0,0,0-.92-.83,2.33,2.33,0,0,0-1.63,0,7.13,7.13,0,0,0-1.86,1,7.54,7.54,0,0,1-2.3,1.18,2.62,2.62,0,0,1-2.78-.89,1.89,1.89,0,0,1-.21-1.65,4.1,4.1,0,0,1,.83-1.38,25.81,25.81,0,0,1,4.25-3.94,5.25,5.25,0,0,1,2.42-1,3.82,3.82,0,0,1,2.22.52,6.88,6.88,0,0,1,2.27,2.26,3.84,3.84,0,0,1,.58,1s-.3-.3-.76-.88a7.48,7.48,0,0,0-2.29-2,3.42,3.42,0,0,0-2-.4,4.82,4.82,0,0,0-2.15.93,26.86,26.86,0,0,0-4.11,3.88c-.64.72-1.07,1.66-.6,2.33a2.12,2.12,0,0,0,2.19.69c1.59-.42,2.77-1.73,4.16-2a2.63,2.63,0,0,1,1.89.11,2.13,2.13,0,0,1,1,1C309.79,252.47,309.42,252.9,309.42,252.86Z"/><path class="cls-19" d="M358.9,323.14a9,9,0,0,1-1,1.09,12.52,12.52,0,0,1-3.6,2.32,17,17,0,0,1-6.65,1.36,21.25,21.25,0,0,1-8.77-1.89,41.89,41.89,0,0,1-9.24-5.77c-3.05-2.46-6.23-5.16-9.51-8.11a86.62,86.62,0,0,1-9.58-9.95,94.68,94.68,0,0,1-8.28-12.3c-.53-.93-1.06-1.86-1.58-2.79l-.11-.19.16-.15L318,268.89l.15-.15.18.11c11.35,7,20.82,13.24,27.58,17.55l7.88,5,2.09,1.34.54.36.17.13s-.07,0-.2-.09l-.55-.32-2.14-1.27c-1.86-1.12-4.57-2.78-8-4.9-6.8-4.23-16.32-10.4-27.68-17.37l.34,0-17.29,17.89,0-.34,1.58,2.78A94.88,94.88,0,0,0,311,301.83a87.28,87.28,0,0,0,9.5,9.91C327,317.52,332.91,323,339,325.64a21.12,21.12,0,0,0,8.61,1.94,16.92,16.92,0,0,0,6.56-1.24,13,13,0,0,0,3.61-2.2C358.53,323.51,358.87,323.11,358.9,323.14Z"/><path class="cls-19" d="M340.27,251.56a7.51,7.51,0,0,1,0,1.2c0,.91-.06,2-.09,3.28-.1,2.92-.23,6.67-.38,10.82s-.33,8.05-.49,10.81c-.08,1.29-.15,2.38-.2,3.28a5.27,5.27,0,0,1-.16,1.2,5,5,0,0,1-.07-1.21c0-.77,0-1.89,0-3.28,0-2.77.15-6.6.31-10.82s.36-8,.55-10.82A21.36,21.36,0,0,1,340.27,251.56Z"/><path class="cls-19" d="M354.56,221.84c0,.1-1.21.52-3,1.59a19.93,19.93,0,0,0-3,2.15,21.05,21.05,0,0,0-5.41,7.14,21,21,0,0,0-1.26,3.47c-.54,2-.6,3.36-.71,3.35a2.82,2.82,0,0,1,0-.93,13.52,13.52,0,0,1,.34-2.52,18.7,18.7,0,0,1,1.16-3.59,20,20,0,0,1,5.56-7.34,18.94,18.94,0,0,1,3.14-2.09,14,14,0,0,1,2.34-1A2.74,2.74,0,0,1,354.56,221.84Z"/><path class="cls-19" d="M266.45,284.75a12.23,12.23,0,0,1-.82-1.78c-.48-1.17-1.18-2.86-1.95-5-1.51-4.22-3.58-10.27-3.6-17.25a31.87,31.87,0,0,1,.41-5.05,43.71,43.71,0,0,1,1.1-4.57c.83-2.87,1.63-5.43,2.06-7.63a21.18,21.18,0,0,0,.42-5.27c-.07-1.25-.25-1.93-.18-1.94a1.71,1.71,0,0,1,.15.49,9.33,9.33,0,0,1,.25,1.44,19,19,0,0,1-.23,5.36c-.39,2.24-1.15,4.83-1.95,7.69-.39,1.44-.78,2.94-1.05,4.53a31.8,31.8,0,0,0-.4,5c0,6.85,2,12.86,3.41,17.11.72,2.13,1.36,3.84,1.77,5A12.24,12.24,0,0,1,266.45,284.75Z"/><path class="cls-19" d="M321.72,330.62a1.85,1.85,0,0,1-.5.23l-1.47.53c-1.28.47-3.16,1.06-5.51,1.7s-5.18,1.29-8.35,1.86-6.69,1-10.41,1.26-7.26.24-10.47.13-6.12-.41-8.53-.74-4.35-.66-5.68-.95l-1.53-.34a2.31,2.31,0,0,1-.53-.16,1.77,1.77,0,0,1,.55,0l1.55.23c1.34.22,3.28.49,5.69.76s5.29.5,8.49.62,6.73,0,10.43-.18,7.18-.7,10.35-1.2,6-1.14,8.33-1.73,4.25-1.11,5.55-1.51l1.5-.44A2,2,0,0,1,321.72,330.62Z"/><path class="cls-19" d="M262.46,305.32A7.36,7.36,0,0,1,262,307c-.38,1.09-1,2.66-1.69,4.58-1.46,3.84-3.53,9.14-5.71,15s-4.05,11.24-5.32,15.15c-.6,1.88-1.09,3.44-1.47,4.64a11.23,11.23,0,0,1-.59,1.69,9.82,9.82,0,0,1,.37-1.75c.26-1.12.72-2.73,1.29-4.7,1.17-3.95,3-9.35,5.17-15.24s4.31-11.16,5.87-15c.76-1.83,1.38-3.35,1.86-4.51A17.55,17.55,0,0,1,262.46,305.32Z"/><path class="cls-20" d="M341.46,522.05a2.64,2.64,0,0,1,0-.41c0-.3,0-.71,0-1.22,0-1.1-.06-2.67-.11-4.67-.07-4.07-.11-9.95-.11-17.21,0-14.53.2-34.6,0-56.76s-.9-42.22-2.26-56.68c-.36-3.61-.61-6.89-1-9.74-.18-1.43-.35-2.76-.5-4-.08-.61-.16-1.2-.23-1.76s-.18-1.08-.27-1.58c-.33-2-.59-3.52-.78-4.61-.08-.5-.14-.9-.19-1.2a3.06,3.06,0,0,1,0-.42,2.94,2.94,0,0,1,.1.41l.25,1.19c.21,1.08.51,2.62.89,4.59l.29,1.58c.08.56.17,1.15.25,1.76.17,1.23.36,2.56.56,4,.45,2.85.73,6.13,1.11,9.74,1.47,14.47,2.22,34.55,2.44,56.72s-.1,42.24-.2,56.76c0,7.24-.06,13.11-.08,17.2v4.68c0,.51,0,.91,0,1.22A1.85,1.85,0,0,1,341.46,522.05Z"/><path class="cls-19" d="M328.82,117.85a7,7,0,0,1,4.06-7.24,9.57,9.57,0,0,1,8.58.55,11.65,11.65,0,0,1,2.06,18.92,8.32,8.32,0,0,1-5.76,2.27c-1.86-.1-3.57-1-5.31-1.67s-3.74-1.1-5.42-.29"/><path class="cls-21" d="M336.52,132.29c-.19,0-.78-4-3.11-8.4s-5.3-7.21-5.15-7.34a8.93,8.93,0,0,1,2,1.79,25.24,25.24,0,0,1,5.93,11.31A8.67,8.67,0,0,1,336.52,132.29Z"/><path class="cls-20" d="M333.74,125.26a6.94,6.94,0,0,1-1.25.84,23.86,23.86,0,0,1-3.73,1.69,26.75,26.75,0,0,1-13.36,1.13,25.24,25.24,0,0,1-7.09-2.32,11.69,11.69,0,0,1-4.62-4,7.4,7.4,0,0,1-1.21-3.93,4.87,4.87,0,0,1,.11-1.11,1.25,1.25,0,0,1,.13-.38c.06,0-.08.54,0,1.48A7.57,7.57,0,0,0,304,122.4c1.85,2.87,6.38,5,11.45,5.94a27.76,27.76,0,0,0,13.14-1A47.51,47.51,0,0,0,333.74,125.26Z"/><path class="cls-20" d="M334.92,131.32s-.15.28-.52.72a16.36,16.36,0,0,1-1.7,1.74,22.2,22.2,0,0,1-6.89,4.1,21.87,21.87,0,0,1-7.9,1.36,15,15,0,0,1-2.42-.2,2.48,2.48,0,0,1-.87-.22c0-.1,1.27.07,3.29,0a24.4,24.4,0,0,0,14.52-5.37C334,132.19,334.85,131.25,334.92,131.32Z"/><path class="cls-20" d="M345.59,119a4,4,0,0,1-.23,2.17,7.49,7.49,0,0,1-8.36,5.19,4,4,0,0,1-2.05-.75c0-.1.8.23,2.09.34A7.68,7.68,0,0,0,345,121C345.45,119.81,345.49,119,345.59,119Z"/><polygon class="cls-20" points="465.58 480.66 40.98 480.66 39.87 494.19 122.21 494.19 122.21 522.47 130.16 522.47 130.16 494.19 432.3 494.19 432.3 522.6 440.25 522.6 440.25 494.19 465.58 494.19 465.58 480.66"/><path class="cls-22" d="M377.34,376.76c0-.61-8.7-39.31-9.36-42.23l7.34-10.85s2.69-2.56,1.86-3.7-2.25-1.28-3.85-.24c-1,.66-6.28,3.45-6.28,3.45s-2-15.7-2.41-16.83-1.51-1.68-2.24-.85-.54,11.47-.54,11.47-4.24-13.12-5.14-13.64a1.68,1.68,0,0,0-2.48.93c0,.52,2.9,14.59,2.9,14.59s-6.73-12.83-7.86-12.42a2.05,2.05,0,0,0-1.55,2c-.11.93,4.54,14.47,4.54,14.47s-5.16-9.93-6.1-9.62-1.36,1.66-1.21,2.65,6.57,20.46,7.76,24.07h0l2.74,46.28,18.59,40.14L390.82,403S377.34,377.39,377.34,376.76Z"/><path class="cls-22" d="M401.3,388.53s-2.2,32.81,2.13,37.87,13.32,3.8,13.32,3.8l5.81-27.9Z"/><path class="cls-21" d="M391.39,403.08l8.5,12,19.19,10.07L462.72,448a10.92,10.92,0,0,1,5.39,12.8l-1.51,5.05-16.37,40.49.84,16.26-87.14-.13s19.59-63.68,20.22-67.77-3.15-9.44-3.15-9.44-11.33-7.87-11.33-8.82S371.25,404.66,391.39,403.08Z"/><path class="cls-19" d="M389.34,470.73c-.11,0,0-1.55-.18-4a33.09,33.09,0,0,0-.67-4.32,42.45,42.45,0,0,0-1.57-5.11,54.65,54.65,0,0,0-4.35-8.7c-1.31-2.13-2.21-3.39-2.13-3.45a4.29,4.29,0,0,1,.73.82c.44.54,1,1.37,1.75,2.41a45.13,45.13,0,0,1,4.55,8.71,36.68,36.68,0,0,1,1.54,5.21,26.06,26.06,0,0,1,.56,4.4,16.44,16.44,0,0,1,0,1.7,9.2,9.2,0,0,1-.08,1.28A3.8,3.8,0,0,1,389.34,470.73Z"/><path class="cls-19" d="M439,501.83a10.73,10.73,0,0,1-1.68.63c-1.1.37-2.69.88-4.66,1.49-3.95,1.22-9.42,2.83-15.5,4.49s-11.62,3-15.65,4c-2,.48-3.64.84-4.77,1.08a13.2,13.2,0,0,1-1.77.31,10.31,10.31,0,0,1,1.72-.54l4.72-1.25L417,507.87l15.54-4.32,4.71-1.31A10.63,10.63,0,0,1,439,501.83Z"/><path class="cls-9" d="M467.42,461.61l-.71-.23c-.46-.17-1.16-.4-2.08-.64a24.93,24.93,0,0,0-8.3-.73,24,24,0,0,0-12.25,4.5,24.81,24.81,0,0,0-5.75,5.85,21.48,21.48,0,0,0-3.63,8.4,11.83,11.83,0,0,0,.12,4.88,7.35,7.35,0,0,0,2.73,4.16,9,9,0,0,0,10.15,0c3.08-2.19,4.46-6.46,3.7-10.37s-3.78-7.38-7.62-9.12a18.68,18.68,0,0,0-12.77-.76,27.7,27.7,0,0,0-6.26,2.54,31.18,31.18,0,0,0-5.65,3.95,31.74,31.74,0,0,0-8.24,11.4,27.67,27.67,0,0,0-1.94,7,22.12,22.12,0,0,0-.22,3.63,6.44,6.44,0,0,0,1,3.37,4.35,4.35,0,0,0,2.92,1.74,8.65,8.65,0,0,0,3.54-.19,10.24,10.24,0,0,0,5.74-4,10,10,0,0,0-1.21-12.75,13.59,13.59,0,0,0-5.91-3.27,20.73,20.73,0,0,0-6.68-.7A29.1,29.1,0,0,0,395.6,484a29.6,29.6,0,0,0-9.32,8.17c-2.39,3.23-4.1,7-4,10.8a8.92,8.92,0,0,0,5.9,8.26,6.34,6.34,0,0,0,4.89-.53,8.92,8.92,0,0,0,3.44-3.4,13,13,0,0,0,1-8.91,24.59,24.59,0,0,0-2.88-7.68c-2.56-4.46-6.67-7.15-10.31-7.32a11.56,11.56,0,0,0-4.73.63,8.6,8.6,0,0,0-4.77,4.1s.1-.23.33-.67a7.62,7.62,0,0,1,1.36-1.72,10.33,10.33,0,0,1,7.83-2.57c3.72.13,7.95,2.87,10.58,7.38a25.18,25.18,0,0,1,3,7.78,13.33,13.33,0,0,1-1,9.19,9.33,9.33,0,0,1-3.59,3.57,6.78,6.78,0,0,1-5.23.59,9.4,9.4,0,0,1-6.26-8.68c-.15-4,1.61-7.83,4-11.12a30.1,30.1,0,0,1,9.48-8.34,29.56,29.56,0,0,1,12.71-3.78,21.06,21.06,0,0,1,6.86.71,14.17,14.17,0,0,1,6.17,3.41,10.59,10.59,0,0,1,1.28,13.5,10.77,10.77,0,0,1-6.07,4.18,9,9,0,0,1-3.8.21,4.91,4.91,0,0,1-3.29-2,7,7,0,0,1-1.09-3.68,22.11,22.11,0,0,1,.23-3.74,28.43,28.43,0,0,1,2-7.11,32.26,32.26,0,0,1,8.4-11.6,31.86,31.86,0,0,1,5.76-4,27.52,27.52,0,0,1,6.39-2.58,19.22,19.22,0,0,1,13.14.81c4,1.8,7.18,5.34,7.89,9.52s-.65,8.53-3.92,10.85a9.44,9.44,0,0,1-10.7-.05,7.84,7.84,0,0,1-2.88-4.42,12.19,12.19,0,0,1-.11-5.06,21.72,21.72,0,0,1,3.74-8.54,24.88,24.88,0,0,1,5.86-5.9,24,24,0,0,1,12.42-4.46,24.35,24.35,0,0,1,8.35.84A18.17,18.17,0,0,1,467.42,461.61Z"/><path class="cls-9" d="M409.11,426.06a11,11,0,0,1-2.2,2.87,16.73,16.73,0,0,1-8.67,4.58,15.51,15.51,0,0,1-6.84-.23,17,17,0,0,1-6.92-3.7,16.22,16.22,0,0,1-2.82-3.22,12.57,12.57,0,0,1-1.85-4.09,6,6,0,0,1,.54-4.63,5,5,0,0,1,4.22-2.24,8.66,8.66,0,0,1,4.64,1.24,11.64,11.64,0,0,1,3.35,3.24,14.09,14.09,0,0,1,2.26,8.36,15.08,15.08,0,0,1-.76,4,13.66,13.66,0,0,1-1.79,3.41A14.27,14.27,0,0,1,387,440a16.58,16.58,0,0,1-9.69,1.41,12.16,12.16,0,0,1-3.47-1,26.35,26.35,0,0,0,3.5.8,16.68,16.68,0,0,0,9.48-1.55,14.05,14.05,0,0,0,5.11-4.22,12.94,12.94,0,0,0,1.69-3.29,14.89,14.89,0,0,0,.71-3.86,13.59,13.59,0,0,0-2.2-8,11,11,0,0,0-3.17-3.06,8.14,8.14,0,0,0-4.32-1.15,4.43,4.43,0,0,0-3.74,2,5.5,5.5,0,0,0-.48,4.19,12.24,12.24,0,0,0,1.76,3.91,15.67,15.67,0,0,0,2.71,3.12,16.59,16.59,0,0,0,6.69,3.64,15.25,15.25,0,0,0,6.64.29,16.77,16.77,0,0,0,8.58-4.33A22.94,22.94,0,0,0,409.11,426.06Z"/><path class="cls-9" d="M449.14,519.08c-.06.09-1-.63-2.69-1.31a12.74,12.74,0,0,0-13.34,2.36c-1.37,1.23-2,2.22-2.08,2.16s.09-.29.38-.73a10.14,10.14,0,0,1,1.42-1.73,12.26,12.26,0,0,1,13.78-2.44,10.69,10.69,0,0,1,1.93,1.13C449,518.84,449.16,519.05,449.14,519.08Z"/><g class="cls-24"><path d="M436.74,428.67c-8.49-3.72-18-4.14-26.95-8.27l-10.47-5.49c1,1.6,3.89,2.93,4.58,5.37s.43,5,.29,7.55a73.05,73.05,0,0,0,1.73,20.1c.94,4.11,2.73,8.66,6.71,10,2.66.92,5.57.13,8.28-.67,12-3.54,26.4-7.37,38.44-10.91C455.78,437.84,445.22,432.39,436.74,428.67Z"/></g><path class="cls-19" d="M464.18,389.87c-1.31-6.31-3.21-12.75-7.45-17.61-4.94-5.67-12.56-8.48-20.06-8.95-6.43-.41-7.71-3.57-14.29-2.5a19.76,19.76,0,0,0-7.12,2.73c-9.2,5.66-14.35,14.93-17,25.84-1,4.09-1.05,9.18,2.36,11.65,2.47,1.78,6,1.54,8.47,3.3,2.77,1.94,3.48,5.83,2.91,9.17s-2.16,6.41-3.1,9.67c-2.27,7.88-.62,16.3,1,24.34l48-1.4c1.85-.05,3.88-.17,5.22-1.44a7.5,7.5,0,0,0,1.78-4.26A132.42,132.42,0,0,0,464.18,389.87Z"/><path class="cls-20" d="M401.82,390.9a5,5,0,0,1,.11-1.32,13.23,13.23,0,0,1,.26-1.53c.13-.59.25-1.28.47-2a34,34,0,0,1,1.8-5.05,39.51,39.51,0,0,1,3.23-5.73,38.29,38.29,0,0,1,4.21-5.05,34,34,0,0,1,4.09-3.48c.6-.47,1.2-.82,1.71-1.16a13.14,13.14,0,0,1,1.34-.78,6,6,0,0,1,1.19-.58c.06.1-1.6,1-4,2.85a37.74,37.74,0,0,0-3.95,3.53,42.09,42.09,0,0,0-4.12,5,40.94,40.94,0,0,0-3.21,5.62,38.77,38.77,0,0,0-1.9,5C402.18,389.05,401.93,390.92,401.82,390.9Z"/><path class="cls-20" d="M407.53,397.69a13.7,13.7,0,0,1,.1-3.21,48.92,48.92,0,0,1,1.35-7.63,49.8,49.8,0,0,1,2.5-7.34,13.58,13.58,0,0,1,1.47-2.85,23.7,23.7,0,0,1-1.08,3,74,74,0,0,0-2.32,7.32,71.69,71.69,0,0,0-1.51,7.54A23.85,23.85,0,0,1,407.53,397.69Z"/><path class="cls-20" d="M454.43,437.55a3.47,3.47,0,0,1-.22-.77c-.13-.51-.28-1.27-.45-2.26a53.61,53.61,0,0,1-.67-8.43c0-3.57.23-7.82.61-12.52a143.41,143.41,0,0,0,.71-15.27,43.87,43.87,0,0,0-2.71-14.91,28.64,28.64,0,0,0-6.86-10.23,21.53,21.53,0,0,0-7-4.45,20.7,20.7,0,0,0-2.18-.68,4.07,4.07,0,0,1-.77-.23,3.86,3.86,0,0,1,.79.12,14.9,14.9,0,0,1,2.24.57,21,21,0,0,1,7.23,4.36,28.5,28.5,0,0,1,7.08,10.33,43.49,43.49,0,0,1,2.8,15.1,136.1,136.1,0,0,1-.76,15.34c-.41,4.69-.72,8.92-.74,12.47a62.55,62.55,0,0,0,.48,8.4c.14,1,.25,1.75.35,2.26A4.74,4.74,0,0,1,454.43,437.55Z"/><path class="cls-20" d="M450,436.84a19,19,0,0,1-.39-3.61c-.14-2.24-.23-5.34-.16-8.76s.28-6.52.51-8.75a19.36,19.36,0,0,1,.53-3.59,26,26,0,0,1-.11,3.62c-.13,2.23-.28,5.32-.35,8.73s0,6.5,0,8.73A26.9,26.9,0,0,1,450,436.84Z"/><path class="cls-22" d="M233.88,405.3q.68,9.29,1.37,18.58c-4.68.85-9.53,1.39-14.15.28s-9-4.13-10.66-8.58a4.72,4.72,0,0,1-.32-2.69,2.21,2.21,0,0,1,1.86-1.75"/><path class="cls-19" d="M246.39,385.48c.73-2.29,3.83-3.66,3.86-6S247,375.6,246,373.28c-1.44-3.48,2.83-7.19,1.85-10.81-1.18-4.33-8.63-4.79-10-9.07-.57-1.77,0-4-1.44-5.27-1.88-1.67-5.16,0-7.51-1-2.18-.95-2.75-3.85-4.92-4.82-2.32-1-4.87.65-7.06,1.9-.66.38-1.48.87-2.33,1.31-3.72-1.21-9.63-1-12.17.93-3,2.33-5.28,5.45-8.6,7.34-2.93,1.67-6.58,2.34-8.91,4.69-4.16,4.2-1.92,11.09-4,16.45-.73,1.83-2,3.45-2.73,5.27s-1,4,.17,5.61,3.71,2.54,3.76,4.49-2.48,3.32-2.24,5.22c.26,2.06,3.31,2.55,4.63,4.21,1.73,2.18,0,5.56,1.49,7.87,1.64,2.5,5.58,2,8.62,2.69,5.28,1.26,9.21,7,14.59,6.15,2.06-.33,3.83-1.64,5.89-2,2.77-.44,5.47,1,8.26,1.3,5,.62,9.74-2.2,13.92-4.89,2.14-1.38,4.44-3,5-5.34.51-2.15-.53-4.58.62-6.5s3.7-2.42,4.65-4.27C249,391.89,245.41,388.54,246.39,385.48Z"/><path class="cls-20" d="M192.69,363.26a1.22,1.22,0,0,1-.16-.43,4.83,4.83,0,0,1-.12-1.3,6.57,6.57,0,0,1,2-4.29,11.71,11.71,0,0,1,6.36-3.05,5.61,5.61,0,0,1,4.14.93,4.51,4.51,0,0,1,1.37,1.87,3.39,3.39,0,0,1,0,2.41,2.56,2.56,0,0,1-1.85,1.59,1.82,1.82,0,0,1-1.27-.17,1.7,1.7,0,0,1-.79-1,2.79,2.79,0,0,1,.4-2.25,3.9,3.9,0,0,1,1.67-1.36,5.31,5.31,0,0,1,6.46,2,7.2,7.2,0,0,1,.7,5.9,1.48,1.48,0,0,1-.18.42c-.05,0,.16-.61.23-1.71a7,7,0,0,0-1.1-4.38,4.72,4.72,0,0,0-2.43-1.86,4.77,4.77,0,0,0-3.46.1,3.44,3.44,0,0,0-1.42,1.17,2.27,2.27,0,0,0-.32,1.78,1.14,1.14,0,0,0,1.39.77,2,2,0,0,0,1.42-1.24,3.34,3.34,0,0,0-1.22-3.61,5.13,5.13,0,0,0-3.72-.84,11.52,11.52,0,0,0-6.13,2.81,6.53,6.53,0,0,0-2.06,4A9.4,9.4,0,0,0,192.69,363.26Z"/><path class="cls-20" d="M187.25,385.08a3.23,3.23,0,0,1-.46-1.12,7.36,7.36,0,0,1,2.53-7.62,7.69,7.69,0,0,1,6-1.53l-.34.33a8.58,8.58,0,0,1,0-2.48,8.92,8.92,0,0,1,3.7-6,8.59,8.59,0,0,1,9.31-.09,6.41,6.41,0,0,1,.84.65c.18.17.26.26.25.28s-.42-.29-1.21-.73a8.75,8.75,0,0,0-3.61-1.06,8.11,8.11,0,0,0-5.27,1.39,8.5,8.5,0,0,0-3.43,5.66,7.7,7.7,0,0,0,0,2.3l.06.41-.4-.08a7.29,7.29,0,0,0-5.62,1.37,6.93,6.93,0,0,0-2.55,3.95,7.69,7.69,0,0,0-.09,3.21C187.13,384.66,187.29,385.06,187.25,385.08Z"/><path class="cls-20" d="M226.41,354.14c0,.09-.79-.15-2-.21a9.31,9.31,0,0,0-8.27,4.12c-.7,1-1,1.78-1.06,1.75a4.24,4.24,0,0,1,.71-2,8.69,8.69,0,0,1,8.66-4.31A4.1,4.1,0,0,1,226.41,354.14Z"/><path class="cls-20" d="M242.77,384s.21-.41.52-1.17a7.75,7.75,0,0,0,.47-3.36,7,7,0,0,0-2.07-4.46,7.16,7.16,0,0,0-5.63-1.86,6.87,6.87,0,0,0-2.72.88l-.61.36.18-.68a5.33,5.33,0,0,0-1.13-4.71,5,5,0,0,0-3.54-1.72,5.73,5.73,0,0,0-2.67.48c-.59.26-.87.48-.9.45a2.28,2.28,0,0,1,.81-.64,5.55,5.55,0,0,1,2.77-.67,5.34,5.34,0,0,1,3.91,1.77,5.8,5.8,0,0,1,1.31,5.19l-.43-.32a7.24,7.24,0,0,1,3-1,7.62,7.62,0,0,1,6.07,2.05,7.21,7.21,0,0,1,2.1,4.82,7.38,7.38,0,0,1-.67,3.49,5.68,5.68,0,0,1-.5.82C242.86,383.92,242.79,384,242.77,384Z"/><path class="cls-21" d="M182.26,488.67s-13.94,2.81-16,1.32-9.82-6.55-8.63-13.4,15.48-55.68,18.46-59.25S182,410.2,188,410.49s45,8.64,45,8.64,16.08-.89,19.35,1.49S263,427.47,263,435.8s-1.65,65.48-1.65,65.48l4.34,21H179.87l2.39-33.6"/><path class="cls-19" d="M182.26,488.67c-.16,0-1.19-11.34-2.29-25.35s-1.87-25.38-1.71-25.4,1.19,11.34,2.29,25.35S182.42,488.66,182.26,488.67Z"/><path class="cls-9" d="M262.93,434.36a4.86,4.86,0,0,1-.9-.12l-2.55-.45-9.36-1.68c-7.9-1.4-18.85-3.22-31-4.92S196,424.25,188,423.43l-9.46-.95-2.57-.27a4.72,4.72,0,0,1-.9-.13,5.73,5.73,0,0,1,.91,0l2.58.15c2.24.15,5.48.41,9.48.76,8,.72,19.05,1.9,31.19,3.6s23.09,3.58,31,5.09c3.94.75,7.13,1.4,9.33,1.87l2.52.56A5.25,5.25,0,0,1,262.93,434.36Z"/><path class="cls-9" d="M261.35,455.17a4.9,4.9,0,0,1-.84,0l-2.41-.05c-2.1-.06-5.13-.19-8.87-.38-7.48-.38-17.81-1.05-29.19-2.09s-21.67-2.25-29.09-3.24c-3.71-.49-6.72-.92-8.78-1.24l-2.39-.38a4.36,4.36,0,0,1-.82-.17,4.81,4.81,0,0,1,.84.05l2.4.27L191,449c7.44.88,17.72,2,29.09,3.06s21.7,1.78,29.17,2.26l8.85.57,2.4.17A3.33,3.33,0,0,1,261.35,455.17Z"/><path class="cls-9" d="M262.66,474.55a4.48,4.48,0,0,1-.8.16l-2.32.34c-2,.29-4.94.65-8.56,1-7.24.74-17.29,1.41-28.41,1.42s-21.17-.67-28.41-1.41c-3.63-.36-6.55-.71-8.57-1l-2.31-.35a4.63,4.63,0,0,1-.81-.15,3.9,3.9,0,0,1,.82,0l2.33.23c2,.22,4.95.51,8.58.82,7.24.63,17.27,1.23,28.37,1.23s21.13-.61,28.37-1.25c3.62-.31,6.55-.6,8.57-.83l2.33-.23A3.9,3.9,0,0,1,262.66,474.55Z"/><path class="cls-9" d="M261.14,503.31a5.24,5.24,0,0,1-.81.08l-2.33.11-8.56.29c-7.23.2-17.22.4-28.26.46s-21-.05-28.27-.29c-3.62-.13-6.54-.24-8.56-.39L182,503.4a4.38,4.38,0,0,1-.81-.09,3.88,3.88,0,0,1,.81,0l2.33,0c2,.08,4.95.13,8.56.21,7.23.13,17.22.17,28.26.11l28.25-.29,8.57-.1h2.33A3.63,3.63,0,0,1,261.14,503.31Z"/><path class="cls-9" d="M180.26,463.81a75.75,75.75,0,0,1-9-2.42c-4.92-1.49-8.88-2.82-8.83-3a75.9,75.9,0,0,1,9,2.42C176.35,462.32,180.31,463.65,180.26,463.81Z"/><path class="cls-25" d="M55.65,424.34c-.27-6.65-6-18.63-8.39-30.41-1.2-6-1.92-11.37,2-16.13,3.29-4,7.89-6.76,12.42-9.33,7.21-4.09,14.83-8.12,23.11-8.57,5.4-.3,11.22,1.21,14.67,5.37,2.83,3.42,3.63,8,4.19,12.45a198.62,198.62,0,0,1,1.56,22.07,38,38,0,0,1-1.09,11.41c-1.1,3.67-3.37,7.15-6.78,8.91-2.94,1.52-6.44,1.66-9.38,3.18s-5.1,5.6-2.91,8.08l-19.42,5.31Z"/><path class="cls-19" d="M51.6,414.64a17.17,17.17,0,0,0,10.1,8.89,13,13,0,0,0,12.82-3c1.91-2,3-4.52,4.34-6.93s2.91-4.81,5.34-6.05,5.9-.84,7.31,1.5c.45.75.73,1.7,1.51,2.1a2.1,2.1,0,0,0,2.64-1.28,5.93,5.93,0,0,0,.08-3.24c-.67-4-1.47-8.1-1.32-12.19s1.34-8.31,4.15-11.29c2.16-2.29,5.08-3.67,7.66-5.48s5-4.35,5.2-7.49c.19-2.8-1.45-5.46-3.53-7.35-4.54-4.13-22.34-7.31-28-5,0,0-23.91,10.4-25.08,11.23S45,373,45.2,383.5,51.6,414.64,51.6,414.64Z"/><path class="cls-25" d="M55.65,424.34c-.27-6.65-6-18.63-8.39-30.41-1.2-6-1.92-11.37,2-16.13,3.29-4,7.89-6.76,12.42-9.33,7.21-4.09,14.83-8.12,23.11-8.57,5.4-.3,11.22,1.21,14.67,5.37,2.83,3.42,3.63,8,4.19,12.45a198.62,198.62,0,0,1,1.56,22.07,38,38,0,0,1-1.09,11.41c-1.1,3.67-3.37,7.15-6.78,8.91-2.94,1.52-6.44,1.66-9.38,3.18s-5.1,5.6-2.91,8.08l-19.42,5.31Z"/><path class="cls-19" d="M111.83,362.21a2.89,2.89,0,0,0-4.25.15,4.85,4.85,0,0,0-7.76-5.82,4.93,4.93,0,0,0-1.64-6.09,7.84,7.84,0,0,0-6.6-.91,20,20,0,0,0-6.08,3.18,4.24,4.24,0,0,0-2.34-3.67,8.44,8.44,0,0,0-4.44-.81,17.82,17.82,0,0,0-14.49,8.9,8.35,8.35,0,0,0-11,10.63,7,7,0,0,0-5.55,6.89,14.18,14.18,0,0,0-2.52,8.84c.24,10.55,6.4,31.14,6.4,31.14a17.17,17.17,0,0,0,10.1,8.89,13,13,0,0,0,12.82-3c1.91-2,3-4.52,4.34-6.93s2.91-4.81,5.35-6.05,5.25-.38,7.87.38c2.4.7,2.4-.85,2.54-2.67l-.2-10.82c.15-4.1,1.34-8.31,4.15-11.29,2.16-2.29,5.08-3.67,7.66-5.48s5-4.35,5.2-7.49a7,7,0,0,0-.06-1.37,7.36,7.36,0,0,0,1.21-2.08A4.39,4.39,0,0,0,111.83,362.21Z"/><path class="cls-20" d="M79.82,380a3.23,3.23,0,0,1-.28,1.15,6.9,6.9,0,0,1-1.87,2.65,6.81,6.81,0,0,1-4.56,1.75,7.27,7.27,0,0,1-5.51-2.51l.46,0a8.06,8.06,0,0,1-1.77,1.88,8.69,8.69,0,0,1-6.73,1.7A8.4,8.4,0,0,1,53,380.24a5.66,5.66,0,0,1-.13-1c0-.24,0-.36,0-.36s.09.49.33,1.34A8.77,8.77,0,0,0,55,383.42a8,8,0,0,0,4.64,2.67,8.33,8.33,0,0,0,6.27-1.63,7.78,7.78,0,0,0,1.65-1.75l.21-.32.25.3a6.92,6.92,0,0,0,5.08,2.37,6.55,6.55,0,0,0,4.29-1.53,7.49,7.49,0,0,0,1.94-2.45C79.67,380.41,79.77,380,79.82,380Z"/><path class="cls-20" d="M95.34,372.88s.5.68.22,1.92a4,4,0,0,1-1,1.88,4.87,4.87,0,0,1-2.31,1.26,7.56,7.56,0,0,1-4.62-.47,4.75,4.75,0,0,1-1.68-.91,8.67,8.67,0,0,1,1.82.52,8.31,8.31,0,0,0,4.34.29,4.56,4.56,0,0,0,2.07-1.08,3.9,3.9,0,0,0,1-1.6A6.17,6.17,0,0,0,95.34,372.88Z"/><path class="cls-20" d="M106.41,369a3.2,3.2,0,0,1-.31,1.9,6.16,6.16,0,0,1-7.81,3.57c-1.15-.41-1.68-1-1.64-1s.66.33,1.76.61a6.47,6.47,0,0,0,4.26-.34,6.54,6.54,0,0,0,3-3C106.23,369.74,106.31,369,106.41,369Z"/><path class="cls-20" d="M93,361.43a9.51,9.51,0,0,0-3.35-1.4,6.62,6.62,0,0,0-7.18,3.63,6.74,6.74,0,0,0-.71,2.56l-.57,0A2.56,2.56,0,0,0,79,363.73a3.9,3.9,0,0,0-2.83.61A21.22,21.22,0,0,0,74,366.1a2,2,0,0,1,.42-.63A7.35,7.35,0,0,1,76,364a4.21,4.21,0,0,1,3.14-.79,3.66,3.66,0,0,1,1.78.93,2.58,2.58,0,0,1,.83,2.07l-.58-.05A7.31,7.31,0,0,1,85.59,360a7.11,7.11,0,0,1,4.11-.33,6.67,6.67,0,0,1,2.54,1.11A2.49,2.49,0,0,1,93,361.43Z"/><path class="cls-20" d="M82.37,353.25a13.38,13.38,0,0,1-1.33.37,5.17,5.17,0,0,0-3.65,4.76,10,10,0,0,1,0,1.38c-.06,0-.34-.48-.4-1.38a5,5,0,0,1,4-5.17C81.83,353,82.38,353.18,82.37,353.25Z"/><path class="cls-20" d="M60.4,366.43c-.06,0,.12-.85,1.16-1.64a4.68,4.68,0,0,1,2.06-.85,5.76,5.76,0,0,1,2.7.26,10.13,10.13,0,0,1,4,2.7,5.76,5.76,0,0,1,1.25,1.54A8.06,8.06,0,0,1,70,367.2a11.67,11.67,0,0,0-3.9-2.44,5.58,5.58,0,0,0-2.45-.28,4.59,4.59,0,0,0-1.89.66C60.8,365.76,60.49,366.49,60.4,366.43Z"/><path class="cls-20" d="M71.83,375.49c-.14.08-.77-1.38-.28-3.18s1.73-2.77,1.81-2.63a22.21,22.21,0,0,0-1.24,2.78A20.28,20.28,0,0,0,71.83,375.49Z"/><path class="cls-25" d="M135.16,419.09l-16.37,5.32,3.14,30.09-1.16,2.29-12.16,19.95c-.22.35,12.34,3.3,17.07,4.31,5.9,1.26,21.47,0,19.16-19.55C143.2,447.67,135.16,419.09,135.16,419.09Z"/><path class="cls-25" d="M117.51,397.49a8.11,8.11,0,0,0-4.47,6.87,2,2,0,0,0,.22,1.16,1.58,1.58,0,0,0,2,.41,4.62,4.62,0,0,0,1.59-1.52"/><path class="cls-26" d="M116.84,404.41s0,.21-.25.51a3.61,3.61,0,0,1-1.11,1.13,2.14,2.14,0,0,1-1.13.3,1.62,1.62,0,0,1-1.26-.59,2.21,2.21,0,0,1-.34-1.46,8.5,8.5,0,0,1,.2-1.47,8.05,8.05,0,0,1,2.7-4.34,3.9,3.9,0,0,1,1.86-1c0,.09-.68.45-1.59,1.32a8.6,8.6,0,0,0-2.4,4.16,8.09,8.09,0,0,0-.19,1.36,1.65,1.65,0,0,0,.2,1.1,1.43,1.43,0,0,0,1.75.25,4.15,4.15,0,0,0,1.13-.9C116.66,404.52,116.81,404.38,116.84,404.41Z"/><path class="cls-25" d="M127.12,397.56s-8.06,3.22-9.06,5.82-2.79,12.28-2.79,12.28l3.58,9.37,16-3.2s2.46-19.11,2.64-19.68c0,0,5.58-16,5.57-17.46,0-2-1.57-2.63-3.51-.32s-6.26,11.14-6.26,11.14Z"/><path class="cls-25" d="M125.61,393.72a9.18,9.18,0,0,0-4.8.63,6.55,6.55,0,0,0-2.93,3.56,19.48,19.48,0,0,0-.95,4.61c-.15,1.17-.2,2.58.75,3.29a1.74,1.74,0,0,0,1.65.2,1.7,1.7,0,0,0,1-1.31"/><path class="cls-26" d="M120.35,404.7s.08.34-.23.83a1.77,1.77,0,0,1-.82.67,1.91,1.91,0,0,1-1.41,0,2,2,0,0,1-1.12-1.3,4.76,4.76,0,0,1-.16-1.89,25.76,25.76,0,0,1,.66-4.15,8.16,8.16,0,0,1,2.06-3.72,5.5,5.5,0,0,1,3.13-1.51,9.57,9.57,0,0,1,2.32,0c.54.05.84.11.83.15s-1.22,0-3.08.29a5.24,5.24,0,0,0-2.82,1.49,7.83,7.83,0,0,0-1.87,3.49,27.35,27.35,0,0,0-.69,4,4.74,4.74,0,0,0,.08,1.7,1.63,1.63,0,0,0,.83,1.06,1.56,1.56,0,0,0,1.88-.4A6.17,6.17,0,0,0,120.35,404.7Z"/><path class="cls-25" d="M133.08,395.28a7.73,7.73,0,0,0-3.59-2.44,5.08,5.08,0,0,0-4.35,1.41,12.74,12.74,0,0,0-2.65,3.92c-.58,1.19-1.12,2.39-1.62,3.62a7.34,7.34,0,0,0-.59,2,2.71,2.71,0,0,0,.55,2,2.5,2.5,0,0,0,3,.44,4.32,4.32,0,0,0,2-2.46"/><path class="cls-26" d="M125.76,403.81a2.69,2.69,0,0,1-.38,1.07,3.43,3.43,0,0,1-2.48,1.87,2.58,2.58,0,0,1-2.15-.65,2.87,2.87,0,0,1-.72-2.46,9.52,9.52,0,0,1,.86-2.61l1.18-2.64a12.19,12.19,0,0,1,3.22-4.63,5.09,5.09,0,0,1,4.46-1.07,6.36,6.36,0,0,1,2.6,1.72,4,4,0,0,1,.73.87,4.45,4.45,0,0,1-.88-.7,6.71,6.71,0,0,0-2.56-1.48,4.65,4.65,0,0,0-4,1.09,12.21,12.21,0,0,0-3,4.45c-.4.9-.8,1.77-1.18,2.62a9.07,9.07,0,0,0-.85,2.45,2.43,2.43,0,0,0,.53,2.05,2.15,2.15,0,0,0,1.75.57,3.27,3.27,0,0,0,2.33-1.57C125.57,404.17,125.71,403.79,125.76,403.81Z"/><path class="cls-25" d="M127.43,409.91l-1.05-5.5a12.34,12.34,0,0,1-5.58-2.4c-.55-1.45.22-2.37,2.21-2.93s8.42.37,9.13.75c2.45,1.32,2.74,4.75,3.09,7.52"/><path class="cls-26" d="M135.23,407.35a6.59,6.59,0,0,1-.28-1.3,17.85,17.85,0,0,0-.86-3.46,5.36,5.36,0,0,0-1.29-2,2.92,2.92,0,0,0-1.08-.64c-.44-.11-.92-.2-1.41-.28a31.91,31.91,0,0,0-6.46-.44,5,5,0,0,0-2.3.8,1.42,1.42,0,0,0-.6.84,1.89,1.89,0,0,0,.11,1l-.09-.13a12.42,12.42,0,0,0,5.44,2.4l.16,0,0,.15c.27,1.6.5,3,.68,4a6,6,0,0,1,.16,1.5,7.35,7.35,0,0,1-.4-1.46c-.23-1.07-.52-2.41-.87-4l.18.17a12.39,12.39,0,0,1-5.71-2.38l-.07-.05,0-.08a2.46,2.46,0,0,1-.14-1.36,2,2,0,0,1,.82-1.18,5.42,5.42,0,0,1,2.59-.91,30,30,0,0,1,6.6.49,14.76,14.76,0,0,1,1.47.31,3.35,3.35,0,0,1,1.26.79,5.73,5.73,0,0,1,1.35,2.19,15,15,0,0,1,.7,3.58A5.86,5.86,0,0,1,135.23,407.35Z"/><path class="cls-26" d="M125.75,408a9,9,0,0,1-1.5.18,8,8,0,0,0-3.28,1.27,7.85,7.85,0,0,0-2.35,2.62c-.45.8-.62,1.36-.71,1.33s0-.62.33-1.52a6.86,6.86,0,0,1,6-4.11A2.69,2.69,0,0,1,125.75,408Z"/><path class="cls-26" d="M131.77,459.49a42.65,42.65,0,0,1-5.09-2.08,42.67,42.67,0,0,1-5-2.19,18.9,18.9,0,0,1,5.27,1.65A19.1,19.1,0,0,1,131.77,459.49Z"/><path class="cls-21" d="M76.59,427.6c1-.34,17.26,2.57,22,4.67,2.66,1.19,25.25,19.51,25.25,19.51L107.23,479l-10.88-4-.13,47.61-67.72-.18,1.47-76s4.86-19.94,13.13-22.35S76.59,427.6,76.59,427.6Z"/><path class="cls-19" d="M94.87,475.75a1.84,1.84,0,0,1-.56-.07,13.39,13.39,0,0,1-1.56-.38,20.13,20.13,0,0,1-5.36-2.52,22.5,22.5,0,0,1-6.25-6.18,20.49,20.49,0,0,1-1.71-20.66,22.65,22.65,0,0,1,5.15-7.12,19.9,19.9,0,0,1,4.88-3.36,10.78,10.78,0,0,1,1.48-.63,2,2,0,0,1,.53-.17,25.42,25.42,0,0,0-6.6,4.46,22.56,22.56,0,0,0-4.94,7,20.19,20.19,0,0,0,1.66,20.14,22.58,22.58,0,0,0,6,6.13A25.13,25.13,0,0,0,94.87,475.75Z"/><path class="cls-19" d="M83.35,519.26c-.17,0,.24-9.51.9-21.22s1.32-21.2,1.49-21.19-.25,9.51-.91,21.22S83.51,519.26,83.35,519.26Z"/><path class="cls-19" d="M66.17,491.06a7,7,0,0,1-1,1c-.64.61-1.58,1.47-2.77,2.52-2.38,2.08-5.75,4.86-9.62,7.75s-7.5,5.33-10.18,7c-1.33.85-2.43,1.51-3.2,2a5.59,5.59,0,0,1-1.22.63,6.39,6.39,0,0,1,1.1-.83l3.1-2.1c2.61-1.77,6.19-4.26,10-7.14s7.26-5.6,9.7-7.6l2.89-2.37A6,6,0,0,1,66.17,491.06Z"/><path class="cls-9" d="M39.43,445.24c-.14-.1,1.18-2.05,2.52-4.61s2.2-4.74,2.36-4.69a14.59,14.59,0,0,1-1.84,5A14.38,14.38,0,0,1,39.43,445.24Z"/><path class="cls-9" d="M44.1,470.56a16.38,16.38,0,0,1-3.32-4.2,16.34,16.34,0,0,1-2.32-4.83,51.33,51.33,0,0,1,2.82,4.52A46.8,46.8,0,0,1,44.1,470.56Z"/><path class="cls-9" d="M62.18,447.77a30.27,30.27,0,0,1-3.73,4.61c-2.19,2.44-4.05,4.33-4.18,4.22A30.55,30.55,0,0,1,58,452,29.86,29.86,0,0,1,62.18,447.77Z"/><path class="cls-9" d="M67.74,477.53c-.15-.08,1.11-2.85,2.41-6.36s2.15-6.44,2.31-6.4a25.11,25.11,0,0,1-1.76,6.6A25.28,25.28,0,0,1,67.74,477.53Z"/><path class="cls-9" d="M56.09,490.81a41.33,41.33,0,0,1-.46-9.77,20.36,20.36,0,0,1,.52,4.87A20.68,20.68,0,0,1,56.09,490.81Z"/><path class="cls-9" d="M45.16,505.51a31.61,31.61,0,0,1-3.94-4.59,32.09,32.09,0,0,1-3.48-5,30.91,30.91,0,0,1,3.94,4.59A31.27,31.27,0,0,1,45.16,505.51Z"/><path class="cls-9" d="M59.92,515a12.82,12.82,0,0,1-.64-3.81,13.14,13.14,0,0,1-.06-3.86,12.9,12.9,0,0,1,.64,3.81A12.71,12.71,0,0,1,59.92,515Z"/><path class="cls-9" d="M76.46,508a23,23,0,0,1-3.16-4.13,23.74,23.74,0,0,1-2.68-4.46,23,23,0,0,1,3.16,4.13A22.77,22.77,0,0,1,76.46,508Z"/><path class="cls-9" d="M82.2,485.45a5.39,5.39,0,0,1-2.48-.05,5.56,5.56,0,0,1-2.4-.64,5.39,5.39,0,0,1,2.48.05A5.56,5.56,0,0,1,82.2,485.45Z"/><path class="cls-9" d="M93.79,498c-.14.09-1.45-1.88-2.92-4.38A23.55,23.55,0,0,1,88.45,489a23.74,23.74,0,0,1,2.92,4.38A23.85,23.85,0,0,1,93.79,498Z"/><path class="cls-9" d="M93.53,508.68a14.83,14.83,0,0,1-1.35,3.95,14.82,14.82,0,0,1-1.89,3.72,14.83,14.83,0,0,1,1.35-4A15,15,0,0,1,93.53,508.68Z"/><path class="cls-9" d="M86.38,460.12a16.26,16.26,0,0,1-1.62-9.3c.17,0,.25,2.12.7,4.67S86.55,460.06,86.38,460.12Z"/><path class="cls-9" d="M92.88,443.35a10.11,10.11,0,0,1,3-1.66,10.33,10.33,0,0,1,3.25-1.13,10.13,10.13,0,0,1-3,1.66A10,10,0,0,1,92.88,443.35Z"/><path class="cls-9" d="M101.06,458.24a16.23,16.23,0,0,1-2.26-3.68,15.64,15.64,0,0,1-1.74-4,16.23,16.23,0,0,1,2.26,3.68A15.64,15.64,0,0,1,101.06,458.24Z"/><path class="cls-9" d="M112.15,453.4a32.65,32.65,0,0,1-4.61-7.46,16.54,16.54,0,0,1,2.55,3.58A16.27,16.27,0,0,1,112.15,453.4Z"/><path class="cls-9" d="M108.73,467a19.84,19.84,0,0,1-4.45,1.56,19.69,19.69,0,0,1-4.62,1,18.72,18.72,0,0,1,4.46-1.56A18.51,18.51,0,0,1,108.73,467Z"/><path class="cls-9" d="M73.83,437.34a11.38,11.38,0,0,1-4.27-2.2,11.53,11.53,0,0,1-3.41-3.37c.13-.12,1.65,1.37,3.76,2.9S73.9,437.19,73.83,437.34Z"/><path class="cls-9" d="M49.43,428.71a5.85,5.85,0,0,1-3.34-.25,6,6,0,0,1-3-1.55,26.44,26.44,0,0,1,3.13,1A27.68,27.68,0,0,1,49.43,428.71Z"/><path class="cls-19" d="M520.84,522.47c0,.16-116.36.3-259.87.3s-259.9-.14-259.9-.3,116.34-.29,259.9-.29S520.84,522.31,520.84,522.47Z"/><text class="cls-27" transform="translate(154.14 173.84)">ABC</text><text class="cls-28" transform="translate(19.36 310.98)">10</text></g></g></svg>