<svg xmlns="http://www.w3.org/2000/svg" viewBox="0 0 239.98 581.39"><defs><style>.cls-1{isolation:isolate;}.cls-2{fill:#a53e2c;}.cls-3{fill:#fbc397;}.cls-4{fill:#f3caab;}.cls-11,.cls-12,.cls-16,.cls-17,.cls-21,.cls-22,.cls-23,.cls-25,.cls-28,.cls-29,.cls-38,.cls-4,.cls-40,.cls-43,.cls-46,.cls-50,.cls-8{mix-blend-mode:multiply;}.cls-5{fill:#4f4f4f;}.cls-6{fill:#a7aaab;}.cls-7,.cls-8{fill:#f4f1f0;}.cls-9{fill:#141414;}.cls-10,.cls-11,.cls-12,.cls-13,.cls-16{fill:#3b3b3b;}.cls-11,.cls-14,.cls-30,.cls-38,.cls-42{opacity:0.4;}.cls-13,.cls-14,.cls-18,.cls-26,.cls-30,.cls-36,.cls-42,.cls-48{mix-blend-mode:screen;}.cls-14{fill:#fce1de;}.cls-15{fill:#f2d1bb;}.cls-16,.cls-23,.cls-26,.cls-46{opacity:0.5;}.cls-17,.cls-25{fill:#13416b;}.cls-17,.cls-45{opacity:0.3;}.cls-18{fill:#4a4a4a;opacity:0.6;}.cls-19{fill:#cd7d5b;}.cls-20,.cls-21{fill:#fddcc0;}.cls-22{fill:#dddada;}.cls-22,.cls-28,.cls-43{opacity:0.7;}.cls-23{fill:#beccdf;}.cls-24{fill:#0c161e;}.cls-26{fill:#9ecaec;}.cls-27{fill:#221f1f;}.cls-28,.cls-44,.cls-50{fill:#e7b89a;}.cls-29{fill:#f2dccb;}.cls-30{fill:#fbd8d6;}.cls-31,.cls-45,.cls-47{fill:#fff;}.cls-32,.cls-48{fill:#d6293e;}.cls-33{fill:#7b1229;}.cls-34{fill:#7b91a5;}.cls-35,.cls-36{fill:#332c26;}.cls-37{fill:#0b0b0b;}.cls-39{fill:#333332;}.cls-41{fill:#dddddc;}.cls-42{fill:#facfce;}.cls-47{opacity:0.15;}.cls-49{fill:none;}</style></defs><g class="cls-1"><g id="Layer_2" data-name="Layer 2"><g id="Layer_2-2" data-name="Layer 2"><path class="cls-2" d="M78.2,545.21a.23.23,0,0,1,.19-.17c.31-17.88,2.1-35.73,2.85-53.59.7-16.76,1.6-33.48,1.87-50.23a.6.6,0,0,1-.06-.11c-.32-3.34-1.77-7.81,1.41-10.19s8.78-2,12.6-1.58c2.74.34,9,1.14,10.47,4,1,2,.6,4-.07,6.05-3.53,18.92-2.54,38.25-6.76,57-2.51,11.2-4.62,22.48-7,33.7a110.37,110.37,0,0,0-2.13,14.91c-.12,1.66.56,4,.57,6.07-1.28,2.36-4.89,2.51-7.79,2.06a11.48,11.48,0,0,1-6.2-2.77C77.1,548.78,77.51,547.23,78.2,545.21Z"/><path class="cls-3" d="M101,490.52a244.41,244.41,0,0,0,3.22-40,70.28,70.28,0,0,1,1.58-7.95c.12-.78.27-1.55.39-2.32,1.16-7.27-3.45-8.93-8.93-9.76a22.46,22.46,0,0,0-10.68,1.28c-2.3.74-2.89,2.9-3,5.18.43,3.65.76,7.22,1,10.78-1,7.34-1,14.74-1.29,22.13-.34,8.52-1,17-1.3,25.54q-.2,5.31-.45,10.62a.34.34,0,0,1,.18,0,32.54,32.54,0,0,0,9.8.51,21.87,21.87,0,0,0,4.84-1.28,13,13,0,0,1,1.31-.42C98.9,500.07,100.17,495.34,101,490.52Z"/><path class="cls-4" d="M81.5,506a.34.34,0,0,1,.18,0,32.54,32.54,0,0,0,9.8.51,21.87,21.87,0,0,0,4.84-1.28,13,13,0,0,1,1.31-.42c1.27-4.73,2.54-9.46,3.39-14.28a244.41,244.41,0,0,0,3.22-40,70.28,70.28,0,0,1,1.58-7.95c.12-.78.27-1.55.39-2.32,1.16-7.27-3.45-8.93-8.93-9.76a22.46,22.46,0,0,0-10.68,1.28c-2.3.74-2.89,2.9-3,5.18.43,3.65.76,7.22,1,10.78-1,7.34-1,14.74-1.29,22.13-.34,8.52-1,17-1.3,25.54Q81.76,500.69,81.5,506Zm8.67-11.68c.25-6.17.31-11.56.84-17.71.23-2.87.47-5.73.7-8.6a56.87,56.87,0,0,0,0-5.84c0-1-.1-2.47.77-3.18,1.07-.87,2.92-.07,4.29-.1-.9-2.22-3-3.84-3.76-6.19-.85-2.65,2-2.51,3.7-2.37,1.87.15,4.76-.9,5.57,1.44a9.05,9.05,0,0,1,0,4.54c.5,9.55-1.29,19.24-2.86,28.6a94.82,94.82,0,0,1-3.64,16.15c-.35,1-.9,3.12-1.86,3.5S89.78,503.83,90.17,494.32Z"/><path class="cls-5" d="M81.39,551.31a23.7,23.7,0,0,0,5.87.9c2.31.22,3-.48,3.44-2.58a7.81,7.81,0,0,0,.14-1,32.62,32.62,0,0,1-.4-5.73A110.1,110.1,0,0,1,92.62,528c1.11-5.5,2.15-11,3.23-16.52.44-1.72.9-3.43,1.36-5.13a17.28,17.28,0,0,1-4,1.31c-3.93.92-7.7.09-11.49-.89a.52.52,0,0,1-.26-.21c-.23,5-.47,9.91-.66,14.86-.27,7-.34,13.93-1,20.87-.23,1.84-.48,3.67-.8,5.48,0,.15-.11.2-.2.21A3.4,3.4,0,0,0,81.39,551.31Z"/><path class="cls-6" d="M78.2,545.21a.23.23,0,0,1,.19-.17c.23-13.14,1.25-26.24,2.07-39.37a5,5,0,0,0,2.63.57,31.76,31.76,0,0,0,8.39.26,21.87,21.87,0,0,0,4.84-1.28l.55-.19a6.93,6.93,0,0,0,1-.26,4.13,4.13,0,0,1,1.06-.21c-1.79,8.52-3.45,17.08-5.27,25.6a110.37,110.37,0,0,0-2.13,14.91c-.12,1.66.56,4,.57,6.07-1.28,2.36-4.89,2.51-7.79,2.06a11.48,11.48,0,0,1-6.2-2.77C77.1,548.78,77.51,547.23,78.2,545.21Z"/><path class="cls-7" d="M81.39,551.31a23.7,23.7,0,0,0,5.87.9c2.31.22,3-.48,3.44-2.58a7.81,7.81,0,0,0,.14-1,32.62,32.62,0,0,1-.4-5.73A110.1,110.1,0,0,1,92.62,528c1.11-5.5,2.15-11,3.23-16.52.44-1.72.9-3.43,1.36-5.13a17.28,17.28,0,0,1-4,1.31c-3.93.92-7.7.09-11.49-.89a.52.52,0,0,1-.26-.21c-.23,5-.47,9.91-.66,14.86-.27,7-.34,13.93-1,20.87-.23,1.84-.48,3.67-.8,5.48,0,.15-.11.2-.2.21A3.4,3.4,0,0,0,81.39,551.31Z"/><path class="cls-8" d="M79,547.8c.32-1.81.57-3.64.8-5.48.64-6.94.71-13.91,1-20.87.19-5,.43-9.91.66-14.86a.52.52,0,0,0,.26.21c3.79,1,7.56,1.81,11.49.89a17.28,17.28,0,0,0,4-1.31c-.08.28-.15.55-.22.83-3.4,3-9.33,1.42-13.41,3.42a.39.39,0,0,0-.08.59,6.55,6.55,0,0,0,1.73,1.27c.27.16,3.34,2,1.45,2.45-.93.24-2.21.51-2.05,1.74a28.69,28.69,0,0,1,.36,3.84c0,1.41,0,2.81-.08,4.22-.12,2.74-.34,5.48-.68,8.19-.29,2.17-1,4.54-.91,6.73.09,1.6,2.32,2.64,3,4s1.35,2.43,2.8,2.66a2.55,2.55,0,0,0,1.46-.26c.08.87.19,1.74.3,2.6a7.81,7.81,0,0,1-.14,1c-.44,2.1-1.13,2.8-3.44,2.58a23.7,23.7,0,0,1-5.87-.9,3.4,3.4,0,0,1-2.56-3.3C78.92,548,79,548,79,547.8Z"/><path class="cls-9" d="M41.71,579.83A14,14,0,0,1,39,578.76a7.66,7.66,0,0,1-2.68-1.54c-2.48-2.32-1.93-6.89-1.14-9.9s2-4.77,5-5.78c6-2,12.11-3.61,17.89-6.34,5.06-2.39,10.78-4.9,14.29-9.42a9.59,9.59,0,0,1,1.9-2.48c1.06-.86,3.55-.57,4.75-.55,2.42,0,5.08.28,6.81,2.19a4.16,4.16,0,0,1,.65,2.59c1.62.86,3,.41,4.68-.27l1.55-.62a4.15,4.15,0,0,1,2,1.26,12.24,12.24,0,0,1,1.6,3.68,42.27,42.27,0,0,1,1.78,7.28,31.58,31.58,0,0,1,0,9.51c-1.56,2.17-4.13,3.39-6.53,4.45-3.12,1.38-6.28,2.7-9.48,3.87A94.61,94.61,0,0,1,70.86,580c-1.44.23-2.9.45-4.37.62C58.52,581.49,49.54,582.08,41.71,579.83Z"/><path class="cls-10" d="M35.68,569.22c2,6.3,10.61,7.29,16.45,7.69A73.09,73.09,0,0,0,68,576.07c9.9-1.54,18.56-5.43,27.25-10,.62-.47,1.23-1,1.81-1.47.06-.47.14-.95.24-1.46l0-.1c0-.8,0-1.6,0-2.38-.2-1.34-.51-2.66-.7-3.85-.42-2.68-1-6-2.92-8a2,2,0,0,0-.44-.51,2.25,2.25,0,0,0-2.37-.18c-1.87.57-3.86,1-5.21-.47a4.17,4.17,0,0,0-3.81-3.74,18.14,18.14,0,0,0-6.81,0c-2.38.67-2.92,4-5,5.09-3.93,4-9.71,6.26-14.79,8.3-4.6,1.86-9.44,2.89-14.1,4.52C37.38,563.17,36.09,565.82,35.68,569.22Z"/><path class="cls-10" d="M35.68,569.22c2,6.3,10.61,7.29,16.45,7.69A73.09,73.09,0,0,0,68,576.07c9.9-1.54,18.56-5.43,27.25-10,.62-.47,1.23-1,1.81-1.47.06-.47.14-.95.24-1.46l0-.1c0-.8,0-1.6,0-2.38-.2-1.34-.51-2.66-.7-3.85-.42-2.68-1-6-2.92-8a2,2,0,0,0-.44-.51,2.25,2.25,0,0,0-2.37-.18c-1.87.57-3.86,1-5.21-.47a4.17,4.17,0,0,0-3.81-3.74,18.14,18.14,0,0,0-6.81,0c-2.38.67-2.92,4-5,5.09-3.93,4-9.71,6.26-14.79,8.3-4.6,1.86-9.44,2.89-14.1,4.52C37.38,563.17,36.09,565.82,35.68,569.22Z"/><path class="cls-10" d="M57.68,580c1.78,0,3.56-.15,5.34-.32a80,80,0,0,0,14.89-2.83c3.29-1,6.52-2.09,9.72-3.33,2.69-1,6.26-2,8.43-3.94a5,5,0,0,0,1.39-3.65c-.25.26-.69.26-1,.42s-.74.54-1.11.78c-.77.49-1.57.93-2.38,1.34-2.07,1-4.24,1.89-6.29,3A55.89,55.89,0,0,1,73.45,576a50.53,50.53,0,0,1-7.77,1.51l.21,0c-3,.32-6.08.47-9.13.52-1.76,0-3.52,0-5.29,0H50.4a32.48,32.48,0,0,1-6.32-1.13c-4.12-1.21-7.47-2.31-8.52-5.62a8,8,0,0,0,1.59,4.58c1.38,2.29,5.13,2.47,7.46,2.91A60.4,60.4,0,0,0,57.68,580Z"/><path class="cls-11" d="M35.68,569.22c2,6.3,10.61,7.29,16.45,7.69A73.09,73.09,0,0,0,68,576.07c9.9-1.54,18.56-5.43,27.25-10,.62-.47,1.23-1,1.81-1.47.06-.47.14-.95.24-1.46l0-.1c0-.8,0-1.6,0-2.38-.2-1.34-.51-2.66-.7-3.85-.42-2.68-1-6-2.92-8a2,2,0,0,0-.44-.51,2.25,2.25,0,0,0-2.37-.18c-1.87.57-3.86,1-5.21-.47a4.17,4.17,0,0,0-3.81-3.74,18.14,18.14,0,0,0-6.81,0c-2.38.67-2.92,4-5,5.09-3.93,4-9.71,6.26-14.79,8.3-4.6,1.86-9.44,2.89-14.1,4.52C37.38,563.17,36.09,565.82,35.68,569.22ZM55.14,566A13.54,13.54,0,0,1,59,562.51c3.31-2.13,7.19-3.2,10.76-4.78a48.11,48.11,0,0,0,6.2-3.25A5.56,5.56,0,0,0,78.14,551c.52-1.59,1.19-3.13,1.76-4.71a.37.37,0,0,1,.54-.22c.42.23.83.47,1.23.71a12.19,12.19,0,0,1,3.63,2.76,2.82,2.82,0,0,0,2.86.86,10.47,10.47,0,0,1,3.06.13c1.53.28,2.11,1.68,2.57,3,.73,2,1.07,4.25,1.66,6.35.35,1.22.64,2.61-.26,3.67a13.71,13.71,0,0,1-4.66,3.09,75.42,75.42,0,0,1-13.68,5,85.09,85.09,0,0,1-14.47,2.83,9.91,9.91,0,0,1-5.51-1.1c-1.22-.64-3.09-1.86-3.39-3.32S54.42,567,55.14,566Z"/><path class="cls-12" d="M57.68,580c1.78,0,3.56-.15,5.34-.32a80,80,0,0,0,14.89-2.83c3.29-1,6.52-2.09,9.72-3.33,2.69-1,6.26-2,8.43-3.94a5,5,0,0,0,1.39-3.65c-.25.26-.69.26-1,.42s-.74.54-1.11.78c-.77.49-1.57.93-2.38,1.34-2.07,1-4.24,1.89-6.29,3A55.89,55.89,0,0,1,73.45,576a50.53,50.53,0,0,1-7.77,1.51l.21,0c-3,.32-6.08.47-9.13.52-1.76,0-3.52,0-5.29,0H50.4a32.48,32.48,0,0,1-6.32-1.13c-4.12-1.21-7.47-2.31-8.52-5.62a8,8,0,0,0,1.59,4.58c1.38,2.29,5.13,2.47,7.46,2.91A60.4,60.4,0,0,0,57.68,580Z"/><path class="cls-13" d="M91.27,526.38c.34-1.85.61-3.76.92-5.66.65-3,1.4-5.88,2.34-8.77.1-.23.21-.46.32-.68-1.2,5.48-2,11-3.18,16.51-.76,3.69-2.06,7.56-2.43,11.41,0-.38,0-.76,0-1.13C89.79,534.14,90.55,530.26,91.27,526.38Z"/><path class="cls-13" d="M92.21,552.09c.7,2.4,1.74,4.82,1.81,7.33,0,.41-.5.17-.55-.11-.46-2.4-1-4.81-1.4-7.23C92.05,552,92.19,552,92.21,552.09Z"/><path class="cls-13" d="M65.24,572.15c3.67-1,7.43-1.79,11.12-2.7,3.41-.83,7.79-1.87,10.57-4.09,0,0,.12,0,.08.09-2.39,2.25-5.93,3.21-8.94,4.38a46.27,46.27,0,0,1-12.55,2.89C65.28,572.74,64.92,572.24,65.24,572.15Z"/><path class="cls-14" d="M99.16,476.09A156.65,156.65,0,0,0,100.47,457c0-.06.09,0,.1,0a82.67,82.67,0,0,1,0,18.27,104.92,104.92,0,0,1-4.16,19.62c0,.13-.26,0-.23-.14C97.84,488.74,98.25,482.26,99.16,476.09Z"/><path class="cls-2" d="M145.17,551c.63-16.72-2.76-33.54-3.27-50.25-.53-17.43,2.88-34.53,2.56-51.89a.61.61,0,0,1-.3-.41c-.45-3.45-1.33-6,.89-8.85,2.57-3.3,9.7-3.28,13.41-3.36,3.26-.07,7.11,1.05,8.61,4.1,1.28,2.57-.21,5.83-.61,8.78,0,.66,0,1.34-.05,2,0,.16,0,.31.05.45s-.05.05-.08,0a77.75,77.75,0,0,1-1.23,9.91A223.9,223.9,0,0,0,162,493.57c-.2,5.39-4.27,55.13-4.66,61.5a14.7,14.7,0,0,1-10,1.24,4.83,4.83,0,0,1-1.59-1.1.65.65,0,0,1-.59-.25C145.17,553.64,145.22,552.32,145.17,551Z"/><path class="cls-3" d="M162.93,467.5c.71-8.6,2.47-17.29,2.54-25.94-.56-1.71-1.94-3-5.22-3.47a26.27,26.27,0,0,0-11.63,1.6c-4.23,1.54-3,5.44-3.43,8.89a95.21,95.21,0,0,1,.24,20.82c-1,10.05-2.07,19.94-2,30.06,0,3.31.17,6.61.38,9.92,1.77,1.45,5.54,1.16,7.51.93s6.52-.5,8.27-2.08c.3-4.17.58-7.79.8-10.21C161.38,487.86,162.08,477.67,162.93,467.5Z"/><path class="cls-4" d="M143.48,499.46c0,3.31.17,6.61.38,9.92,1.77,1.45,5.54,1.16,7.51.93s6.52-.5,8.27-2.08c.3-4.17.58-7.79.8-10.21.94-10.16,1.64-20.35,2.49-30.52.71-8.6,2.47-17.29,2.54-25.94-.56-1.71-1.94-3-5.22-3.47a26.27,26.27,0,0,0-11.63,1.6c-4.23,1.54-3,5.44-3.43,8.89a95.21,95.21,0,0,1,.24,20.82C144.44,479.45,143.36,489.34,143.48,499.46Zm6.32-12.33c.28-5.33.59-10.74,2.27-15.85.71-2.12,1.64-4.16,2.31-6.29a10.59,10.59,0,0,0-.09-7.09c-.55-1.57-1.24-3.25.06-4.67,2.19-2.37,5.55-3.85,8.53-4.93a38.13,38.13,0,0,1-.32,5.74c-.14,3.8-.61,7.57-1.07,11.34-.6,4.91-.89,9.85-1.37,14.78-.42,4.36-1,8.71-1.32,13.08a47.45,47.45,0,0,1-1.31,9.8,8.53,8.53,0,0,1-.54,2.88c-.53,1.25-1.94,1.43-3.14,1.65-2.67.48-4-.12-4.23-3C149.07,498.85,149.51,492.89,149.8,487.13Z"/><path class="cls-5" d="M155.59,554.49a2.93,2.93,0,0,0,1.46-2.36c-1-2.46.06-6.21.26-8.78.28-3.76,1.34-21.07,2.25-34-1.88,1.94-6.9,2.21-8.78,2.31s-5.29-.07-6.87-1.47c.42,6.58,1.09,13.13,1.76,19.69.8,7.89,2.11,16.65.31,24.49A13.54,13.54,0,0,0,155.59,554.49Z"/><path class="cls-6" d="M142.36,509.07a.61.61,0,0,0,.07-.1c.48.12.95.26,1.43.41h0c1.77,1.45,5.54,1.16,7.51.93s6.52-.5,8.27-2.08v0a3.33,3.33,0,0,1,1.29-.07c-1.29,16.88-3.36,42.48-3.63,46.93a14.7,14.7,0,0,1-10,1.24,4.83,4.83,0,0,1-1.59-1.1.65.65,0,0,1-.59-.25c.07-1.32.12-2.64.07-4C145.7,537.06,143.43,523,142.36,509.07Z"/><path class="cls-7" d="M155.59,554.49a2.93,2.93,0,0,0,1.46-2.36c-1-2.46.06-6.21.26-8.78.28-3.76,1.34-21.07,2.25-34-1.88,1.94-6.9,2.21-8.78,2.31s-5.29-.07-6.87-1.47c.42,6.58,1.09,13.13,1.76,19.69.8,7.89,2.11,16.65.31,24.49A13.54,13.54,0,0,0,155.59,554.49Z"/><path class="cls-8" d="M143.91,510.24c1.58,1.4,5.1,1.56,6.87,1.47s6.9-.37,8.78-2.31c0,.25,0,.51-.05.77-2.5,2.36-7.12,2.18-10,3.95a.38.38,0,0,0-.08.58c.63.63,3.73,2.36,2.05,3.21a3.55,3.55,0,0,0-1.83,1.73c-.26.79.17,1.6.28,2.39a33.84,33.84,0,0,1,0,4.27c.06,3.4.55,6.79.55,10.19s-.12,6.82-.13,10.23a.37.37,0,0,0,.63.26c1.91-1.78,3.92-1.92,6.14-1.62-.35,2.27-.79,4.9,0,6.77a2.93,2.93,0,0,1-1.46,2.36,13.54,13.54,0,0,1-9.61-.07c1.8-7.84.49-16.6-.31-24.49C145,523.37,144.33,516.82,143.91,510.24Z"/><path class="cls-9" d="M174.22,581.31c-1.48.07-2.95.08-4.41.08A95.62,95.62,0,0,1,158.14,580c-3.35-.65-6.67-1.47-10-2.34-2.53-.66-5.27-1.46-7.16-3.36a31.54,31.54,0,0,1-1.46-9.4,42.54,42.54,0,0,1,.61-7.47,12.6,12.6,0,0,1,1-3.89A4.19,4.19,0,0,1,143,552l1.63.36c1.77.41,3.19.64,4.66-.46a4.21,4.21,0,0,1,.24-2.67c1.4-2.16,4-2.81,6.37-3.23,1.18-.21,3.6-.89,4.78-.2a9.18,9.18,0,0,1,2.27,2.15c4.18,3.9,10.22,5.48,15.6,7,6.13,1.78,12.4,2.38,18.66,3.43,3.12.53,4.66,2.13,5.89,4.92s2.51,7.27.43,10a7.93,7.93,0,0,1-2.4,2,14.33,14.33,0,0,1-2.51,1.47C191.21,580.13,182.24,581,174.22,581.31Z"/><path class="cls-10" d="M196.23,558.82c-4.85-.88-9.81-1.14-14.63-2.24-5.35-1.22-11.41-2.54-15.92-5.87-2.26-.75-3.3-4-5.76-4.25a18.4,18.4,0,0,0-6.73,1.06,4.16,4.16,0,0,0-3.17,4.29c-1.1,1.66-3.14,1.56-5.07,1.28a2.26,2.26,0,0,0-2.31.56,2.12,2.12,0,0,0-.36.57c-1.65,2.24-1.62,5.64-1.62,8.35,0,1.21-.11,2.56-.09,3.91.1.79.23,1.57.37,2.36a.47.47,0,0,1,.06.09c.19.48.34,1,.47,1.4.66.42,1.34.8,2,1.16,9.31,3.19,18.47,5.67,28.49,5.62a72,72,0,0,0,15.84-1.68c5.71-1.3,14.07-3.64,15-10.18C201.92,562,200.23,559.53,196.23,558.82Z"/><path class="cls-10" d="M196.23,558.82c-4.85-.88-9.81-1.14-14.63-2.24-5.35-1.22-11.41-2.54-15.92-5.87-2.26-.75-3.3-4-5.76-4.25a18.4,18.4,0,0,0-6.73,1.06,4.16,4.16,0,0,0-3.17,4.29c-1.1,1.66-3.14,1.56-5.07,1.28a2.26,2.26,0,0,0-2.31.56,2.12,2.12,0,0,0-.36.57c-1.65,2.24-1.62,5.64-1.62,8.35,0,1.21-.11,2.56-.09,3.91.1.79.23,1.57.37,2.36a.47.47,0,0,1,.06.09c.19.48.34,1,.47,1.4.66.42,1.34.8,2,1.16,9.31,3.19,18.47,5.67,28.49,5.62a72,72,0,0,0,15.84-1.68c5.71-1.3,14.07-3.64,15-10.18C201.92,562,200.23,559.53,196.23,558.82Z"/><path class="cls-10" d="M195.54,576.05c2.23-.8,5.91-1.57,6.91-4a8.08,8.08,0,0,0,.84-4.78c-.51,3.44-3.64,5.06-7.53,6.89a32.79,32.79,0,0,1-6.06,2.13l-1,.16c-1.74.33-3.48.61-5.23.86-3,.43-6,.77-9.09.92h.22a51,51,0,0,1-7.91-.26,56.44,56.44,0,0,1-13.78-2.47c-2.2-.74-4.47-1.24-6.67-1.94a26.41,26.41,0,0,1-2.57-.95c-.4-.17-.81-.46-1.22-.59s-.77,0-1.06-.26a5,5,0,0,0,1.95,3.38c2.45,1.63,6.12,1.95,9,2.56,3.34.73,6.71,1.34,10.11,1.76a80.85,80.85,0,0,0,15.16.45c1.77-.11,3.55-.29,5.31-.52A61.18,61.18,0,0,0,195.54,576.05Z"/><path class="cls-11" d="M140.57,566.48c.1.79.23,1.57.37,2.36a.47.47,0,0,1,.06.09c.19.48.34,1,.47,1.4.66.42,1.34.8,2,1.16,9.31,3.19,18.47,5.67,28.49,5.62a72,72,0,0,0,15.84-1.68c5.71-1.3,14.07-3.64,15-10.18-.94-3.29-2.63-5.72-6.63-6.43-4.85-.88-9.81-1.14-14.63-2.24-5.35-1.22-11.41-2.54-15.92-5.87-2.26-.75-3.3-4-5.76-4.25a18.4,18.4,0,0,0-6.73,1.06,4.16,4.16,0,0,0-3.17,4.29c-1.1,1.66-3.14,1.56-5.07,1.28a2.26,2.26,0,0,0-2.31.56,2.12,2.12,0,0,0-.36.57c-1.65,2.24-1.62,5.64-1.62,8.35C140.66,563.78,140.55,565.13,140.57,566.48Zm9.13-4.23c0-1.92-.51-4.14.26-6,.23-.57,1-.71,1.6-.84,1.57-.37,1.7-.75,1.9-2.19a5.2,5.2,0,0,1,5-4.18,4.7,4.7,0,0,1,4,1.24,24.12,24.12,0,0,0,6.49,4.2,58.08,58.08,0,0,0,15.85,4.38c3.69.52,7.43.34,11.11.87,2.34.34,5.19,1.41,5.45,3.9.39,3.75-6.53,5.7-9.42,6.61a59.32,59.32,0,0,1-9.9,2.21,92.22,92.22,0,0,1-13,.83c-5.12,0-10.15.09-15-1.76-3.44-1.31-4.2-3.92-4.35-6.82C149.69,563.91,149.69,563.08,149.7,562.25Z"/><path class="cls-12" d="M195.54,576.05c2.23-.8,5.91-1.57,6.91-4a8.08,8.08,0,0,0,.84-4.78c-.51,3.44-3.64,5.06-7.53,6.89a32.79,32.79,0,0,1-6.06,2.13l-1,.16c-1.74.33-3.48.61-5.23.86-3,.43-6,.77-9.09.92h.22a51,51,0,0,1-7.91-.26,56.44,56.44,0,0,1-13.78-2.47c-2.2-.74-4.47-1.24-6.67-1.94a26.41,26.41,0,0,1-2.57-.95c-.4-.17-.81-.46-1.22-.59s-.77,0-1.06-.26a5,5,0,0,0,1.95,3.38c2.45,1.63,6.12,1.95,9,2.56,3.34.73,6.71,1.34,10.11,1.76a80.85,80.85,0,0,0,15.16.45c1.77-.11,3.55-.29,5.31-.52A61.18,61.18,0,0,0,195.54,576.05Z"/><path class="cls-13" d="M157.15,513.19s.07,0,.08,0c.16,4.89-.47,9.81-.49,14.71a123.84,123.84,0,0,1-.88,15.16c0,.21-.3,0-.3-.13C155.67,533,156.72,523.12,157.15,513.19Z"/><path class="cls-13" d="M156.54,552c1.49-.93,3-1.71,4.79-.88a13.81,13.81,0,0,1,2.53,2.13c.77.63,1.52,1.38,2.24,2.08.07.06,0,.16-.07.1-1.26-.86-2.57-1.68-3.86-2.49a6.3,6.3,0,0,0-3.59-1.06c-.67,0-1.32.23-2,.22C156.55,552.06,156.49,552,156.54,552Z"/><path class="cls-13" d="M181,570.51a88.34,88.34,0,0,0,9.21-2.4c2.83-.94,6.76-2,8.94-4.06,0,0,.11,0,.08.07-1.49,2.44-4.82,3.36-7.32,4.43A39.93,39.93,0,0,1,181.17,571C180.94,571,180.71,570.58,181,570.51Z"/><path class="cls-14" d="M157.85,482.62c.72-5.17.66-10.73,1.94-15.78,0-.15.23,0,.22.1-.49,4.87-.54,9.76-1.19,14.63-.8,6-1.57,12.07-2.51,18.07,0,.33-.47,0-.47-.21C156,493.79,157.07,488.19,157.85,482.62Z"/><path class="cls-15" d="M71.32,444.67c.3-20.5,4.41-40.9,5.23-61.4.31-7.7,1.08-16.76,3.31-24.14,1.06-3.48-2.47-4.1-2.33-7,.09-2,1.67-3.53,3.3-4.87a21.41,21.41,0,0,0,3.77.59c4.51.34,8.9-.55,13.31-1.43,1.41-.29,2.81-.58,4.21-.89a9.15,9.15,0,0,1,3.52-.44c2.08.35,4.12.94,6.21,1.29a73.57,73.57,0,0,0,13.42,1.08c9.14-.14,18.4-.68,27.06-4a14.38,14.38,0,0,1,7.82-1,34.24,34.24,0,0,0,5.71.44,14.87,14.87,0,0,0,7.91-2.26c1.18.88,2.39,1.92,2.64,3.17a2.94,2.94,0,0,1-.34,2.14c-.67,1.45-.83,1.69-.33,3.8,1.93,8.12.84,17.14,1.27,25.44a361.59,361.59,0,0,1-1.29,56.71v0a1.5,1.5,0,0,1,0,.22c.07,1.06.51,4.88-.16,5.61-3,3.34-7.7,5.48-11.86,6.84-9.45,3.11-21.51,4.09-30.65-.66a1.17,1.17,0,0,1-.6-1c.51-3.18-.05-6.64.22-9.9,0,0,0,0,0,0-.08-.93-.16-1.84-.27-2.73-.72-6-1.35-11.94-2.37-17.86a139.18,139.18,0,0,1-1.83-15.52c-.1-1.74-.65-4-1-6.2,0,1.17.11,2.23.07,2.83-.32,5.41-1.23,10.81-2,16.17-1.25,9.2-2.73,18.36-4,27.54a43.8,43.8,0,0,1-.72,7.53c-.84,4.24-11.82,3.75-14.67,4.07a106.66,106.66,0,0,1-21.66.15c-4.14-.39-8.63-.74-12.21-3-.19.3-.76-.09-.76-.46s0-.52,0-.78C71.32,444.7,71.31,444.69,71.32,444.67Z"/><path class="cls-10" d="M72.42,443.58c.17-1.2.32-2.41.45-3.62.42-9.7,1.42-19.38,2.41-29,.53-5.16,1.12-10.32,1.65-15.48.41-4,0-8.21.89-12.14.26-4.17.58-8.34,1-12.48.26-2.57.14-10.85,3.33-12.19-1.53-2.31-4.1-4.75-3.68-7.53a4.29,4.29,0,0,1,3.12-3.67,21,21,0,0,0,3,.41c4.51.34,8.9-.55,13.31-1.43,1.41-.29,2.81-.58,4.21-.89a9.15,9.15,0,0,1,3.52-.44c2.08.35,4.12.94,6.21,1.29a73.57,73.57,0,0,0,13.42,1.08c9.14-.14,18.4-.68,27.06-4a14.38,14.38,0,0,1,7.82-1,34.24,34.24,0,0,0,5.71.44,15.24,15.24,0,0,0,7.26-1.86l.22.27a.48.48,0,0,1,.47.16c2.92,3.33-.67,6-1.33,9.42.19-.31.39-.61.59-.91s.19-.34.31-.51c0,0,0,0,0,0,.17-.24.35-.48.53-.71a.48.48,0,0,1,.82.14c2.09,7.57,1.35,16.08,1.49,23.87.06,3.51.22,7.09.25,10.67.72,7.62,0,15.53-.16,23.09-.18,7-.2,14.34-1.16,21.39.18,3.42.63,7.3-1.57,10.08-2.38,3-6.93,4.95-10.36,6.13-4.59,1.58-9.46,1.68-14.24,1.87-2.75.12-6.59.32-9.31-1.07-.63-.14-1.26-.29-1.88-.46a5.91,5.91,0,0,1-3.12-1.69c-.4-.12-.41-.17-.42-.63a5.15,5.15,0,0,1-.45-2.69c.09-1.62.1-3.25.05-4.87-.68-6.89-1.42-13.78-2.34-20.64-.61-4.53-1.3-9-1.94-13.58-.53-3.83-1.43-7.68-1.56-11.56a15.07,15.07,0,0,1-.31-2.94,1.64,1.64,0,0,1,.37-.51c1.63-1.41,3.24-2.37,4.57-4.05a41.72,41.72,0,0,0-6,3.72q-.73,15.3-2.81,30.45c-.72,5.37-1.58,10.72-2.38,16.08-.45,3-.56,6.42-1.3,9.5.12,1.92,0,3.82-1.54,5a7.3,7.3,0,0,1-3.51,1,32,32,0,0,1-4.86.76c-2.85.34-5.73.39-8.59.52A91.39,91.39,0,0,1,85.86,448a54.51,54.51,0,0,1-8.07-1.85c-1.66-.47-3.79-.58-5.2-1.7l-.25-.1a.71.71,0,0,1,0-.14A.52.52,0,0,1,72.42,443.58Z"/><path class="cls-16" d="M72.35,444.16a.71.71,0,0,0,0,.14l.25.1c1.41,1.12,3.54,1.23,5.2,1.7A54.51,54.51,0,0,0,85.86,448a91.39,91.39,0,0,0,15.78.39c2.86-.13,5.74-.18,8.59-.52a32,32,0,0,0,4.86-.76,7.3,7.3,0,0,0,3.51-1c1.52-1.14,1.66-3,1.54-5,.74-3.08.85-6.52,1.3-9.5.8-5.36,1.66-10.71,2.38-16.08q2.06-15.17,2.81-30.45a41.72,41.72,0,0,1,6-3.72c-1.33,1.68-2.94,2.64-4.57,4.05a1.64,1.64,0,0,0-.37.51,15.07,15.07,0,0,0,.31,2.94c.13,3.88,1,7.73,1.56,11.56.64,4.54,1.33,9.05,1.94,13.58.92,6.86,1.66,13.75,2.34,20.64,0,1.62,0,3.25-.05,4.87a5.15,5.15,0,0,0,.45,2.69c0,.46,0,.51.42.63a5.91,5.91,0,0,0,3.12,1.69c.62.17,1.25.32,1.88.46,2.72,1.39,6.56,1.19,9.31,1.07,4.78-.19,9.65-.29,14.24-1.87,3.43-1.18,8-3.09,10.36-6.13,2.2-2.78,1.75-6.66,1.57-10.08,1-7.05,1-14.36,1.16-21.39.19-7.56.88-15.47.16-23.09,0-3.58-.19-7.16-.25-10.67-.14-7.79.6-16.3-1.49-23.87a.48.48,0,0,0-.82-.14c-.18.23-.36.47-.53.71,0,0,0,0,0,0-.12.17-.21.34-.31.51s-.4.6-.59.91c.66-3.39,4.25-6.09,1.33-9.42a.48.48,0,0,0-.47-.16l-.22-.27a15.24,15.24,0,0,1-7.26,1.86,34.24,34.24,0,0,1-5.71-.44,14.38,14.38,0,0,0-7.82,1c-8.66,3.36-17.92,3.9-27.06,4a73.57,73.57,0,0,1-13.42-1.08c-2.09-.35-4.13-.94-6.21-1.29a9.15,9.15,0,0,0-3.52.44c-1.4.31-2.8.6-4.21.89-4.41.88-8.8,1.77-13.31,1.43a21,21,0,0,1-3-.41,4.29,4.29,0,0,0-3.12,3.67c-.42,2.78,2.15,5.22,3.68,7.53C79,360,79.1,368.26,78.84,370.83c-.44,4.14-.76,8.31-1,12.48-.91,3.93-.48,8.14-.89,12.14-.53,5.16-1.12,10.32-1.65,15.48-1,9.65-2,19.33-2.41,29-.13,1.21-.28,2.42-.45,3.62A.52.52,0,0,0,72.35,444.16Zm15.28-55.89c.13-3.95-.3-9.22,2.23-12.52,1.06-1.37,2.9-2.05,4.3-2.93,2.94-1.85-1-4.72-1.62-6.78a.51.51,0,0,1,.41-.69c6.89-.49,13.38,3.13,20.21,2.82-9-3.48-19.5-6.13-25.25-14.62a.52.52,0,0,1,.36-.8c6.39-.52,12.71.71,19,1.42a123.62,123.62,0,0,0,21.51.06c13.65-.9,27.07-3.13,40.61-5.09.4-.06.58.38.48.71-.81,2.64-2.62,4.69-3.89,7.07,2-.45,4-1.31,6-.94,1.9.33,1.53,2.79,1.48,4.25-.33,8.1-.65,16.21-1,24.31-.48,9.85-1,19.68-1.56,29.53-.22,4.14-.1,8.22-.22,12.34-.08,3-1.85,3.77-3.85,5.36,1.44.94,3,1.74,4.43,2.62.31.19.44.73.07.87-16.44,6.52-27.62-9.95-29.82-25.21-1-6.8,1.12-14-.49-20.6a.54.54,0,0,1,.17-.6c2.16-1.24,4.53-1.55,6.89-2.06-3.37-1.81-7.14-2.51-10.74-3.71a.53.53,0,0,1-.24-.68c1.79-3.36,5.15-5.38,8.07-7.52a73.61,73.61,0,0,0,9.55-8.43c-3.53,1.67-7.45,2.48-11,4-4.55,2-8.77,4.67-13.24,6.82-4,1.94-8.13,3.59-12.63,3.2-3.72-.31-7-2.53-10.46-4,3.25,2.37,7,4.11,10.16,6.6,3.71,2.93,4.6,6.16,4,10.88-.8,6-2.82,11.69-3.64,17.69-1.06,7.74-2.3,15.46-3.35,23.21-.51,3.78.09,8.57-4.53,9.16C105.93,444.54,86.12,433,87.63,388.27Z"/><path class="cls-17" d="M107.39,376.48c.84.35,1.66.77,2.49,1.18.9.74,1.81,1.46,2.74,2.16C110.85,378.75,109.05,377.69,107.39,376.48Z"/><path class="cls-16" d="M117.41,443c.82-10.3,2.24-20.49,3.47-30.75.63-5.29.75-10.63,1.44-15.9.39-3,2.19-6.31,1.72-9.35-.22-1.44-2.15-2.59-3.75-3.42,4.25-.31,8.32-2.8,12.11-4.68s7.63-3.86,11.47-5.73c-3.45,4.79-7.71,8.94-11.68,13.27a.39.39,0,0,0,.05.54c1,.71,2.12,1.29,3.08,2.07a15.26,15.26,0,0,1,2.54,3.05s0,0,0,0a1,1,0,0,0-.29.21c-.59.58-.71,1.39-1.22,2-2.78,3.39-.63,7.95,0,11.82,1,6.65,2.27,13.27,3.3,19.92.31,2,1.11,4,1.13,6.1,0,2.51-2.52,2.84-3.55,4.78a.39.39,0,0,0,.1.46,46.77,46.77,0,0,0,23.09,7.47A65.38,65.38,0,0,1,149,446c-2.75.12-6.59.32-9.31-1.07-.63-.14-1.26-.29-1.88-.46a5.91,5.91,0,0,1-3.12-1.69c-.4-.12-.41-.17-.42-.63a5.15,5.15,0,0,1-.45-2.69c.09-1.62.1-3.25.05-4.87-.68-6.89-1.42-13.78-2.34-20.64-.61-4.53-1.3-9-1.94-13.58-.53-3.83-1.43-7.68-1.56-11.56a15.07,15.07,0,0,1-.31-2.94,1.64,1.64,0,0,1,.37-.51c1.63-1.41,3.24-2.37,4.57-4.05a41.72,41.72,0,0,0-6,3.72q-.73,15.3-2.81,30.45c-.72,5.37-1.58,10.72-2.38,16.08-.45,3-.56,6.42-1.3,9.5.12,1.92,0,3.82-1.54,5a7.3,7.3,0,0,1-3.51,1c-.41.12-.83.21-1.25.29C115.61,446.45,117.21,445.33,117.41,443Z"/><path class="cls-17" d="M170.58,432c1.76-1,2.4-3,2.53-5.11.17-2.82,0-5.64.09-8.46.18-5,.08-10,.1-15s.38-10,.66-15.05c.52-9,.53-18.09,1.1-27.1.21-3.43.68-9-3.45-9.23.58-.63,1.16-1.26,1.71-1.91a3.62,3.62,0,0,0,.78,1.49c.33.36.8-.24.47-.6a3,3,0,0,1-.68-1.57l.62-.82a.41.41,0,0,1,.23.25c2.09,7.57,1.35,16.08,1.49,23.87.06,3.51.22,7.09.25,10.67.72,7.62,0,15.53-.16,23.09-.18,7-.2,14.34-1.16,21.39.16,3,.52,6.42-.92,9.09C173.57,435.17,171.67,433.17,170.58,432Z"/><path class="cls-16" d="M72.42,443.58c.17-1.2.32-2.41.45-3.62.42-9.7,1.42-19.38,2.41-29,.53-5.16,1.12-10.32,1.65-15.48.41-4,0-8.21.89-12.14.26-4.17.58-8.34,1-12.48.26-2.57.14-10.85,3.33-12.19-1.53-2.31-4.1-4.75-3.68-7.53a4.29,4.29,0,0,1,3.12-3.67,21,21,0,0,0,3,.41c4.51.34,8.9-.55,13.31-1.43,1.41-.29,2.81-.58,4.21-.89a9.15,9.15,0,0,1,3.52-.44c2.08.35,4.12.94,6.21,1.29a73.57,73.57,0,0,0,13.42,1.08c9.14-.14,18.4-.68,27.06-4a14.38,14.38,0,0,1,7.82-1,34.24,34.24,0,0,0,5.71.44,15.24,15.24,0,0,0,7.26-1.86l.22.27a.48.48,0,0,1,.47.16c1.88,2.15,1.06,4,.06,6,.12-1.08.35-2.16.48-3a.38.38,0,0,0-.4-.45c-3.88.23-7.54,1.64-11.37,2.19s-7.68.46-11.52,1.19-7.69,1.8-11.58,2.33a71.44,71.44,0,0,1-11.23.55c-15-.39-30.29-4-45.18,0a.39.39,0,0,0-.21.5c1.07,2.85,3.28,5,5.39,7,2.36,2.26,4.82,4.38,7.3,6.47-3.63-.54-7.24-1.91-10.79-2.52a.39.39,0,0,0-.42.52c1,2.27,2.75,3.93,4,6-2,.68-4.6.54-4.72,3.28a32.84,32.84,0,0,0,.18,4.09,37.82,37.82,0,0,1-.12,5.73c-.68,10.06-1.86,20.07-2.8,30.11-.25,2.73-.5,5.47-.72,8.21-.18,2.37-.17,4.81-.48,7.16-.38,2.8-1.69,6.73-.49,9.47,2.11,4.78,8.24,6,12.47,8.34a31.4,31.4,0,0,1-8.44-.26.39.39,0,0,0-.44.42,26.88,26.88,0,0,0,.46,2.71c-1.85-.38-3.68-.89-5.49-1.4s-3.79-.58-5.2-1.7l-.25-.1a.71.71,0,0,1,0-.14A.52.52,0,0,1,72.42,443.58Z"/><path class="cls-9" d="M71.32,444.72s0,0,0-.05c.3-20.5,4.41-40.9,5.23-61.4.31-7.7,1.08-16.76,3.31-24.14,1.06-3.48-2.47-4.1-2.33-7,.09-2,1.67-3.53,3.3-4.86l.78.17a4.29,4.29,0,0,0-3.12,3.67c-.42,2.78,2.15,5.22,3.68,7.53C79,360,79.1,368.26,78.84,370.83c-.44,4.14-.76,8.31-1,12.48-.91,3.93-.48,8.14-.89,12.14-.53,5.16-1.12,10.32-1.65,15.48-1,9.65-2,19.33-2.41,29-.13,1.21-.28,2.42-.45,3.62a.52.52,0,0,0-.07.58.71.71,0,0,0,0,.14l.25.1c1.41,1.12,3.54,1.23,5.2,1.7A54.51,54.51,0,0,0,85.86,448a91.39,91.39,0,0,0,15.78.39c2.86-.13,5.74-.18,8.59-.52a32,32,0,0,0,4.86-.76,7.3,7.3,0,0,0,3.51-1c1.52-1.14,1.66-3,1.54-5,.74-3.08.85-6.52,1.3-9.5.8-5.36,1.66-10.71,2.38-16.08q2.06-15.17,2.81-30.45a41.72,41.72,0,0,1,6-3.72c-1.33,1.68-2.94,2.64-4.57,4.05a1.64,1.64,0,0,0-.37.51,15.07,15.07,0,0,0,.31,2.94c.13,3.88,1,7.73,1.56,11.56.64,4.54,1.33,9.05,1.94,13.58.92,6.86,1.66,13.75,2.34,20.64,0,1.62,0,3.25-.05,4.87a5.15,5.15,0,0,0,.45,2.69c0,.46,0,.51.42.63a5.91,5.91,0,0,0,3.12,1.69c.62.17,1.25.32,1.88.46,2.72,1.39,6.56,1.19,9.31,1.07,4.78-.19,9.65-.29,14.24-1.87,3.43-1.18,8-3.09,10.36-6.13,2.2-2.78,1.75-6.66,1.57-10.08,1-7.05,1-14.36,1.16-21.39.19-7.56.88-15.47.16-23.09,0-3.58-.19-7.16-.25-10.67-.14-7.79.6-16.3-1.49-23.87a.48.48,0,0,0-.82-.14c-.18.23-.36.47-.53.71,0,0,0,0,0,0-.12.17-.21.34-.31.51s-.4.6-.59.91c.66-3.39,4.25-6.09,1.33-9.42a.48.48,0,0,0-.43-.16l-.23-.28c.21-.12.42-.25.62-.39,1.18.88,2.39,1.92,2.64,3.17a2.94,2.94,0,0,1-.34,2.14c-.67,1.45-.83,1.69-.33,3.8,1.93,8.12.84,17.14,1.27,25.44a361.59,361.59,0,0,1-1.29,56.71v0a1.5,1.5,0,0,1,0,.22c.07,1.06.51,4.88-.16,5.61-3,3.34-7.7,5.48-11.86,6.84-9.45,3.11-21.51,4.09-30.65-.66a1.17,1.17,0,0,1-.6-1c.51-3.18-.05-6.64.22-9.9,0,0,0,0,0,0-.08-.93-.16-1.84-.27-2.73-.72-6-1.35-11.94-2.37-17.86a139.18,139.18,0,0,1-1.83-15.52c-.1-1.74-.65-4-1-6.2,0,1.17.11,2.23.07,2.83-.32,5.41-1.23,10.81-2,16.17-1.25,9.2-2.73,18.36-4,27.54a43.8,43.8,0,0,1-.72,7.53c-.84,4.24-11.82,3.75-14.67,4.07a106.66,106.66,0,0,1-21.66.15c-4.14-.39-8.63-.74-12.21-3-.19.3-.76-.09-.76-.46S71.31,445,71.32,444.72Z"/><path class="cls-18" d="M113.56,386.49c-3.83-4-8.32-7.28-12.22-11.21,0,0,0-.14,0-.09,4.86,3.66,16.77,13.06,15.62,14-.79.62-2.43.35-3.6.5,1.39.86,2.56,1.42,2.83,3.71,0,.32-1.14,4.93-1.43,6.88-.55,3.73-1.16,7.44-1.66,11.18-.89,6.58-1.9,13.21-2.87,19.78-.31,2.05,0,2.12,1,3.72.16.28.66.86.59,1.27-.3,2.05-1.8,2-2.93,3.52-.45.59,1.19-4,.7-4.48a2.49,2.49,0,0,1-.7-2.33c.23-5.4,4.41-40.53,3.86-41.1-1.31-1.33-3.06-2.62-2.7-3.23a2.2,2.2,0,0,1,2.17-1.14c.65,0,1.3,0,1.95-.08a.67.67,0,0,1,.18-.07A8.94,8.94,0,0,1,113.56,386.49Z"/><path class="cls-18" d="M166.5,415.06c.14-2.11,1.27-45.3.73-47.43a2.71,2.71,0,0,1,.13-2.21c.57-.95.9-1.91,1.9-1.76a10.4,10.4,0,0,0-2.41.22,3,3,0,0,1-2.61-.43c-.23-.23-.56-.73-.37-1.1,1.2-2.16,4.34-1.89,6.07-3.46.12-.12.35.09.25.24-.84,1.27-2.8,2-3.9,3.12,1.76-.31,4.3-1.53,4.65,1.18a1.68,1.68,0,0,1-.26,1.07c-1,1.63-3.62,48.22-4.15,53.78Z"/><path class="cls-18" d="M110.49,356.44l3.22-.17c8.41,0,16.85-.47,25.21-1.18,7.82-.33,15.64-.69,23.44-1.33-.58.13-1.08.22-1.34.29a127.12,127.12,0,0,1-17.43,3.05c-12.6,1.24-25.53,1.81-38.08-.23a.46.46,0,0,1-.27-.15C107,356.65,108.74,356.56,110.49,356.44Z"/><path class="cls-19" d="M110.94,197.06a23,23,0,0,0,12,4.28,19.88,19.88,0,0,0,5-.45c2.19-.37,3.49-2.13,5.36-3.08.08-.05.23.08.18.16-5.26,8.64-16.69,5.15-22.85-.58C110.53,197.21,110.69,196.88,110.94,197.06Z"/><path class="cls-19" d="M111.5,207.1c.27-1.79-.23-7.16,1.06-8.45,1.53-1.53,3.33-1.28,5.4-1.4a77.47,77.47,0,0,1,10-.08,27.11,27.11,0,0,1,3.46.3c.75.44,1.49.92,2.23,1.38a1.34,1.34,0,0,1-.08.82c-.14.35-.26.72-.37,1.07-.88,6.38,0,12.63.19,19.16.1,4.4-.93,11.85-5.18,14.45-11.78,7.17-17.34-8.49-17.37-17.6A64.76,64.76,0,0,1,111.5,207.1Z"/><path class="cls-20" d="M115.5,230.92c3.06,5,9,5.09,13.05,1.69,2.17-1.82,3-5.61,3.47-8.17a56.46,56.46,0,0,0,.29-12c-.17-1.16-.37-2.32-.63-3.48a13.7,13.7,0,0,1-.18-5.18,17.44,17.44,0,0,1,.67-3.13c.48-1.81,1.64-1.85-1.3-2.29a74.24,74.24,0,0,0-13.83-.31c-4.77.19-4.2,4.08-4.5,7.56-.24,2.67-.56,5.32-.67,8C111.61,219.81,112.23,225.55,115.5,230.92Z"/><path class="cls-21" d="M115.5,230.92c3.06,5,9,5.09,13.05,1.69,2.17-1.82,3-5.61,3.47-8.17a56.46,56.46,0,0,0,.29-12c-.17-1.16-.37-2.32-.63-3.48a13.7,13.7,0,0,1-.18-5.18,17.44,17.44,0,0,1,.67-3.13c.48-1.81,1.64-1.85-1.3-2.29a74.24,74.24,0,0,0-13.83-.31c-4.77.19-4.2,4.08-4.5,7.56-.24,2.67-.56,5.32-.67,8C111.61,219.81,112.23,225.55,115.5,230.92Z"/><path class="cls-21" d="M131.5,203.82a13.7,13.7,0,0,0,.18,5.18c.14.63.26,1.25.37,1.88-5.7,2.54-12.46,3-18.5,2.65-.56,0-1.11-.08-1.66-.12.12-2.6.42-5.17.65-7.76.3-3.48-.27-7.37,4.5-7.56a74.24,74.24,0,0,1,13.83.31c2.94.44,1.78.48,1.3,2.29A17.44,17.44,0,0,0,131.5,203.82Z"/><path class="cls-6" d="M53.05,271a29.46,29.46,0,0,1,1.71-5.08A6.61,6.61,0,0,1,57,264.86q1.22-2.67,2.38-5.37C63.94,249,68.14,238.27,73.14,228c1.67-3.43,3.38-5,7.15-5.76,5.21-1.11,13.88-1.59,18-5.35,1.11-2.41,4.42-4.8,6.23-6.65,1.41-1.43,4.64-4.63,6.74-4.49a.69.69,0,0,1,.63.45,86.92,86.92,0,0,0,5.39,13.17c0,.09,0,.15,0,.17.15.31.32.61.47.93.76,1.54,6.88,10.47,7.54,9.53a41.53,41.53,0,0,0,7.19-23,21.08,21.08,0,0,1,.1-3.89.35.35,0,0,1,.21-.29c4-1.07,10.42,3.12,13.52,5.33a4.82,4.82,0,0,1,1.78,4.33c5,1.85,10,3.85,15,5.49,3,1,6.6,1.67,8.91,4,7.15,7.16,9.21,18.13,14.8,26.31l1,1.46a25.58,25.58,0,0,0,2.38,3.61c1.5,1.83,3.28,2.78,5.14,4.16.14.11.26.23.39.34a7.18,7.18,0,0,1,1,1.34,5.15,5.15,0,0,1,1.06,2.16,24.59,24.59,0,0,1-.74,3.8c-1.8,4-5.37,7.11-9,9.72a47.51,47.51,0,0,1-7.75,4.78c-1.92.91-5.13,2.87-7.43,2.7-.17-.06-.32-.13-.49-.18a.47.47,0,0,0-.58.33,9.64,9.64,0,0,0,.14,2.89c0,.73.08,1.46.11,2.2.3,8.05.94,16.06.87,24.12a101.77,101.77,0,0,1-1.1,13.6c.61,1.16,1.77,2.41,2,3.51.46,2-.4,4.42.35,6.27,1.72,4.23,4.82,10.4,3.55,15.05-.92,3.35-6.93,4.22-9.71,4.36-5,.24-9.62-1.09-14.2-2.78-7.93,1.87-15.88,3.83-24.12,3.63-7.87-.19-15.66-2.36-23.34-4.5-2.17.37-4.49.24-6.67.44-3.88.37-7.74,1-11.63.61a12.39,12.39,0,0,1-6-2,10.9,10.9,0,0,1-1.49-1.39A13.72,13.72,0,0,1,78,343.69c-.08-1.53-.08-3.07-.23-4.59a.74.74,0,0,0,0-.19,58.25,58.25,0,0,1,1.06-7.05c2-10.29,4.3-20.54,6.11-30.84.81-4.58,1.3-9.13,1.69-13.69-.39,0-.8-.11-1.19-.16-3.43-.42-6.86-.59-10.27-1.27a71.61,71.61,0,0,1-18-6.58c-3.24-1.64-4.56-3.19-4.68-5.78C52.62,272.69,52.83,271.86,53.05,271Z"/><path class="cls-7" d="M117,220.76l-.4-.73c-.7-1.48-1.36-3-2-4.52a83.26,83.26,0,0,0-3.28-8.22.42.42,0,0,0-.61-.16,1.29,1.29,0,0,0-.19,0,3.94,3.94,0,0,0-2.08,1.06,53.68,53.68,0,0,0-8,7,4.42,4.42,0,0,0-1.21,3.18c-.21,1.65.93,3.26,2.06,5,3.7,5.58,8.45,10.52,11.92,16.24,3.15,5.18,5.17-1.31,6.95-3.87.65-.94,2.53-4.16,4-5.08A46,46,0,0,1,117,220.76Z"/><path class="cls-7" d="M144.85,208.48c-1.43-.82-3-1.47-4.45-2.18a35.24,35.24,0,0,0-4.42-1.86c-2.54-.83-3,1.41-3.26,3.36.73,7.19-1.92,17-6.52,22.61,2,.73,3.39,4.21,4.3,5.76.61,1,1.27,2,1.89,3.07,1.28,2.13,1.23,1.52,2.89-.26a34.68,34.68,0,0,0,6-8.85,57.71,57.71,0,0,0,5.25-16.72C146.81,211.2,147.55,210,144.85,208.48Z"/><path class="cls-22" d="M101.37,223.34c3.7,5.58,8.45,10.52,11.92,16.24,3.15,5.18,5.17-1.31,6.95-3.87.65-.94,2.53-4.16,4-5.08a46,46,0,0,1-7.17-9.87l-.4-.73c-.7-1.48-1.36-3-2-4.52a83.26,83.26,0,0,0-3.28-8.22.42.42,0,0,0-.61-.16,1.29,1.29,0,0,0-.19,0,3.94,3.94,0,0,0-2.08,1.06,53.68,53.68,0,0,0-8,7,4.42,4.42,0,0,0-1.21,3.18C99.1,220,100.24,221.64,101.37,223.34Zm9.5-14.42a.47.47,0,0,1,.53.22,28.55,28.55,0,0,1,2.1,7.19.85.85,0,0,1,0,.16,75.51,75.51,0,0,0,3.52,6.73c1,1.67,2,3.3,2.94,4.95a3.15,3.15,0,0,1,.58,2.19,14.8,14.8,0,0,1-3.46,6c-1.23,1.21-2.38.28-3.22-.75-1.53-1.87-2.75-4.07-4.16-6a71.12,71.12,0,0,1-6.09-9.2C101.09,215.36,106.79,210.6,110.87,208.92Z"/><path class="cls-22" d="M132.72,207.8c.21-2,.72-4.19,3.26-3.36.33.1.66.22,1,.34l0,0c-2,1.59-1.22,5.82-1.59,8.08a32.1,32.1,0,0,1-1.66,7c-.88,2.12-2.06,4.14-2.77,6.33-1.27,4,.64,6.9,2.15,10.5a.48.48,0,0,0,.69.28,32.7,32.7,0,0,0,5.32-2.87,35.82,35.82,0,0,1-3.77,4.84c-1.66,1.78-1.61,2.39-2.89.26-.62-1-1.28-2-1.89-3.07-.91-1.55-2.26-5-4.3-5.76C130.8,224.83,133.45,215,132.72,207.8Z"/><path class="cls-7" d="M173.86,280.79a39.67,39.67,0,0,0,5.49-2c4.89-2.15,9-5.76,12.86-9.31,2.39-2.2,6.37-6.28,3.89-9.7-1.91-4.2-8-3.48-11.48-1.07-3.68,2.52-6.64,5.9-9.84,9a12.09,12.09,0,0,0-2.52,3,3.33,3.33,0,0,0-.83,1.51c-.17.17-.35.36-.52.51.16,1.47.31,2.93.44,4.4a11.47,11.47,0,0,0,.11,1.43,5.26,5.26,0,0,0,.11,1c0,.61.09,1.21.13,1.81A8.3,8.3,0,0,1,173.86,280.79Z"/><path class="cls-22" d="M171.43,272.16a3.33,3.33,0,0,1,.83-1.51,9,9,0,0,1,1.76-2.23,6.54,6.54,0,0,0,.08.87c.05.37.55.43.79.21a35.22,35.22,0,0,1,11-7.08c3.4-1.35,7.37-2.4,10.87-1.08.61,3-2.56,6.26-4.59,8.12-3.87,3.55-8,7.16-12.86,9.31a39.67,39.67,0,0,1-5.49,2,8.3,8.3,0,0,0-2.16.51c0-.6-.09-1.2-.13-1.81a5.26,5.26,0,0,1-.11-1,11.47,11.47,0,0,1-.11-1.43c-.13-1.47-.28-2.93-.44-4.4C171.08,272.52,171.26,272.33,171.43,272.16Z"/><path class="cls-7" d="M82.76,317.9c-.88,4.32-1.73,8.62-2.45,13-.24,1.5-.81,4-1.13,6.66a.41.41,0,0,0-.19.26,12.55,12.55,0,0,0-.29,2.67,7.83,7.83,0,0,0,2,6.94.46.46,0,0,1-.23-.06,1.94,1.94,0,0,1-.24-.15,8.26,8.26,0,0,0,1.37,1.08,7.76,7.76,0,0,0,1.29.92,12.75,12.75,0,0,0,6.35,2,23.73,23.73,0,0,0,4.12-.55c2.44-.13,4.88-.38,7.32-.41,1.57,0,3.16.26,4.74.36-2.41-.67-4.8-1.31-7.19-1.9a9.1,9.1,0,0,1,1.29-.17,45.3,45.3,0,0,1,8.18,1.59c4.2,1.16,8.45,2.05,12.68,3a46.57,46.57,0,0,0,11.86,1.44,22.11,22.11,0,0,0,7.75-1.12h.11a78.16,78.16,0,0,0,10.22-1.73c2.92-.72,5.84-1.46,8.8-1.18l-2.47.54c1.27.3,2.54.59,3.82.83,4.65,2.53,12.18,2.79,15.62-1.58,3.7-4.7-2.14-11.67-3.54-16.13a.41.41,0,0,0,0-.09,3.47,3.47,0,0,1,0-.56c.22-.7.41-1.41.58-2.12,1.16-4.61-.49-3.61-1.42-5.11-.47,3.21-1.08,6.41-1.73,9.57-.43-3.85.6-8.08.95-11.8.45-4.78.88-9.57,1-14.38.14-8.43.39-17.21-.79-25.62.11-6.61-1.19-13.32-2-19.8s-1.4-13.69.22-20.22c-1.19,6.35-.3,13.45.53,19.65q.48,3.69.89,7.36c1.19-2.51,4.37-5.18,5.87-7a28.48,28.48,0,0,1,9.7-7.61,9,9,0,0,1,4.86-.88c-.29-.35-.57-.71-.85-1.07-.09-.06-.16-.12-.25-.17-2.49-1.5-3.43-4.3-5-6.62-4.86-7.09-7.49-15.69-12.06-23-2.76-4.44-8.74-5.07-13.22-6.84A112.22,112.22,0,0,1,148,212.89c-.21,3.53-2.16,7.82-2.81,10.19a41.85,41.85,0,0,1-8.12,15.53c-.78.93-2.5,3.88-4.11,3.16-1.41-.64-3.27-5.3-4.08-6.71-1.66-2.85-3.77-4.33-6.18-1-1.1,1.51-2.23,3-3.19,4.6-.27.45-.81,1.94-1.45,3.18a4,4,0,0,1-3.75.54c-.34-.43-.65-.88-1-1.26-2.53-3-4.83-6.4-7.17-9.54-2.57-3.47-5.21-6.92-7.43-10.62a5.14,5.14,0,0,1-.92-2.13c-2,1.49-6.61,2.61-7.25,2.78-4,1.05-8.14,1.57-12.1,2.7-1.57.44-2.77,1.83-3.76,3.53a15.07,15.07,0,0,0-2.11,4.32c-1.25,3.5-2.94,6.75-4.39,10.16s-2.71,7-4,10.56c-1.12,2.55-2.29,5.07-3.44,7.63-.21.47-.41.95-.61,1.43s-.57,1.05-.88,1.56a.41.41,0,0,0,0,.49l-.24.6c3.75-.24,8.16,1.15,11.07,1.76a53.33,53.33,0,0,1,17.61,6.8c0-.42.07-.83.1-1.25.91-10.31,2.58-22.48-.27-32.58,0-.13.13-.11.16,0,2.64,7.24,2.09,15.64,1.7,23.17-.47,9.29-.48,18.85-1.68,28.07S84.62,308.78,82.76,317.9Z"/><path class="cls-7" d="M58.68,278.91c4.26,2.56,9.8,4.23,14.57,5.45a63.54,63.54,0,0,0,8.26,1.24c.44.06,4.62,1,5.15.57l0,0c0-.22,0-.43.05-.65,1-1.55.34-3.61.41-5.32,0-.66.83-6.68.53-6.79a129.51,129.51,0,0,0-14.18-5,36,36,0,0,0-14.26-2.62c-1.7.1-3.51.39-4.34,2.08a9.65,9.65,0,0,0-1.05,3.69c0,.26-.09.51-.14.77C53,276.21,55.78,277.18,58.68,278.91Z"/><path class="cls-22" d="M56.23,272.76a20,20,0,0,1,6.18,0c2.38.24,4.75.43,7.12.82a48.51,48.51,0,0,1,12.59,3.72.49.49,0,0,0,.7-.28c.71-3-1.07-5.2-3.71-6.89,3,1.05,5.91,2.2,8.59,3.28.3.11-.5,6.13-.53,6.79-.07,1.71.57,3.77-.41,5.32,0,.22,0,.43-.05.65l0,0c-.53.41-4.71-.51-5.15-.57a63.54,63.54,0,0,1-8.26-1.24c-4.77-1.22-10.31-2.89-14.57-5.45-.85-.5-1.69-1-2.44-1.42C56.61,275.64,57.27,274.48,56.23,272.76Z"/><path class="cls-23" d="M59,264.55c3.75-.24,8.16,1.15,11.07,1.76a53.33,53.33,0,0,1,17.61,6.8c0-.42.07-.83.1-1.25.91-10.31,2.58-22.48-.27-32.58,0-.13.13-.11.16,0,2.64,7.24,2.09,15.64,1.7,23.17-.47,9.29-.48,18.85-1.68,28.07s-3.11,18.28-5,27.4c-.88,4.32-1.73,8.62-2.45,13-.24,1.5-.81,4-1.13,6.66a.41.41,0,0,0-.19.26,12.55,12.55,0,0,0-.29,2.67,7.83,7.83,0,0,0,2,6.94.46.46,0,0,1-.23-.06,1.94,1.94,0,0,1-.24-.15,8.26,8.26,0,0,0,1.37,1.08,7.76,7.76,0,0,0,1.29.92,12.75,12.75,0,0,0,6.35,2,23.73,23.73,0,0,0,4.12-.55c2.44-.13,4.88-.38,7.32-.41,1.57,0,3.16.26,4.74.36-2.41-.67-4.8-1.31-7.19-1.9a9.1,9.1,0,0,1,1.29-.17,45.3,45.3,0,0,1,8.18,1.59c4.2,1.16,8.45,2.05,12.68,3a46.57,46.57,0,0,0,11.86,1.44,22.11,22.11,0,0,0,7.75-1.12h.11a78.16,78.16,0,0,0,10.22-1.73c2.92-.72,5.84-1.46,8.8-1.18l-2.47.54c1.27.3,2.54.59,3.82.83,4.65,2.53,12.18,2.79,15.62-1.58,3.7-4.7-2.14-11.67-3.54-16.13a.41.41,0,0,0,0-.09,3.47,3.47,0,0,1,0-.56c.22-.7.41-1.41.58-2.12,1.16-4.61-.49-3.61-1.42-5.11-.47,3.21-1.08,6.41-1.73,9.57-.43-3.85.6-8.08.95-11.8.45-4.78.88-9.57,1-14.38.14-8.43.39-17.21-.79-25.62.11-6.61-1.19-13.32-2-19.8s-1.4-13.69.22-20.22c-1.19,6.35-.3,13.45.53,19.65q.48,3.69.89,7.36c1.19-2.51,4.37-5.18,5.87-7a28.48,28.48,0,0,1,9.7-7.61,9,9,0,0,1,4.86-.88c-.29-.35-.57-.71-.85-1.07-.09-.06-.16-.12-.25-.17-2.49-1.5-3.43-4.3-5-6.62-4.86-7.09-7.49-15.69-12.06-23-2.76-4.44-8.74-5.07-13.22-6.84A112.22,112.22,0,0,1,148,212.89c-.21,3.53-2.16,7.82-2.81,10.19a41.85,41.85,0,0,1-8.12,15.53c-.78.93-2.5,3.88-4.11,3.16-1.41-.64-3.27-5.3-4.08-6.71-1.66-2.85-3.77-4.33-6.18-1-1.1,1.51-2.23,3-3.19,4.6-.27.45-.81,1.94-1.45,3.18a4,4,0,0,1-3.75.54c-.34-.43-.65-.88-1-1.26-2.53-3-4.83-6.4-7.17-9.54-2.57-3.47-5.21-6.92-7.43-10.62a5.14,5.14,0,0,1-.92-2.13c-2,1.49-6.61,2.61-7.25,2.78-4,1.05-8.14,1.57-12.1,2.7-1.57.44-2.77,1.83-3.76,3.53a15.07,15.07,0,0,0-2.11,4.32c-1.25,3.5-2.94,6.75-4.39,10.16s-2.71,7-4,10.56c-1.12,2.55-2.29,5.07-3.44,7.63-.21.47-.41.95-.61,1.43s-.57,1.05-.88,1.56a.41.41,0,0,0,0,.49Zm107.73-16.92c-1.11,4.32-.3,8.85-.75,13.24-.28,2.76-2.85,4.41-5,5.77-3.81,2.45-7.55,4.89-11.26,7.49a.45.45,0,0,1-.57-.07,49.2,49.2,0,0,1-7.43-12.65c-.95-2.17-1.81-4.37-2.71-6.56-.72-1.76-2.14-4-2.26-5.91a4,4,0,0,1,1.37-3,25.68,25.68,0,0,0,4.51-7.29c2-4.8,3-10,4.53-15q.61-2,1.08-4.08a8.89,8.89,0,0,1,.37-2.17,2.15,2.15,0,0,1,2.43-1c2,.41,3.6,1.58,5.44,2.3,2.14.85,4.45,1.32,6.66,2a19.88,19.88,0,0,1,5.62,2.42c1,.65,1.73.85,1.9,2.2a13.8,13.8,0,0,1-1,6.07c-.12.85-.27,1.69-.44,2.48a24.37,24.37,0,0,1,3.05-4.54.47.47,0,0,1,.79.21c1.2,8.64,7.56,15.54,12.23,22.54a.47.47,0,0,1-.28.69c-4.95,1.19-8,5.73-11.75,8.85a.49.49,0,0,1-.75-.09c-1.45-3.24-1.65-7.11-2.07-10.6a64.79,64.79,0,0,1-.35-11.39A39.37,39.37,0,0,0,166.77,247.63ZM128.6,346.55c4.69-3.85,9.69-7.33,13.79-11.85,2.43-2.68,4.53-5.66,3.57-9.41-.7-2.7-1.63-8.55-1.36-8.24,3.46,4,5.88,8.67,9.11,12.8-1.63-3.52-3.16-7.07-4.68-10.63-1.13-2.64-2.23-5.27-3.59-7.79a23.41,23.41,0,0,1-2.8-6.9.47.47,0,0,1,.45-.6c5.23.6,10.15,2.53,15.23,3.79,2.79.7,6,.69,8.58,2,.68.33,1.34.74,1.34,1.6a19.31,19.31,0,0,0-.26,2.37,25.32,25.32,0,0,1,.11,3.89c-.2,5.62-1.88,11.08-.71,16.7a.48.48,0,0,1-.46.6,10.74,10.74,0,0,0-2.46.69c2.61,2.91,6.16,4.77,9.17,7.23a.47.47,0,0,1,0,.67c-1.77,1.8-5.08,6.46-8.24,4.74a6.55,6.55,0,0,1-2.81-2.94c-.4-.81-.77-1.65-1.18-2.46-.83-1.62-2.54-1.32-3.83-.39-3.71,2.69-8.94,3.88-13.36,4.67a51.5,51.5,0,0,1-15.28.3C128.58,347.31,128.24,346.84,128.6,346.55Zm-31.8-23c-.85-1.93-2.08-3.76-3-5.61-.78-1.59-1.92-4-1.08-5.78s2.89-2,4.66-2.18c2.88-.34,5.95,0,8.75-.84a.48.48,0,0,1,.6.46,129.79,129.79,0,0,1-1.82,14.95,7.18,7.18,0,0,1,.57.47,38.19,38.19,0,0,1,3.1,3.5A69.67,69.67,0,0,1,118,344.28a.48.48,0,0,1-.53.7,90.64,90.64,0,0,0-24.86-3.11,19.68,19.68,0,0,1,4.22,2c.29.2.33.8-.11.86-4.44.64-11.72,1.92-13.87-3.44-1.53-3.81,0-7.24,1.28-10.88,1.65-4.55,2.44-9.36,4.22-13.86a.47.47,0,0,1,.58-.34C92.36,317.55,94.5,320.74,96.8,323.55ZM62.68,259.86a19.5,19.5,0,0,1,2.21-1.61c1.46-1,1.91-2.45,2.41-4,.86-2.69,1.74-5.39,2.6-8.09a89.08,89.08,0,0,1,6.48-15.91c1.39-2.55,3.44-5.32,6.53-3.55A13.21,13.21,0,0,1,85.76,229c-.26-.66-.5-1.33-.71-2a.48.48,0,0,1,.33-.58c4.13-1.15,8.36-1.88,12.32-3.58a.52.52,0,0,1,.65.17c.58.77,1.13,1.56,1.66,2.35a.5.5,0,0,1,.27.28l.12.31c2,3.13,3.76,6.46,5.58,9.74.61.82,1.23,1.63,1.86,2.44,1.23,1.61,2.57,3.17,3.71,4.85s1.77,4.87,4.56,2.83a.47.47,0,0,1,.7.41c-.29,4.2-2.09,8.06-3.16,12.09-1.28,4.84-1,10-2,14.94-.07.31-2.62-.67-2.87-.81-5.31-2.88-8.29-.66-14.81-.16-.28,0-.65,0-.7-.29-1-7.07,0-14.19-.23-21.3-.09-3.42-.45-6.36.39-9.73.76-3.05,2-6,2.38-9.08-1.93,2.13-2.94,5-5,7a.47.47,0,0,1-.79-.2,64.18,64.18,0,0,0-2.81-6.49l-1-1.16a41.26,41.26,0,0,0-1,9.8,82,82,0,0,1-1.43,10.33,22.21,22.21,0,0,0-.1,4.75A2.59,2.59,0,0,1,83,258c-1.65,1.36-3.68.5-5.6,0,2.65,2.63,5.67,4.93,7.15,8.47a.48.48,0,0,1-.46.6c-3.34-.14-6.29-1.73-9.32-3-3.78-1.56-8-2.26-11.88-3.49A.47.47,0,0,1,62.68,259.86Z"/><path class="cls-23" d="M116.59,335.63c-2.72-3.57-5.89-6.76-8.85-10.14,0-5.66.21-11.33.58-17a.47.47,0,0,0-.6-.45c-1.86.61-3.76,1.19-5.69,1.69-1.55.07-3.12.07-4.63.25s-3.13.34-4.14,1.43a42.54,42.54,0,0,1-4.92.23.48.48,0,0,0-.45.35c-1.73,4.87-4.61,9.25-6.45,14.1-.18.46-.35.91-.52,1.37.58-3.19,1.19-6.37,1.84-9.56,1.86-9.12,3.76-18.17,5-27.4s1.21-18.78,1.68-28.07c.2-3.93.45-8.09.26-12.2q.66,3.5,1,7c.44,4.15.14,8.3.52,12.45.22,2.39.81,5.54,3.8,5.6a25.27,25.27,0,0,0,5.79-.88,13.86,13.86,0,0,1,5.7,0c2.09.37,5.36,1.48,6.44-1,1.22-2.82,1.09-6.16,1.68-9.15.4-2,.89-4,1.42-5.94.58-2.18,1.25-5.39,3.12-6.87,3-2.35,7.58-1.13,11.06-1.05,3.34,7.14,6.59,14.18,8.54,21.9.36,1.41.76,4.6,2.63,5,2.26.42,4.55-.28,6.8-.48,3.07-.26,5.44-2.37,8-3.89a38.36,38.36,0,0,1,10.31-4.4c1.52-.39,2.59-.72,2.88-2.21.77,5.84,1.8,11.84,1.7,17.75,1.18,8.41.93,17.19.79,25.62,0,.09,0,.17,0,.25-3.63-1-7.3-1.8-11-2.64-4.54-1.05-9-2.39-13.5-3.55-1.26-.32-4.89-2.08-5.75-.11-1.24,2.81-1,6-.55,9,.62,4.05,2,8.64.8,12.7s-5.25,6.82-8,9.79c-3.27,3.48-6.56,6.93-9.92,10.3-1.42-2-2.93-3.89-4.46-5.78C118.53,338.29,117.59,336.93,116.59,335.63Z"/><path class="cls-23" d="M85.58,269.42c.26.1.64.05.7-.29.45-2.71.75-5.44,1.21-8.14.43-2.45,1-4.86,1.31-7.34.12-1.11.2-2.22.28-3.34.24,7.25-.66,14.79-1.26,21.55,0,.42-.06.83-.1,1.25a53.33,53.33,0,0,0-17.61-6.8l-.64-.15A45.84,45.84,0,0,1,85.58,269.42Z"/><path class="cls-23" d="M169.7,260.94a50.49,50.49,0,0,0,3.12,7.17,14.27,14.27,0,0,0-2.07,2.94q-.41-3.68-.89-7.36c-.07-.5-.14-1-.2-1.53S169.69,261.35,169.7,260.94Z"/><path class="cls-6" d="M148,211.8a4.53,4.53,0,0,0-1.77-3.64c-3.1-2.21-9.53-6.4-13.52-5.33a.35.35,0,0,0-.21.29,21.08,21.08,0,0,0-.1,3.89,41.53,41.53,0,0,1-7.19,23c-.66.94-6.78-8-7.54-9.53-.15-.32-.32-.62-.47-.93,0,0,.07-.08,0-.17a86.92,86.92,0,0,1-5.39-13.17.69.69,0,0,0-.63-.45c-2.1-.14-5.33,3.06-6.74,4.49-1.79,1.83-5,4.19-6.18,6.56a11.45,11.45,0,0,0-.07,3.15c.14.28.32.58.53.94,2.22,3.7,4.86,7.15,7.43,10.62,2.34,3.14,4.64,6.55,7.17,9.54.32.38.63.83,1,1.26a4,4,0,0,0,3.75-.54c.64-1.24,1.18-2.73,1.45-3.18,1-1.59,2.09-3.09,3.19-4.6,2.41-3.29,4.52-1.81,6.18,1,.81,1.41,2.67,6.07,4.08,6.71,1.61.72,3.33-2.23,4.11-3.16a41.85,41.85,0,0,0,8.12-15.53c.43-1.55,1.4-3.93,2.09-6.37C147.63,215.08,147.87,213.44,148,211.8Zm-23.82,18.83c-1.44.92-3.32,4.14-4,5.08-1.78,2.56-3.8,9-6.95,3.87-3.47-5.72-8.22-10.66-11.92-16.24-1.13-1.7-2.27-3.31-2.06-5a4.42,4.42,0,0,1,1.21-3.18,53.68,53.68,0,0,1,8-7,3.94,3.94,0,0,1,2.08-1.06,1.29,1.29,0,0,1,.19,0,.42.42,0,0,1,.61.16,83.26,83.26,0,0,1,3.28,8.22c.6,1.53,1.26,3,2,4.52l.4.73A46,46,0,0,0,124.21,230.63Zm22.33-17.22a57.71,57.71,0,0,1-5.25,16.72,34.68,34.68,0,0,1-6,8.85c-1.66,1.78-1.61,2.39-2.89.26-.62-1-1.28-2-1.89-3.07-.91-1.55-2.26-5-4.3-5.76,4.6-5.58,7.25-15.42,6.52-22.61.21-2,.72-4.19,3.26-3.36a35.24,35.24,0,0,1,4.42,1.86c1.49.71,3,1.36,4.45,2.18C147.55,210,146.81,211.2,146.54,213.41Z"/><path class="cls-6" d="M176.62,264a28.48,28.48,0,0,1,9.7-7.61,9,9,0,0,1,4.86-.88h0a2,2,0,0,1,.26,0,20.82,20.82,0,0,1,2.26.8c.53.36,1.06.73,1.61,1.13.14.11.26.23.39.34a7.18,7.18,0,0,1,1,1.34,5.15,5.15,0,0,1,1.06,2.16,24.59,24.59,0,0,1-.74,3.8c-1.8,4-5.37,7.11-9,9.72a47.51,47.51,0,0,1-7.75,4.78c-1.92.91-5.13,2.87-7.43,2.7-.17-.06-.32-.13-.49-.18a.49.49,0,0,0-.48.14c0-.37,0-.74,0-1.11a11.68,11.68,0,0,1,1.91-.4,39.67,39.67,0,0,0,5.49-2c4.89-2.15,9-5.76,12.86-9.31,2.39-2.2,6.37-6.28,3.89-9.7-1.91-4.2-8-3.48-11.48-1.07-3.68,2.52-6.64,5.9-9.84,9a12.09,12.09,0,0,0-2.52,3,3.33,3.33,0,0,0-.83,1.51l-.42.42-.17-.11c-.07-.33-.14-.66-.2-1,.11-.28.23-.56.32-.84C172.27,268.27,175.19,265.78,176.62,264Z"/><path class="cls-6" d="M53.05,271a29.46,29.46,0,0,1,1.71-5.08l.45-.31a9.64,9.64,0,0,1,1.87-.65c1-.2,2-.31,3-.45,3.51,0,7.42,1.22,10.07,1.78A53.65,53.65,0,0,1,87.56,273c0,.1,0,.18.08.27l-.17,0a129.68,129.68,0,0,0-14-4.94,36,36,0,0,0-14.26-2.62c-1.7.1-3.51.39-4.34,2.08a9.65,9.65,0,0,0-1.05,3.69c0,.26-.09.51-.14.77-.75,3.93,2.05,4.9,5,6.63,4.26,2.56,9.8,4.23,14.57,5.45a63.54,63.54,0,0,0,8.26,1.24c.43.06,4.33.92,5.07.61,0,.27,0,.54-.07.81l-.54.24-.55-.09c-3.43-.42-6.86-.59-10.27-1.27a71.61,71.61,0,0,1-18-6.58c-3.24-1.64-4.56-3.19-4.68-5.78C52.62,272.69,52.83,271.86,53.05,271Z"/><path class="cls-24" d="M109.15,319.49c.19-12.42,1.92-24.72,3.55-37,.94-7.15,1.94-14.29,3.27-21.37.59-3.21,1.39-6.39,2-9.6.39-2.1.6-4.58,1.53-6.56a22.15,22.15,0,0,1-2.39-2.25c-.56-.64.43-1.71.7-2.15a66.42,66.42,0,0,0,4-6.49c1.57-3.34,3.77-4.1,5.81-1.25a.28.28,0,0,1,0,.28c2.22,2.41,3.64,5.42,5.65,8a.59.59,0,0,1,.15.6,24.7,24.7,0,0,1-3.15,4.37c6.31,17.14,7.2,36,8.83,54a127.66,127.66,0,0,1,.28,24.8c0,.36-1.41,1.66-1.46,1.71-1.66,1.71-3.06,3.8-4.58,5.63-3,3.57-5.91,7.13-8.74,10.79-.2.27-.62-.07-.68-.4s-.41-.49-.62-.74c-.62-1.13-1.19-2.28-1.85-3.4a74.5,74.5,0,0,0-4.39-6.34c-2.71-3.72-5.56-7.35-8-11.24v-.32A4.51,4.51,0,0,1,109.15,319.49Z"/><path class="cls-10" d="M131.25,243.91a3.44,3.44,0,0,0,1.14-2.36c.44-.69-2.13-4-2.54-4.55-1.1-1.58-2.25-3.12-3.42-4.64-1.34-1-2.17.14-3.39,1.64a52.14,52.14,0,0,0-3.3,4.83c-1.08,1.73-2.39,3.17-.62,4.73l.47.43c1.1,2,3.83,4.82,5.87,5a.34.34,0,0,0,.12,0l.09,0a1.88,1.88,0,0,0,.82-.16C128.48,247.93,129.81,245.51,131.25,243.91Z"/><path class="cls-10" d="M118,331.78c1.71,2.58,5.56,8.16,5.86,10.06,0,0,0,0,.06,0l.27.31c4.46-5.81,9-12,14.25-17.06,1.9-1.85.47-9.86.44-12.42-.07-4.89-.38-9.76-.84-14.64-.93-9.76-1.68-19.41-3.25-29.1-1.22-7.54-3.12-15-4.74-22.45-.19.24-.38.49-.56.74-.87,1.19-2.42,2.86-4.05,3-1.07.07-2.35-1.75-2.9-2.39a19.38,19.38,0,0,0-2.31-2.22c-.42,3.18-3,14.79-3.28,16-1.42,6.44-2.2,13.2-3.06,19.73-.92,7.05-1.94,14.09-2.71,21.16-.39,3.52-.57,7.05-.81,10.58-.11,1.53.16,6.08-.16,8.07C111.29,323.94,115.7,328.33,118,331.78Z"/><path class="cls-16" d="M119.74,238.83A52.14,52.14,0,0,1,123,234c1.22-1.5,2-2.62,3.39-1.64,1.17,1.52,2.32,3.06,3.42,4.64h0a15.83,15.83,0,0,0-1.27-1.1c-.79-.6-1.74-1.21-2.68-.58a12.26,12.26,0,0,0-3.05,3.94,5.15,5.15,0,0,0-.29,5c.57,1.42,1.92,3.93,3.3,4.74,0,0,.09,0,.14.06l-.33,0-.09,0a.34.34,0,0,1-.12,0c-2-.22-4.77-3.05-5.87-5l-.47-.43C117.35,242,118.66,240.56,119.74,238.83Z"/><path class="cls-16" d="M110.37,313c.24-3.53.42-7.06.81-10.58.77-7.07,1.79-14.11,2.71-21.16.86-6.53,1.64-13.29,3.06-19.73.26-1.2,2.86-12.81,3.28-16a19.38,19.38,0,0,1,2.31,2.22c.55.64,1.83,2.46,2.9,2.39,1.35-.08,2.65-1.25,3.55-2.33.39-.32.78-.66,1.14-1,.59,2.71,1.22,5.4,1.83,8.1-.58-1.38-1.18-2.75-1.83-4.1a.48.48,0,0,0-.65-.17c-2.44,1.77-6.37,2.88-7.88,5.68a10.25,10.25,0,0,0-1,4.11c-.19,2.3-.49,4.56-.81,6.84-1.47,10.52-2.49,21.1-3.42,31.69-.44,5-1.18,10.09-1.23,15.1a27,27,0,0,0,3.18,12.27,112.78,112.78,0,0,1,4.36,10.71,21.6,21.6,0,0,0,2,4.49l-.44.58-.27-.31s-.07,0-.06,0c-.3-1.9-4.15-7.48-5.86-10.06-2.3-3.45-6.71-7.84-7.79-10.7C110.53,319.09,110.26,314.54,110.37,313Z"/><path class="cls-16" d="M120.41,237.77c.5-.77,1-1.58,1.57-2.35a59.25,59.25,0,0,1,10.37,6.47,3.79,3.79,0,0,1-1.08,2A99.77,99.77,0,0,0,120.41,237.77Z"/><path class="cls-16" d="M119.14,251.36c.14-.67.28-1.33.4-2a138.86,138.86,0,0,1,13.16,8.86c.19.88.39,1.76.57,2.64A168.85,168.85,0,0,0,119.14,251.36Z"/><path class="cls-25" d="M113.63,283.28c.08-.67.17-1.34.26-2l.09-.67q3.81,2.58,7.56,5.24c4.42,3.16,8.89,6.32,13.12,9.74,1.14.93,2.27,1.87,3.41,2.79.08.9.16,1.79.22,2.7C130.16,295,121.86,289.19,113.63,283.28Z"/><path class="cls-16" d="M120,308.57c-2.86-2.21-5.82-4.28-8.79-6.3.07-.71.16-1.41.24-2.12,9.37,6.45,18.75,12.87,28,19.53a17.38,17.38,0,0,1-.18,3.57C132.47,318.85,126.35,313.51,120,308.57Z"/><path class="cls-16" d="M116,266.34c.15-.91.3-1.82.48-2.73a227.32,227.32,0,0,1,19.33,12.77c.15,1.16.28,2.33.41,3.5C129.65,275.16,122.92,270.62,116,266.34Z"/><path class="cls-26" d="M151.31,219.27c0-.29.36-.24.54-.13,3.89,2.51,9,2.59,13.12,4.53a12.8,12.8,0,0,0,4.35,1.34.53.53,0,0,1,.41.45,8.13,8.13,0,0,1-.63,3.43c-.08.21-.4-.06-.34-.24.09-.47.17-.92.26-1.38a8.18,8.18,0,0,1-.08-1.13s-1.43.29-1.46.29c-.76-.15-2.35-1.85-2.62-2-2.66-1.42-6.55-2.24-9.45-3.1a12.9,12.9,0,0,1-3.13-1.14c.48.3-.75,4.67-.81,4.87-1.83,5.29-5.22,10.49-8,15.39-.11.18-.41-.08-.33-.24C146.35,233.49,150.27,226.72,151.31,219.27Z"/><path class="cls-26" d="M171.45,232.78A164.46,164.46,0,0,0,181.75,251c.08.11-.06.18-.14.09-4.57-5.41-8.42-11.39-10.24-18.35C171.36,232.72,171.43,232.74,171.45,232.78Z"/><path class="cls-26" d="M73.61,257.06a8.19,8.19,0,0,1,3.1-1c1.27-.24,3.29.5,3.69-1.48.31-1.6.44-3.29.62-4.91.76-6.68,1.91-13.37,1.75-20.12,0,0,0,0,0,0,.9,8.46-.35,17.09-1.41,25.48-.37,3-4.06,1.95-6.36,2.47-1,.22,2,2.24,2.45,2.68a22.55,22.55,0,0,1,3,3.13c.39.51-.19.82-.54.34a23.15,23.15,0,0,0-5.45-5.14c-.66-.46-.78-.43-1-1.1C73.52,257.35,73.5,257.14,73.61,257.06Z"/><path class="cls-26" d="M99.28,227.63c4.38,5.76,8.2,12,12.24,18.06.16.24-.13.38-.3.19a59.05,59.05,0,0,1-6.45-8c-2.09-3.29-3.72-6.82-5.9-10.08C98.65,227.46,99.09,227.38,99.28,227.63Z"/><path class="cls-26" d="M144.32,344.93c3-.89,6-1.89,8.92-3.05s5.59-2,7.63-4.36c0,0,.11,0,.08.07-3,5.18-10.77,7.34-16.33,8C144.35,345.57,144,345,144.32,344.93Z"/><path class="cls-26" d="M85.54,340l.09,0a.26.26,0,0,1,.13.14c1.23,1.09,2.91,1.57,4,2.83.29.31.16.85-.33.66A7.33,7.33,0,0,1,87,342.06c-.59-.59-1.39-1.09-1.71-1.89C85.25,340,85.39,339.91,85.54,340Z"/><path class="cls-2" d="M59.12,274.67c9.82-.91,19.39,2.13,27.81,7a1.73,1.73,0,0,0,.77.2c.56-.18,1.14-.37,1.71-.57l.34-.15a.15.15,0,0,1-.06.05c4.5-1.5,9.43-3.09,14.09-3.22l1.41-.23c3.76-.57,6.84,1.73,10.14,3.21,1.82.81,4.07,2.06,6.42,3.14,6.48-.23,13.25-2.35,19.59-3.5,4-.72,8-1,12-1.45.69-.07,1.38-.09,2.08-.1a27.51,27.51,0,0,1,3.74-3.07,29.89,29.89,0,0,1,6.54-3.28,41.8,41.8,0,0,1,7.46-1.33l-.21,0a17.7,17.7,0,0,0,3.23-.61,14.56,14.56,0,0,0,2.26-1.58c3.65-2.71,7.51-5.28,11.94-6.5a10.85,10.85,0,0,1,3.25-.44s.06,0,0,.05a14.94,14.94,0,0,0-4.93,1.7,34.3,34.3,0,0,1,1.75,3.48,31.89,31.89,0,0,1,1.13,4,16,16,0,0,0,.33,1.59c.63,1.58,3.07,1.17,4,2.51a1.61,1.61,0,0,1,.2.33c.83,2.05,1.6,4.1,2.59,6.08.41.8,1.09,2,.64,3-.8,1.75-2.72,1.49-3.86.48a5.7,5.7,0,0,1-.58,2.5,5.74,5.74,0,0,1-.45,4c0,.21,0,.43,0,.64a11.19,11.19,0,0,1-.23,3.15v0l0,.07c-.3,1.5-.93,3.07-2.19,2.87a.48.48,0,0,0-.58.47c0,.16,0,.32-.05.47-.68,2.47-1.32,4.94-2.17,7.31-.36.61-.73,1.2-1.14,1.77-3.07,2.71-8.48,1.21-12.13.65a.35.35,0,0,1-.2-.17l-1.53-.24c-8.45-1.13-16.78-2.83-25.17-4.28-3.3-.57-6.64-1.18-10-1.83a66,66,0,0,0-8.31,1.25c-3,.77-5.87,1.73-8.87,2.39-7.42,1.65-14.78,3.45-22.32,4.42a122.06,122.06,0,0,1-12.23,1.08c-3.79.1-7.64-.19-11.43-.41-4.17-.24-8.84-1-11.37-4.72-2.39-3.46-2.46-7.93-2.62-12s-.5-7.7.47-11.81c.49-2.09.89-5.65,2.45-7.33-1.84-.27-3.71-.48-5.64-.62C59.05,275,58.88,274.69,59.12,274.67Z"/><path class="cls-20" d="M189.9,267.86a21.11,21.11,0,0,0-1.47-3.76,31,31,0,0,0-5.68,3.25c-.88.6-1.74,1.21-2.61,1.81L179,270c-.28.19-1.09,1-1.4,1a27,27,0,0,1,3.21.33s0,0,.07,0a9.6,9.6,0,0,0,2.59.18c.9.08,1.8.19,2.68.33,1.68.28,3.28.82,4.91,1.23a12.93,12.93,0,0,1-.21-2.28A29.58,29.58,0,0,0,189.9,267.86Z"/><path class="cls-3" d="M191.47,298c2.49-.2,2.18-3.29,1.66-5.05-1-3.26-2.85-4.75-6.15-5.71l-5.78-1.72a17,17,0,0,1-3.48-1.32,15,15,0,0,0,2,.33l.07,0c5.25,1.23,11.9,1.57,13.69,6.44,0-.18,0-.36,0-.54a10,10,0,0,0-.26-2.07c-.73-6.7-10.19-6.78-15.3-9.87,2.49.75,5,1.45,7.47,2.27a36.69,36.69,0,0,1,5.51,2,13.13,13.13,0,0,1,2.75,3.21.47.47,0,0,0,.86-.13c.44-3.1-1.26-5.06-4-6.34-3.65-1.72-7.51-2.92-11.22-4.49,3.8.91,7.48,2,11.23,3.27a7.92,7.92,0,0,1,1.87.9,10.47,10.47,0,0,1,2.85,4.5.14.14,0,0,1,0,.06c0,.2.08.39.12.58l.15,0A1.93,1.93,0,0,0,198,285c1.27-.48.78-2,0-3.46-.3-.77-.64-1.54-.94-2.33a10,10,0,0,0-.92-1.95,5.27,5.27,0,0,0-1.42-1.7,11,11,0,0,0-1.7-1c-1.32-.49-2.62-.94-3.93-1.35A84.77,84.77,0,0,0,173,271.8c-.81.11-1.63.23-2.42.39a30.85,30.85,0,0,0-3.88.7,13.4,13.4,0,0,0-3.14,1.29c-3,1.29-5.45,3.42-8.09,5.35a50.81,50.81,0,0,0-7.52,1.15c-3.47.61-6.93,1.3-10.4,1.95-3.17.59-6.35,1.16-9.54,1.69-1.17.2-2.49.61-3.78.78.36.13.72.27,1.08.38,7-.57,13.92-1.53,20.72-1.7,1.54,0,3.06,0,4.59,0a.29.29,0,0,0,.13.08,6,6,0,0,0,1.94.05.36.36,0,0,0,.19-.07,81.16,81.16,0,0,1,10.32,1c2.34.56,4.65,1.2,7,1.86.82.34,1.62.71,2.41,1.13l.39.14H173a.2.2,0,0,1,.18-.12c-.21-.18-.42-.39-.62-.59l.81.41c.33.21.66.41,1,.59,2.11.5,4.2,1.11,6.3,1.61,1.92.46,4,.72,5.87,1.29a17.33,17.33,0,0,0,.71,2.56c0,.25.09.52.15.77a3.47,3.47,0,0,0,1.23,1.72C189.3,297,190.49,298.1,191.47,298Z"/><path class="cls-3" d="M143.6,302.34c7.07,1.35,14.2,2.65,21.3,3.78,3.61.58,7.22,1.24,10.84,1.79,2.78.42,7,1.71,10.16,1a4.62,4.62,0,0,0,1.38-1.09c1.65-1.33,2.39-4.08,2.81-6.37a5.78,5.78,0,0,0,.4-1.78c.08-.22.15-.44.24-.66a5.52,5.52,0,0,1-1.36-.86,18.6,18.6,0,0,1-3-5.07,2.14,2.14,0,0,0-.85-1.21.41.41,0,0,1,0-.12l-.41-.08a3.44,3.44,0,0,0-.5-.09c-1.67-.32-3.45-.76-3.82-.85l-.44-.11c.51.19,1,.4,1.52.6-4.13-.88-8.13-2.71-12.26-3.53h-.08a36.72,36.72,0,0,0-7.17-1.86c-7.51-1.16-15.39-.92-23-.42-3.35.22-6.74.38-10.07.83a6.68,6.68,0,0,1,1,0l0,0a55.7,55.7,0,0,1-7.54-.44l-1-.41c-3.5-1.45-6.87-3.19-10.35-4.67-7.22-3-14.93-.57-22.19,1.75a8.59,8.59,0,0,0-2.86,2.18,2.66,2.66,0,0,0-.23.52c-.46,1.6,0,2.05,1.12,2.32,1.55.37,16.24,4,21.18,6.25C120.28,295.91,131.81,300.1,143.6,302.34Z"/><path class="cls-3" d="M63.94,282.11a35.28,35.28,0,0,0-1,8.68c0,3,.19,6.1.44,9.1a12.2,12.2,0,0,0,2.89,7.44s.06,0,.1.07c2.44,2.51,6.27,2.91,9.58,3,3.67.13,7.44.26,11.11.16A124.28,124.28,0,0,0,106,308.42c6.45-1.18,13-2.61,19.38-4.22,2.68-.67,5.27-1.5,8-1.95a12.72,12.72,0,0,1,2.52-.13,213.33,213.33,0,0,1-30.6-8.36l-.06-.06c-4.4-1.22-8.88-2.3-13.25-3.56a79.84,79.84,0,0,0-21.87-3.35s-.11-.09,0-.1a58,58,0,0,1,6.84-.82s0,0,0,0c.44,0,.87,0,1.3,0h.11c2.32.05,4.46.14,6.56.39a7,7,0,0,1,.36-2.34,8.67,8.67,0,0,1,.73-2.4,91.75,91.75,0,0,0-20.54-5.76C64.48,277.46,64.35,280.25,63.94,282.11Z"/><path class="cls-21" d="M189.9,267.86a21.11,21.11,0,0,0-1.47-3.76,31,31,0,0,0-5.68,3.25c-.88.6-1.74,1.21-2.61,1.81L179,270c-.28.19-1.09,1-1.4,1a27,27,0,0,1,3.21.33s0,0,.07,0a9.6,9.6,0,0,0,2.59.18c.9.08,1.8.19,2.68.33,1.68.28,3.28.82,4.91,1.23a12.93,12.93,0,0,1-.21-2.28A29.58,29.58,0,0,0,189.9,267.86Z"/><path class="cls-4" d="M195.47,284.14l-.16-.12c0-.07,0-.14,0-.2a.14.14,0,0,0,0-.06,10.47,10.47,0,0,0-2.85-4.5,7.92,7.92,0,0,0-1.87-.9c-3.3-1.08-6.54-2.07-9.86-2.92,2.63.33,5.48-.19,8,.2,5,.76,7,5.36,9,9.44v0a1.88,1.88,0,0,1-2.08-.65A.39.39,0,0,0,195.47,284.14Z"/><path class="cls-4" d="M188.6,281.88c-1.12-.4-2.24-.75-3.23-1.07-1.81-.59-3.63-1.13-5.45-1.67a44,44,0,0,1,6.61.6c3.23.71,5.53,2.81,8,4.85a7.53,7.53,0,0,1,0,1.33.47.47,0,0,1-.86.13,13.13,13.13,0,0,0-2.75-3.21,16.87,16.87,0,0,0-1.62-.71A.48.48,0,0,0,188.6,281.88Z"/><path class="cls-4" d="M186,284.83a5.82,5.82,0,0,0,.72,0,9.23,9.23,0,0,1,1.85.65,13.79,13.79,0,0,1,4.8,4c0,.32.06.65.07,1,0,.18,0,.36,0,.54-1.79-4.87-8.44-5.21-13.69-6.44l-.07,0c-.41,0-.81-.1-1.21-.17a28.62,28.62,0,0,0,3.22.12C183.18,284.48,184.57,284.73,186,284.83Z"/><path class="cls-4" d="M128,284.32c3.19-.53,6.37-1.1,9.54-1.69,3.47-.65,6.93-1.34,10.4-1.95a50.81,50.81,0,0,1,7.52-1.15c1.13-.82,2.22-1.67,3.33-2.48a7.83,7.83,0,0,0,2,4.48c2.16,2,5.5,2.42,8.26,3.1,4,1,8,1.65,11.94,2.64a23.42,23.42,0,0,1,5.62,2.13c.37.2.74.38,1.1.56a16.85,16.85,0,0,0,1.63,3.33c.59.94,1.37,2.41,2.42,2.91.79.38,1.31-.05,1.7-.71-.05,1.27-.55,2.41-2,2.52-1,.09-2.17-1-2.81-1.84a3.47,3.47,0,0,1-1.23-1.72c-.06-.25-.11-.52-.15-.77a17.33,17.33,0,0,1-.71-2.56c-1.91-.57-3.95-.83-5.87-1.29-2.1-.5-4.19-1.11-6.3-1.61-.35-.18-.68-.38-1-.59l-.81-.41c.2.2.41.41.62.59a.2.2,0,0,0-.18.12H173l-.39-.14c-.79-.42-1.59-.79-2.41-1.13-2.32-.66-4.63-1.3-7-1.86a81.16,81.16,0,0,0-10.32-1,.36.36,0,0,1-.19.07,6,6,0,0,1-1.94-.05.29.29,0,0,1-.13-.08c-1.53,0-3,0-4.59,0-6.8.17-13.77,1.13-20.72,1.7-.36-.11-.72-.25-1.08-.38C125.5,284.93,126.82,284.52,128,284.32Z"/><path class="cls-4" d="M86.17,285.2a2.66,2.66,0,0,1,.23-.52,8.59,8.59,0,0,1,2.86-2.18c2.75-.87,5.56-1.77,8.37-2.39,7.53,6.44,17,10.33,26.42,13.08,13.29,3.86,27,7.28,40.69,9.08,4.07.53,8.13,1.9,12.22,2.19,2.18.55,4.65.89,5.76-.68a14.72,14.72,0,0,0,2.65-7c.11-2.08-2.19-3.21-3.83-4A58.17,58.17,0,0,0,174,290a112.74,112.74,0,0,0-14.2-3.72,88.42,88.42,0,0,0-14-.9c-3.94,0-7.95.48-11.91.35,1.86-.15,3.72-.25,5.57-.37,7.57-.5,15.45-.74,23,.42a36.72,36.72,0,0,1,7.17,1.86h.08c4.13.82,8.13,2.65,12.26,3.53-.5-.2-1-.41-1.52-.6l.44.11c.37.09,2.15.53,3.82.85a3.44,3.44,0,0,1,.5.09l.41.08a.41.41,0,0,0,0,.12,2.14,2.14,0,0,1,.85,1.21,18.6,18.6,0,0,0,3,5.07,5.52,5.52,0,0,0,1.36.86c-.09.22-.16.44-.24.66a5.78,5.78,0,0,1-.4,1.78c-.42,2.29-1.16,5-2.81,6.37a4.62,4.62,0,0,1-1.38,1.09c-3.15.71-7.38-.58-10.16-1-3.62-.55-7.23-1.21-10.84-1.79-7.1-1.13-14.23-2.43-21.3-3.78-11.79-2.24-23.32-6.43-35.13-8.57-4.94-2.25-19.63-5.88-21.18-6.25C86.15,287.25,85.71,286.8,86.17,285.2Z"/><path class="cls-4" d="M63.94,282.11c.41-1.86.54-4.65,1.5-6.36a90.77,90.77,0,0,1,20.39,5.71,50.85,50.85,0,0,0-11.17.32c-2.66.39-3.54,1.84-4.15,4.31a.45.45,0,0,0,.21.5l-.66.1c-.07,0,0,.1,0,.1a76,76,0,0,1,13,1.25.58.58,0,0,0,0,.32c-1.91-.15-3.81-.45-5.73-.52a32.57,32.57,0,0,0-9.24.66.46.46,0,0,0-.31.59c2.65,6.66,11.13,10.45,17.63,12.15,9.12,2.39,18.92,1.64,28.11.07a.48.48,0,0,0,.1-.87,268.61,268.61,0,0,0-26.43-11.28.47.47,0,0,0,.17-.22c1.52.36,3,.75,4.63,1.2,4.37,1.26,8.85,2.34,13.25,3.56l.06.06a213.33,213.33,0,0,0,30.6,8.36,12.72,12.72,0,0,0-2.52.13c-2.73.45-5.32,1.28-8,1.95-6.35,1.61-12.93,3-19.38,4.22A124.28,124.28,0,0,1,87,310.59c-3.67.1-7.44,0-11.11-.16-3.31-.12-7.14-.52-9.58-3,0,0-.07,0-.1-.07a12.2,12.2,0,0,1-2.89-7.44c-.25-3-.39-6.09-.44-9.1A35.28,35.28,0,0,1,63.94,282.11Z"/><path class="cls-14" d="M174.64,272.8c5.16.11,10.64-.47,15.66,1.15,4.56,1.49,5.31,3.6,7.24,7.75.08.15-.15.16-.21.05-2.59-4.31-4.21-6.77-9.67-7.81-4.28-.82-8.7-.64-13-1.05C174.63,272.88,174.59,272.8,174.64,272.8Z"/><path class="cls-14" d="M125.73,287.12c8.9.05,18-1.83,26.91-.92,9.22.95,18,2.55,26,7.4,0,0,0,.12,0,.09C170,289.37,160.9,288,151.46,287c-8.49-.85-17.08,1.27-25.63.5C125.67,287.49,125.49,287.12,125.73,287.12Z"/><path class="cls-14" d="M71.3,289.12c12.58-1.35,23.14,3.13,34.25,8.53.11.05.14.28,0,.21-5.36-2.2-10.65-4.33-16.14-6.18-5.9-2-11.89-2-18-2.43C71.27,289.24,71.22,289.13,71.3,289.12Z"/><path class="cls-14" d="M83.34,283.76a2.78,2.78,0,0,1,.22-.54,2,2,0,0,1,.36-.6c.09-.11.25.08.22.19-.22.71.21,1.92-.52,2.42-.23.16-.51-.06-.55-.3C83,284.48,83.3,284.19,83.34,283.76Z"/><path class="cls-14" d="M189.46,279.74a4.87,4.87,0,0,1,3.59,2.45c.16.37-.28.4-.48.21A10.18,10.18,0,0,0,191,281c-.57-.33-1-.83-1.58-1.19C189.42,279.8,189.4,279.72,189.46,279.74Z"/><path class="cls-14" d="M188.54,283.4a6.45,6.45,0,0,1,2.05,1.14,4.71,4.71,0,0,1,1.38,2.09c.07.24-.18.31-.33.15-.49-.58-1-1.1-1.46-1.72a10.54,10.54,0,0,0-1.66-1.61S188.5,283.37,188.54,283.4Z"/><path class="cls-14" d="M190.29,289.57a6.3,6.3,0,0,1,2.22,3.72c.05.29-.28.22-.41.11a3.46,3.46,0,0,1-.9-1.75,8.64,8.64,0,0,0-1-2S190.25,289.55,190.29,289.57Z"/><path class="cls-3" d="M29.44,148.83c-8.37-12.36-4.19-24.71,1.89-27.38s11.41-.76,14.46,8.94c.57-26.24,18.83-49.79,18.83-49.79s-1.93,10.32-4.84,22.26c11.45-4.84,20.81-29,20.81-29a108.69,108.69,0,0,1-2.42,16.61c11-4,22.9-19.83,25.16-27.9,3.38,4.84,8.87,15.81,8.87,15.81a36.86,36.86,0,0,0-1-13.55c10.33,13.71,29.35,21.13,29.35,21.13s-2.74-3.71-8.55-12.75c19,21.13,38.23,19.2,38.23,19.2a177.05,177.05,0,0,1-8.55-20.16c5.81,9.84,19.51,26.12,26.45,27.73-.33-3.87-5.48-16.44-5.48-16.44s11.93,18.54,14.83,29.35,1.61,16.12,0,25.32c-1.75,10-.36,20.1-.79,30.12-.46,10.36-8.29,17.23-16.51,22.32-2.9,1.79-5.91,3.44-8.94,5-17.17,8.32-40.78,18-61.7,11.8C78.45,198,66.64,189.71,51.62,171.47A111,111,0,0,1,45,154.34C42.55,160.05,37.8,161.19,29.44,148.83Z"/><path class="cls-2" d="M109.4,208c-32.61-9.85-43.87-18.71-58.29-36.24a110.69,110.69,0,0,1-6.21-15.86C43.7,158,42.17,159,40.36,159h0c-3.17,0-6.9-3.23-11.4-9.88-4.38-6.49-5.86-13.82-4-20.13,1.12-3.86,3.43-6.89,6.17-8.09,6.33-2.77,11.24-.48,14.25,6.59,1.74-25,18.64-47,18.82-47.26a.55.55,0,0,1,.69-.17.57.57,0,0,1,.33.62c0,.1-1.85,9.8-4.57,21.11,10.63-5.67,19.34-28,19.44-28.2a.56.56,0,0,1,1.09.24A108.5,108.5,0,0,1,79,89.51c10.27-4.45,21.62-19.28,23.81-27.12a.53.53,0,0,1,.45-.41.57.57,0,0,1,.56.23,149.76,149.76,0,0,1,8,14.11A36.07,36.07,0,0,0,110.68,65a.57.57,0,0,1,.3-.66.58.58,0,0,1,.71.17c8.23,10.93,22.24,17.9,27.25,20.14-1.32-1.89-3.77-5.48-7.39-11.11a.57.57,0,0,1,.91-.69c16.42,18.24,32.9,19.12,36.89,19a195.65,195.65,0,0,1-8.18-19.43.59.59,0,0,1,.29-.72.58.58,0,0,1,.74.23c5.66,9.6,18.38,24.68,25.27,27.22-.85-4.48-5.27-15.31-5.32-15.43a.57.57,0,0,1,1-.52c.49.76,12,18.74,14.91,29.51,2.75,10.21,1.78,15.61.33,23.79l-.32,1.78c-1.1,6.24-.95,12.68-.8,18.91.09,3.65.18,7.43,0,11.13-.49,11.44-9.81,18.48-16.77,22.78-2.6,1.61-5.54,3.25-9,5C158.24,202.56,140.81,210,123.77,210A51,51,0,0,1,109.4,208ZM188.73,99.91a.59.59,0,0,1-.2.48.54.54,0,0,1-.5.12c-6.15-1.43-17.11-13.62-23.86-23.4a157.33,157.33,0,0,0,6.59,15,.55.55,0,0,1,0,.53.57.57,0,0,1-.45.3s-.48,0-1.37,0c-4.26,0-18.41-1.18-33.25-15.23,3.58,5.42,5.33,7.8,5.35,7.83a.57.57,0,0,1-.67.87c-.18-.07-17.46-6.91-28-19.34a36.81,36.81,0,0,1,.4,11.31.57.57,0,0,1-1.07.17c-.06-.1-4.84-9.65-8.18-14.77C100.5,72.36,89.06,87,78.37,91a.58.58,0,0,1-.58-.11.56.56,0,0,1-.17-.56,102,102,0,0,0,2.1-12.92c-3,6.87-10.65,22.16-19.71,26a.55.55,0,0,1-.59-.09.56.56,0,0,1-.19-.57c2-8.29,3.58-15.88,4.34-19.67-4.38,6.32-16.75,26.05-17.21,47.35a.57.57,0,0,1-.49.55.56.56,0,0,1-.63-.39c-2.67-8.5-7.28-11.39-13.68-8.58-2.44,1.07-4.51,3.82-5.54,7.36-1.73,6-.31,13,3.88,19.17,5.25,7.75,8.59,9.38,10.46,9.38h0c1.66,0,3.06-1.27,4.14-3.78a.55.55,0,0,1,.56-.34.59.59,0,0,1,.51.41,114,114,0,0,0,6.49,16.93h0c14.19,17.23,25.34,26,57.67,35.76a49.42,49.42,0,0,0,14,1.94c16.8,0,34.08-7.32,47.24-13.7,3.41-1.76,6.32-3.39,8.9-5,6.74-4.17,15.76-11,16.23-21.85.16-3.67.07-7.43,0-11.06-.15-6.29-.3-12.79.81-19.14l.32-1.78c1.43-8,2.38-13.33-.3-23.29-1.88-7-7.69-17.46-11.44-23.77C187,93.08,188.54,97.75,188.73,99.91Z"/><path class="cls-27" d="M7.62,68.45a44.41,44.41,0,0,0-6.71,5.1C4.13,56.11,21.56,46.72,21.56,46.72s-3.47.54-10.45,5.09C26.4,25.52,50.27,18.28,61.54,19.35c-2.14-2.68-8.31-6.44-8.31-6.44A41.14,41.14,0,0,1,77.1,19.35C83.54,9.16,97.76.57,97.76.57L92.66,11.3c53.93-28.17,113.76,23.88,113.76,23.88s-2.15-.8-11.81-1.61C214.2,41.08,229.23,65,229.23,65a27.59,27.59,0,0,0-12.62-5.63c18.78,14.22,22.81,38.9,22.81,38.9a68,68,0,0,0-9.13-5.37c4.29,4.56,3,11,3,11A30.81,30.81,0,0,0,228.42,99c3.22,18.24-7.25,25-18,35.42s-12.14,17.63-13.22,28.9c0,.27-.07.54-.11.8h-.37s-.85-16.78.77-26,2.9-14.52,0-25.32-14.83-29.35-14.83-29.35,5.15,12.57,5.48,16.44c-6.94-1.61-20.64-17.89-26.45-27.73a177.05,177.05,0,0,0,8.55,20.16s-19.2,1.93-38.23-19.2c5.81,9,8.55,12.75,8.55,12.75s-19-7.42-29.35-21.13a36.86,36.86,0,0,1,1,13.55s-5.49-11-8.87-15.81c-2.26,8.07-14.19,23.87-25.16,27.9a108.69,108.69,0,0,0,2.42-16.61s-9.36,24.19-20.81,29c2.91-11.94,4.84-22.26,4.84-22.26s-18.26,23.55-18.83,49.79c-3-9.7-8.37-11.6-14.46-8.94s-10.26,15-1.89,27.38S42.55,160.05,45,154.34a111,111,0,0,0,6.6,17.13c-40-18.51-33-52.32-33-52.32s-4.83,6.71-5.1,12.61A69.65,69.65,0,0,1,9,88.57s-3.76,1.61-8,7.78C-1.23,76,7.62,68.45,7.62,68.45Z"/><path d="M51.38,172c-33.57-15.54-34.29-42.13-33.63-50.41-1.42,2.4-3.49,6.5-3.66,10.21A.57.57,0,0,1,13,132,71.56,71.56,0,0,1,8.11,89.71a26,26,0,0,0-6.73,7,.57.57,0,0,1-.61.22.58.58,0,0,1-.43-.49C-1.07,83,2.17,75.12,4.68,71.18c-.94.72-2.08,1.65-3.39,2.8a.65.65,0,0,1-.39.14c-.37,0-.59-.25-.59-.57a.53.53,0,0,1,.07-.28C2.65,61.37,11.53,53.13,17,49.08a54.89,54.89,0,0,0-5.54,3.21.43.43,0,0,1-.33.09.56.56,0,0,1-.4-1C25.77,25.58,48.33,18.68,59.31,18.68h.84a52.87,52.87,0,0,0-7.22-5.29.59.59,0,0,1-.26-.62.56.56,0,0,1,.51-.43s.64-.06,1.76-.06a42,42,0,0,1,22,6.27C83.51,8.58,97.33.17,97.47.08a.56.56,0,0,1,.67.07.58.58,0,0,1,.14.67L93.9,10a74.61,74.61,0,0,1,33.39-7.67c41.8,0,79.13,32.06,79.5,32.38a.56.56,0,0,1,.11.72.56.56,0,0,1-.68.24s-1.7-.59-8.12-1.24c17.93,8.7,31.46,30,31.6,30.18a.57.57,0,0,1-.11.75.58.58,0,0,1-.75,0,26.71,26.71,0,0,0-10-5C236,74.78,239.94,97.89,240,98.14a.58.58,0,0,1-.27.58.57.57,0,0,1-.64,0,56,56,0,0,0-6.8-4.12,14.51,14.51,0,0,1,1.54,9.42.58.58,0,0,1-.45.44.55.55,0,0,1-.58-.23,27.5,27.5,0,0,0-3.55-3.69c2.1,15.17-5.56,22.32-14.38,30.56-1.32,1.23-2.67,2.48-4,3.79-10.84,10.57-12,17.74-13.05,28.55,0,.18,0,.36-.07.53l0,.3a.58.58,0,0,1-.57.5h-.37a.56.56,0,0,1-.56-.55c0-.17-.84-17,.76-26.1l.32-1.78c1.43-8,2.38-13.33-.3-23.29-1.88-7-7.69-17.46-11.44-23.77,1.43,3.84,3,8.51,3.21,10.67a.59.59,0,0,1-.2.48.54.54,0,0,1-.5.12c-6.15-1.43-17.11-13.62-23.86-23.4a157.33,157.33,0,0,0,6.59,15,.55.55,0,0,1,0,.53.57.57,0,0,1-.45.3s-.48,0-1.37,0c-4.26,0-18.41-1.18-33.25-15.23,3.58,5.42,5.33,7.8,5.35,7.83a.57.57,0,0,1-.67.87c-.18-.07-17.46-6.91-28-19.34a36.81,36.81,0,0,1,.4,11.31.57.57,0,0,1-1.07.17c-.06-.1-4.84-9.65-8.18-14.77C100.5,72.36,89.06,87,78.37,91a.73.73,0,0,1-.22,0,.56.56,0,0,1-.58-.57.53.53,0,0,1,.09-.3,104,104,0,0,0,2.06-12.75c-3,6.87-10.65,22.16-19.71,26a.45.45,0,0,1-.24.05.53.53,0,0,1-.58-.57.58.58,0,0,1,.08-.3c2-8.23,3.55-15.74,4.3-19.51-4.38,6.32-16.75,26.05-17.21,47.35a.57.57,0,0,1-.49.55.56.56,0,0,1-.63-.39c-2.67-8.5-7.28-11.39-13.68-8.58-2.44,1.07-4.51,3.82-5.54,7.36-1.73,6-.31,13,3.88,19.17,5.25,7.75,8.59,9.38,10.46,9.38,1.66,0,3.06-1.27,4.14-3.78a.55.55,0,0,1,.56-.34.59.59,0,0,1,.51.41,112.35,112.35,0,0,0,6.55,17,.56.56,0,0,1-.5.83A.6.6,0,0,1,51.38,172Zm-11-13c-3.17,0-6.9-3.23-11.4-9.88-4.38-6.49-5.86-13.82-4-20.13,1.12-3.86,3.43-6.89,6.17-8.09,6.33-2.77,11.24-.48,14.25,6.59,1.74-25,18.64-47,18.82-47.26a.55.55,0,0,1,.69-.17.57.57,0,0,1,.33.62c0,.1-1.85,9.8-4.57,21.11,10.63-5.67,19.34-28,19.44-28.2a.56.56,0,0,1,1.09.24A108.5,108.5,0,0,1,79,89.51c10.27-4.45,21.62-19.28,23.81-27.12a.55.55,0,0,1,.45-.41.57.57,0,0,1,.56.23,149.76,149.76,0,0,1,8,14.11A36.07,36.07,0,0,0,110.68,65a.57.57,0,0,1,.3-.66.58.58,0,0,1,.71.17c8.23,10.93,22.24,17.9,27.25,20.14-1.32-1.89-3.77-5.48-7.39-11.11a.57.57,0,0,1,.91-.69c16.42,18.24,32.9,19.12,36.89,19a195.65,195.65,0,0,1-8.18-19.43.59.59,0,0,1,.29-.72.58.58,0,0,1,.74.23c5.66,9.6,18.38,24.68,25.27,27.22-.85-4.48-5.27-15.31-5.32-15.43a.57.57,0,0,1,.26-.72.56.56,0,0,1,.74.2c.49.76,12,18.74,14.91,29.51,2.75,10.21,1.78,15.61.33,23.79l-.32,1.78c-1,5.83-1,14.87-.93,20.57C198.3,150,200.66,143.19,210,134c1.36-1.32,2.7-2.58,4-3.82,9.25-8.63,16.55-15.45,13.78-31.09a.56.56,0,0,1,.28-.59.57.57,0,0,1,.66.06,39.94,39.94,0,0,1,4,3.87,12.29,12.29,0,0,0-3-9.22.55.55,0,0,1,0-.73.57.57,0,0,1,.72-.16,91.15,91.15,0,0,1,8,4.59c-1.17-5.35-6.45-25.16-22.31-37.17a.58.58,0,0,1-.18-.68.54.54,0,0,1,.62-.33A28.82,28.82,0,0,1,227,62.64c-4.53-6.39-17.2-22.65-32.54-28.54a.58.58,0,0,1-.36-.66.57.57,0,0,1,.61-.44c4.82.4,7.78.8,9.56,1.11-8-6.34-40.77-30.6-76.93-30.6a73.39,73.39,0,0,0-34.36,8.3.58.58,0,0,1-.66-.09.58.58,0,0,1-.12-.66L96.4,2.13c-3.94,2.59-13.82,9.61-18.82,17.53a.55.55,0,0,1-.36.25.58.58,0,0,1-.43-.08,40.71,40.71,0,0,0-21.69-6.4c2,1.32,5.37,3.67,6.89,5.57a.54.54,0,0,1,0,.62.57.57,0,0,1-.55.3c-.69-.06-1.42-.1-2.18-.1-10.46,0-31.69,6.43-46.48,30.24,5.65-3.41,8.52-3.89,8.65-3.91a.58.58,0,0,1,.63.39.57.57,0,0,1-.27.68c-.16.09-16.14,8.87-20,24.79A40.28,40.28,0,0,1,7.34,68a.58.58,0,0,1,.75.17.57.57,0,0,1-.11.76C7.9,69-.18,76.05,1.34,94.79c4-5.22,7.25-6.68,7.39-6.74a.55.55,0,0,1,.6.09.56.56,0,0,1,.18.58,69.56,69.56,0,0,0,3.71,40.9c1-5.35,4.76-10.55,4.94-10.8a.57.57,0,0,1,.69-.19.59.59,0,0,1,.33.64c-.07.33-6.24,32.75,31.22,51a118.87,118.87,0,0,1-5.5-14.39C43.69,158,42.17,159,40.36,159Z"/><path class="cls-4" d="M150.34,181.08s-26.17,3.8-49-7.68c-.73-2.34-2.2-2.64-2.2-2.64a6.63,6.63,0,0,1-.74,6.33,4.36,4.36,0,0,0,2.21-1.48s2.94,7.66,6.18,13.84,9.83,13,21.19,10C140,196.29,143.13,186.09,150.34,181.08Z"/><path class="cls-28" d="M118,125.18s-28.9-18.89-41-7.87C82.52,106.11,106.19,102,118,125.18Z"/><path class="cls-28" d="M152.21,128.18s17.44-14,31.66-5.61C181.07,115.56,163.43,108.15,152.21,128.18Z"/><path class="cls-28" d="M114.08,148.57s-17.29,8.75-29.66,1.71C85.27,154.12,84,156,84,156s-4.7-19.2-20.06-17.07a10.77,10.77,0,0,1,9.6-1.92s4.49-16.22,22.2-13.44S114.5,145.37,114.08,148.57Z"/><path class="cls-28" d="M148.64,148.78s8.32,7.47,22,4.06a9.82,9.82,0,0,0-1.92,7s10-19.21,25.39-11.1a9.55,9.55,0,0,0-7.47-4.9s1.14-19.78-15.73-20.29C153.46,123.07,149.28,140.46,148.64,148.78Z"/><path class="cls-2" d="M35.28,131.17c-4-2-5.38,3.29-5.61,5.91,0,.33.39,0,.4-.23.38-3.38,2.15-6.22,5.31-4.38,1.31.76,2,2.62,2.59,3.93a22.82,22.82,0,0,1,.85,2.3,22.74,22.74,0,0,0-4.32,5.24c-.13.22,0,.48.22.23.87-1,1.61-2.12,2.54-3.1a12.09,12.09,0,0,1,1.48-1.47l.27-.23c.67,2.25,1.11,4.54,1.81,6.83.17.53.8-.24.79-.54C41.44,141.25,39.66,133.33,35.28,131.17Z"/><path class="cls-29" d="M29.68,140.92c-.76-3.24.23-9.45,4.33-10.18,3.37.2,5.39,3.72,6.41,6.69,1,2.78,2.42,7.71.18,10.22C36.51,152.19,30.55,144.7,29.68,140.92Z"/><path class="cls-2" d="M125.38,166.63c2.42.59,4.52,1.53,7.09,1.41a22.47,22.47,0,0,0,7.36-1.86c1.11-.46,4-2.18,2.47-4a20.71,20.71,0,0,0-2.42-2,23,23,0,0,1-4.69-5.17c-.07-.12,0-.59.18-.41,2.29,2.36,4.84,4.42,7.26,6.63,1.18,1.07,1,2.37.37,3.65-1.33,2.6-5.09,3.51-7.63,4.18a12.35,12.35,0,0,1-10.1-1.26C125,167.63,124.94,166.53,125.38,166.63Z"/><path class="cls-28" d="M135.42,151.54a39.38,39.38,0,0,0,8.18,9.27c4.87,4.08,2.48,10.34-8.85,11.76-7.07.89-12.08-3.17-12.73-8.11,0-3.44,7.35,7.13,18.34.29,2.46-1.75,1.67-2.25-1.3-4.88S134.21,154.57,135.42,151.54Z"/><path class="cls-28" d="M139,167.67s-8.16,4.21-13.61-1C125.78,170.29,132.19,175.23,139,167.67Z"/><path class="cls-30" d="M132.79,151.72a13.56,13.56,0,0,0,5.76,9.08c4.9,3.13-4,6.3-7.64,0S132,145.58,132.79,151.72Z"/><path class="cls-27" d="M182.73,120.12s-10.46-10-28,4.39C161,112.38,170.81,105.06,182.73,120.12Z"/><path d="M154.34,125a.58.58,0,0,1-.15-.71c3.11-6,8.29-13.16,15.36-13.16,4.49,0,9.08,2.92,13.63,8.68a.56.56,0,0,1-.06.77.58.58,0,0,1-.78,0,14.63,14.63,0,0,0-9.57-3.24c-5.56,0-11.52,2.58-17.71,7.66a.56.56,0,0,1-.36.14A.59.59,0,0,1,154.34,125Zm25.44-7.36c-3.47-3.56-6.9-5.37-10.23-5.37-5.59,0-10,5.06-13,10.13,5.63-4.12,11.07-6.21,16.23-6.21A17.05,17.05,0,0,1,179.78,117.6Z"/><path class="cls-27" d="M115.15,120.75s-25.52-18.83-36.82-5.65C84,102.54,98,97.73,115.15,120.75Z"/><path d="M114.82,121.21c-.15-.1-14-10.22-25.53-10.22-4.43,0-8,1.5-10.53,4.48a.58.58,0,0,1-.74.11.57.57,0,0,1-.21-.72C80.91,108,86.15,104,92.2,104c7.32,0,15.42,5.67,23.41,16.4a.56.56,0,0,1-.06.74.54.54,0,0,1-.4.17A.57.57,0,0,1,114.82,121.21Zm-34.43-8.77a15.09,15.09,0,0,1,8.9-2.59c8.72,0,18.41,5.37,23.2,8.41-7-8.59-14-13.11-20.29-13.11C87.52,105.15,83.33,107.77,80.39,112.44Z"/><path class="cls-2" d="M99.39,174.67a1.36,1.36,0,0,0,.57-.9.28.28,0,0,1,0-.22,2.88,2.88,0,0,0-.29-1.33c-.09-.2.08-.32.22-.14a4.81,4.81,0,0,1,.7,1.7,67.68,67.68,0,0,0,21.52,7.08c8.06,1.16,17.67,3.75,25.64,1,.13,0,.3.22.18.3a9.73,9.73,0,0,1-1.71.77,66.74,66.74,0,0,1-12.15,12.3c-4.6,3.46-10.18,3.72-15.53,2.12-10.59-3.17-13.07-13.84-17.47-22.57l-.43-.26a1,1,0,0,1-.83,1C99.53,175.63,99.1,174.89,99.39,174.67Z"/><path class="cls-31" d="M123.92,188.18C113.18,186,105.53,181.52,103,176c6.54,3.55,14.72,5.1,21.79,6.07,4.08.56,8.15,1.19,12.26,1.49.88.07,1.8.12,2.74.16C137.92,185.86,133,190,123.92,188.18Z"/><path class="cls-32" d="M127.82,196.82a14.56,14.56,0,0,1-8.28-.16,20.22,20.22,0,0,1-11.32-8.22C117.37,185.54,124.66,192.84,127.82,196.82Z"/><path class="cls-33" d="M102.17,175.5c.29.15.59.29.87.45,2.49,5.57,10.14,10,20.88,12.23,9.06,1.86,14-2.32,15.91-4.51a19.24,19.24,0,0,0,5.58-.42c-5.39,4.95-10.67,11.68-17.59,13.57-3.16-4-10.45-11.28-19.6-8.38a16.41,16.41,0,0,1-1.52-2.84C105.3,182.18,104.11,178.66,102.17,175.5Z"/><path class="cls-31" d="M184,144.69s-19.64,14-33.25,3c2.69-17.87,13.89-22,19.7-21.84S185,132.2,184,144.69Z"/><path class="cls-2" d="M183.91,141.07a13.4,13.4,0,0,0-.26-1.78,11.6,11.6,0,0,0-.42-1.74,13.45,13.45,0,0,0-.58-1.69,11.41,11.41,0,0,0-.76-1.62,13.12,13.12,0,0,0-.91-1.53,11.23,11.23,0,0,0-1.07-1.42,16.41,16.41,0,0,0-2.57-2.43,14,14,0,0,0-3.06-1.72,12,12,0,0,0-1.66-.55,10.2,10.2,0,0,0-1.71-.25,12.66,12.66,0,0,0-3.46.29,17.07,17.07,0,0,0-3.34,1.06c-.53.27-1.07.52-1.57.8s-1,.61-1.49,1-.94.69-1.38,1.08l-1.28,1.21-1.16,1.32c-.38.46-.7,1-1,1.43a15.66,15.66,0,0,0-.94,1.5,13.73,13.73,0,0,0-.83,1.56l-.76,1.61-.62,1.66a33.66,33.66,0,0,0-1,3.42c-.28,1.16-.47,2.34-.71,3.51l-.19-.48,1.79,1.23a10.06,10.06,0,0,0,.91.59l1,.46a12.36,12.36,0,0,0,2,.84l2.1.6c.71.14,1.44.22,2.16.34a13.16,13.16,0,0,0,2.18.12,13.36,13.36,0,0,0,2.19-.06c.73-.08,1.47-.1,2.19-.24l2.17-.41,2.14-.56c.72-.17,1.4-.46,2.11-.68s1.39-.5,2.08-.77c1.39-.54,2.73-1.17,4.05-1.84a42.14,42.14,0,0,0,3.88-2.2A27.32,27.32,0,0,0,183.91,141.07Zm-3.64,6a42.88,42.88,0,0,1-4,2c-.68.3-1.36.62-2.06.87s-1.4.56-2.12.76l-2.16.63-2.21.48c-.73.15-1.49.2-2.24.3a27.07,27.07,0,0,1-4.53.05c-.76-.1-1.52-.16-2.27-.28l-2.21-.61a12.54,12.54,0,0,1-2.11-.88l-1-.47a10.67,10.67,0,0,1-1-.62l-1.9-1.29a.45.45,0,0,1-.19-.46v0c.24-1.2.42-2.41.7-3.6a33.17,33.17,0,0,1,1-3.53l.63-1.73.77-1.68a13.53,13.53,0,0,1,.88-1.63,15.8,15.8,0,0,1,1-1.56c.38-.49.72-1,1.11-1.49l1.24-1.38,1.36-1.27c.48-.4,1-.75,1.48-1.13s1.05-.66,1.58-1,1.11-.56,1.66-.84a18.35,18.35,0,0,1,3.56-1.1,12.64,12.64,0,0,1,3.74-.25,13.06,13.06,0,0,1,1.85.32,16.7,16.7,0,0,1,1.76.64,14.9,14.9,0,0,1,3.19,1.91,16.52,16.52,0,0,1,2.61,2.61,12,12,0,0,1,1.07,1.5,10.59,10.59,0,0,1,.89,1.62,11.35,11.35,0,0,1,.7,1.69,11.86,11.86,0,0,1,.52,1.76,10.69,10.69,0,0,1,.35,1.79,12.2,12.2,0,0,1,.18,1.81,25.89,25.89,0,0,1-.08,3.63A36.92,36.92,0,0,1,180.27,147.1Z"/><path class="cls-31" d="M111.79,146.53S87.69,160.29,75.21,139c4.11-12.9,17.58-16.88,27.22-10.07A22.33,22.33,0,0,1,111.79,146.53Z"/><path class="cls-2" d="M110.4,139.89a21.38,21.38,0,0,0-1.4-3.08,15,15,0,0,0-.88-1.44,13.17,13.17,0,0,0-1-1.38,11.11,11.11,0,0,0-1.08-1.3,11.94,11.94,0,0,0-1.16-1.2,24.08,24.08,0,0,0-2.61-2.15,19.11,19.11,0,0,0-2.91-1.61,16.41,16.41,0,0,0-3.14-1.08l-1.63-.32L93,126.2a15.89,15.89,0,0,0-3.3.22,8.22,8.22,0,0,0-1.62.35,10.62,10.62,0,0,0-1.57.5c-.51.23-1,.41-1.52.66l-1.44.82a16.56,16.56,0,0,0-2.59,2.05A8.07,8.07,0,0,0,79.78,132c-.35.43-.74.82-1,1.28l-.93,1.38c-.3.46-.52,1-.79,1.46a24.24,24.24,0,0,0-1.28,3.07l-.06-.44c.47.72.89,1.47,1.4,2.16a23.15,23.15,0,0,0,1.56,2,22,22,0,0,0,1.76,1.85,21.71,21.71,0,0,0,2,1.63,19.05,19.05,0,0,0,2.14,1.38,20.11,20.11,0,0,0,2.29,1.11,20.84,20.84,0,0,0,2.41.84,23.81,23.81,0,0,0,2.51.53,21.81,21.81,0,0,0,2.55.26c.86,0,1.72,0,2.58,0a35.45,35.45,0,0,0,5.13-.65,40.21,40.21,0,0,0,9.83-3.35A22.47,22.47,0,0,0,110.4,139.89Zm-8.33,10.47a28.64,28.64,0,0,1-10.48.68,21,21,0,0,1-2.61-.48,22.07,22.07,0,0,1-2.54-.81A16.58,16.58,0,0,1,84,148.63a21,21,0,0,1-2.26-1.42,23.93,23.93,0,0,1-3.91-3.61,23.66,23.66,0,0,1-1.65-2.09c-.53-.71-1-1.48-1.46-2.22h0a.46.46,0,0,1,0-.43A24.63,24.63,0,0,1,76,135.62c.27-.52.5-1.06.82-1.55l1-1.47c.34-.48.75-.9,1.12-1.36A9.68,9.68,0,0,1,80.16,130a19.19,19.19,0,0,1,2.78-2.16l1.54-.85c.53-.27,1.08-.46,1.63-.69a13.14,13.14,0,0,1,1.68-.53,9.9,9.9,0,0,1,1.72-.35,17.11,17.11,0,0,1,3.5-.21l1.75.16,1.72.36a16.58,16.58,0,0,1,3.28,1.22,18.89,18.89,0,0,1,3,1.79,25,25,0,0,1,2.61,2.26,22.21,22.21,0,0,1,2.25,2.64,11.56,11.56,0,0,1,1,1.44,13.2,13.2,0,0,1,.83,1.52,20.52,20.52,0,0,1,1.3,3.19,21.32,21.32,0,0,1,1.07,6.75A37.79,37.79,0,0,1,102.07,150.36Z"/><path class="cls-34" d="M157.22,139c0,6.22,4.15,11.28,9.19,11.31s9.11-5,9.07-11.2-4.16-11.27-9.19-11.31S157.18,132.79,157.22,139Z"/><path class="cls-35" d="M157.22,139c0,6.22,4.15,11.28,9.19,11.31s9.11-5,9.07-11.2-4.16-11.27-9.19-11.31S157.18,132.79,157.22,139Z"/><path class="cls-36" d="M159.38,139.43c0,4.74,3.17,8.61,7,8.63s7-3.8,6.93-8.55-3.17-8.6-7-8.62S159.36,134.69,159.38,139.43Z"/><path class="cls-37" d="M160.56,139c0,3.75,2.5,6.8,5.53,6.82s5.5-3,5.47-6.76-2.5-6.79-5.54-6.81S160.53,135.25,160.56,139Z"/><g class="cls-38"><path class="cls-39" d="M175.34,137.32a15.07,15.07,0,0,1,.14,1.79c0,6.21-4,11.23-9.07,11.2s-9.16-5.09-9.19-11.31a15.65,15.65,0,0,1,.1-1.69C162.84,140.72,170.84,141.56,175.34,137.32Z"/></g><path class="cls-31" d="M167.67,136.35c.22,1.93,1.66,3.39,3.22,3.26s2.66-1.79,2.44-3.72-1.65-3.39-3.22-3.26S167.46,134.42,167.67,136.35Z"/><path class="cls-31" d="M169.43,142.37a1.6,1.6,0,0,0,1.54,1.55,1.49,1.49,0,0,0,1.16-1.78,1.6,1.6,0,0,0-1.54-1.55A1.49,1.49,0,0,0,169.43,142.37Z"/><path class="cls-34" d="M83.63,138.56c0,6.55,4.38,11.89,9.7,11.92s9.61-5.25,9.58-11.81-4.39-11.9-9.71-11.93S83.6,132,83.63,138.56Z"/><path class="cls-35" d="M83.63,138.56c0,6.55,4.38,11.89,9.7,11.92s9.61-5.25,9.58-11.81-4.39-11.9-9.71-11.93S83.6,132,83.63,138.56Z"/><path class="cls-36" d="M85.92,139c0,5,3.34,9.09,7.4,9.11s7.33-4,7.31-9S97.28,130,93.22,130,85.9,134,85.92,139Z"/><path class="cls-37" d="M87.17,138.54c0,4,2.62,7.18,5.83,7.2s5.8-3.17,5.77-7.13-2.64-7.17-5.85-7.19S87.13,134.59,87.17,138.54Z"/><g class="cls-38"><path class="cls-39" d="M102.76,136.78a16.8,16.8,0,0,1,.15,1.89c0,6.56-4.26,11.85-9.58,11.81s-9.66-5.37-9.7-11.92a14.94,14.94,0,0,1,.12-1.79C89.56,140.37,98,141.24,102.76,136.78Z"/></g><path class="cls-31" d="M94.67,135.75c.23,2,1.75,3.58,3.4,3.45s2.8-1.9,2.57-3.93-1.75-3.58-3.4-3.45S94.44,133.72,94.67,135.75Z"/><path class="cls-31" d="M96.52,142.1a1.68,1.68,0,0,0,1.62,1.64,1.57,1.57,0,0,0,1.23-1.87,1.69,1.69,0,0,0-1.62-1.64A1.58,1.58,0,0,0,96.52,142.1Z"/><path class="cls-2" d="M112.56,200.2c2.89,1.64,6.44,3.78,9.78,2.36.16-.07.4.32.24.39-3.2,1.6-7.45,0-10-2.24C112.38,200.59,112.21,200,112.56,200.2Z"/><path class="cls-4" d="M122.58,203a10.46,10.46,0,0,1-10-2.75C113.22,203.58,117.54,207.45,122.58,203Z"/><g class="cls-40"><path class="cls-41" d="M154.9,135.76c-4.76,10.39,4.16,13.56,16.79,10.44,10.92-2.7,10.93-9.67,10.62-11.72A20,20,0,0,1,184,144.69s-19.64,14-33.25,3a32.45,32.45,0,0,1,4.52-12.89C155.19,135.09,155.05,135.41,154.9,135.76Z"/></g><g class="cls-40"><path class="cls-41" d="M99.05,144.85c12.32-1.6,9.55-8.84,8.72-10.53a22.5,22.5,0,0,1,4,12.21S87.69,160.29,75.21,139a19.88,19.88,0,0,1,5.62-8.89c-.11.12-.19.24-.31.37C74.16,137.77,85.06,146.67,99.05,144.85Z"/></g><path class="cls-2" d="M193.18,148.26a7.28,7.28,0,0,0-1-.79,13.83,13.83,0,0,0-1.23-.76l-.81-.4-.93-.35a12.32,12.32,0,0,0-2.19-.53l-1.24-.14c-.43,0-.86,0-1.3,0a6.17,6.17,0,0,0-1.34.18,9.39,9.39,0,0,0-1.35.31,13.81,13.81,0,0,0-2.57,1.1l-1.22.7c-.39.26-.75.55-1.11.83l-1.07.84-.92,1a14.88,14.88,0,0,0-1.66,1.86l-1.32,1.79a11.15,11.15,0,0,0-1,1.6c-.27.48-.51.9-.7,1.25l-.59,1.11.77-1,.87-1.14c.35-.42.68-.95,1.15-1.44l1.43-1.63a21.22,21.22,0,0,1,1.72-1.69l.93-.86,1-.77c.35-.25.69-.53,1.05-.78l1.16-.63a13.07,13.07,0,0,1,2.36-1,11.14,11.14,0,0,1,1.23-.32,5.22,5.22,0,0,1,1.22-.22l1.2-.11,1.16,0a12.31,12.31,0,0,1,2.1.32,14.47,14.47,0,0,1,1.74.53,13.25,13.25,0,0,1,1.3.56A11.16,11.16,0,0,1,193.18,148.26Z"/><path class="cls-2" d="M83.68,153.84a22.14,22.14,0,0,0-1-4A26.74,26.74,0,0,0,81,145.89a20.11,20.11,0,0,0-2.81-4.06,15.19,15.19,0,0,0-1.87-1.72,11.08,11.08,0,0,0-2.12-1.28,8.61,8.61,0,0,0-2.21-.71,8.76,8.76,0,0,0-2-.18,9.63,9.63,0,0,0-1.72.17c-.49.14-.93.23-1.28.34-.67.27-1.06.41-1.06.41l1.12-.19c.35-.06.78-.08,1.27-.13a15.51,15.51,0,0,1,1.64,0,11.42,11.42,0,0,1,7.44,4,24.14,24.14,0,0,1,2.78,3.78,37.4,37.4,0,0,1,2,3.68C83.12,152.27,83.68,153.84,83.68,153.84Z"/><path class="cls-42" d="M194,150.14c2.19,1.35,2,3.44-1.25,5.1s-7,1.57-10.13,3.15c-2.06,1-6.65,6.2-9.1,5.33-4.12-1.46-1-8,.59-10A15.7,15.7,0,0,1,194,150.14Z"/><path class="cls-42" d="M59.84,140.45c-2.55,1-2.77,3.16.25,5.54s6.9,3,9.83,5.34c1.92,1.5,5.61,7.77,8.32,7.38,4.57-.67,2.68-8.06,1.45-10.51C76.25,141.33,67.13,137.72,59.84,140.45Z"/><g class="cls-43"><path class="cls-44" d="M29.44,148.83c8.36,12.36,13.11,11.22,15.58,5.51a111,111,0,0,0,6.6,17.13c15,18.24,26.83,26.56,58,35.95,20.92,6.17,44.53-3.48,61.7-11.8,3-1.56,6-3.21,8.94-5,8.22-5.09,16-12,16.51-22.32.43-10-1-20.16.79-30.12,1.61-9.2,2.9-14.52,0-25.32s-14.83-29.35-14.83-29.35,5.15,12.57,5.48,16.44c-6.94-1.61-20.64-17.89-26.45-27.73a177.05,177.05,0,0,0,8.55,20.16s-19.2,1.93-38.23-19.2c5.81,9,8.55,12.75,8.55,12.75s-19-7.42-29.35-21.13a36.86,36.86,0,0,1,1,13.55s-5.49-11-8.87-15.81c-2.26,8.07-14.19,23.87-25.16,27.9a108.69,108.69,0,0,0,2.42-16.61s-9.36,24.19-20.81,29c2.91-11.94,4.84-22.26,4.84-22.26s-18.26,23.55-18.83,49.79c-3-9.7-8.37-11.6-14.46-8.94S21.07,136.47,29.44,148.83Zm26-39c1.13,6.84,14.82-3.8,19-14.83.38,6.85,21.66-6.46,28.51-21.29,6.84,12.55,12.55,17.49,12.55,3.8C134.16,93.5,145.94,92,145.94,92c16.74,7.6,28.9,8.75,28.9,8.75l-.38-5a88.14,88.14,0,0,0,17.11,16s5.71,6.09,1.9,22.43c-2.66,10.65,6.47,36.88-10.26,48.29s-42.21,26.62-65.4,22.44-43-10.65-57-36.13C47.85,146,52.79,125.82,55.46,109.85Z"/></g><path class="cls-45" d="M176.78,115.38s-9.13-4.73-17.63,3.78C161.35,112.7,171.42,109.87,176.78,115.38Z"/><path class="cls-45" d="M108.3,114.53s-13.5-13.21-25.85-4.3C85.75,102.9,99.54,103.33,108.3,114.53Z"/><g class="cls-46"><path class="cls-27" d="M2,94.82c9.42-25.58,31-29.64,31-29.64s-6.81,33-4.71,23.56c2.09-11,20.41-30.37,20.41-30.37A117.59,117.59,0,0,0,45.58,94.5c5.24-22,18.32-28.8,25.13-41.88a100.79,100.79,0,0,1,0,27.22s10.47-22,14.66-44.5c2.1,5.76,4.71,18.85.53,38.74,8.37-10,13.61-27.75,13.61-27.75L108.93,62s0-5.76-4.19-19.37c5.76,12,21.46,29.84,21.46,29.84a113.9,113.9,0,0,1-4.71-20.94c10,18.85,23,27.22,39.26,33-6.28-9.42-11-28.27-11-28.27a333.71,333.71,0,0,1,28.79,28.27c-1.57-7.33-10.47-21.46-10.47-21.46s16.23,11.51,31.41,35.6c-1.57-16.23-12.56-34-33-44,25.13,3.14,32.46,7.33,50.26,22-14.66-23-33.51-29.84-33.51-29.84,24.07,6.09,37.5,12,44.3,15.64C228.64,64,229.23,65,229.23,65a27.59,27.59,0,0,0-12.62-5.63c18.78,14.22,22.81,38.9,22.81,38.9a68,68,0,0,0-9.13-5.37c4.29,4.56,3,11,3,11A30.81,30.81,0,0,0,228.42,99c3.22,18.24-7.25,25-18,35.42s-12.14,17.63-13.22,28.9c0,.27-.07.54-.11.8h-.37s-.85-16.78.77-26,2.9-14.52,0-25.32-14.83-29.35-14.83-29.35,5.15,12.57,5.48,16.44c-6.94-1.61-20.64-17.89-26.45-27.73a177.05,177.05,0,0,0,8.55,20.16s-19.2,1.93-38.23-19.2c5.81,9,8.55,12.75,8.55,12.75s-19-7.42-29.35-21.13a36.86,36.86,0,0,1,1,13.55s-5.49-11-8.87-15.81c-2.26,8.07-14.19,23.87-25.16,27.9a108.69,108.69,0,0,0,2.42-16.61s-9.36,24.19-20.81,29c2.91-11.94,4.84-22.26,4.84-22.26s-18.26,23.55-18.83,49.79c-3-9.7-8.37-11.6-14.46-8.94s-10.26,15-1.89,27.38S42.55,160.05,45,154.34a111,111,0,0,0,6.6,17.13c-40-18.51-33-52.32-33-52.32s-4.83,6.71-5.1,12.61A69.65,69.65,0,0,1,9,88.57S5.84,89.92,2,94.82Z"/></g><g class="cls-46"><path class="cls-27" d="M90.61,15.45C101.6,7.6,125.16,10.74,132,17c-20.41-5.24-35.6-1.57-43.45,4.19,14.14-2.62,18.32,6.28,18.32,6.28S81.18,18.07,64.43,38c-2.62-9.42,6.8-13.61,6.8-13.61S46.63,26.44,39.3,41.62A39.9,39.9,0,0,1,55,23.82,48.55,48.55,0,0,0,45.34,22c6.38-2.3,12.12-3,16.2-2.63-2.14-2.68-8.31-6.44-8.31-6.44A41.14,41.14,0,0,1,77.1,19.35C83.54,9.16,97.76.57,97.76.57L92.66,11.3c.93-.48,1.85-.93,2.77-1.37A21.19,21.19,0,0,0,90.61,15.45Z"/></g><path class="cls-47" d="M143.72,28.46c5.09,6.6-1.92,3.21-15.42-3.43s-.71,1.84,8.65,16.13c6.33,11-12.53-5.33-25.15-17.57s.55,22.15,7.07,34.78c-1-13.08-.52-18.32-.52-18.32a191.91,191.91,0,0,0,28.79,32.46c-6.8-13.61-3.66-30.89-3.66-30.89s12,12.57,19.89,20.94C156,46.33,149.24,38,149.24,38s31.93,10.47,41.88,19.89c-11.52-11.52-29.32-22-29.32-22s24.6-1.57,42.92,12.56c-.51-4.71-4.44-9.45-19.89-19.89-24.45-16.55-42-22.48-63.2-22.2a83.92,83.92,0,0,1,33.79,12.23C172.06,29.23,131.48,12.54,143.72,28.46Z"/><path class="cls-47" d="M88.4,31.7S93.25,45,90.16,59.52C97.67,48.93,96.79,38.77,88.4,31.7Z"/><path class="cls-47" d="M80.75,36.29s-.36,12.85-5.14,23.14c1.47-11.75-1.83-18.37-1.83-18.37S56.89,56.49,50.27,74.11C53.58,52.45,55.42,44,55.42,44A87.12,87.12,0,0,0,38.16,64.2c-7,11.75,2.94-15.06,6.61-19.83S21.64,52.82,11.36,62.73C28.24,45.47,41.84,29.32,41.84,29.32L37.06,42.54s12.12-8.82,23.5-12.12c-3.3,12.12-1.47,16.52-1.47,16.52S67.9,35.56,80.75,36.29Z"/><path class="cls-3" d="M196.47,146.38s1.81-14.53,10.89-13,13.81,15.4,4.88,25.39c-7.72,8.47-15.32,6.69-15.62,4.12S195.86,151.08,196.47,146.38Z"/><path class="cls-2" d="M196.05,163c-.28-2.39-.77-11.82-.15-16.64.07-.55,1.8-13.62,10.16-13.62a8.36,8.36,0,0,1,1.4.12c4.15.69,7.59,3.84,9.2,8.43a18.07,18.07,0,0,1-4,17.91c-5.29,5.8-10.12,6.43-11.95,6.43h0C198.16,165.58,196.24,164.5,196.05,163Zm1-16.49c-.61,4.72-.12,14,.16,16.36.09.79,1.43,1.62,3.52,1.62h0c1.68,0,6.12-.59,11.1-6.06a16.91,16.91,0,0,0,3.78-16.76c-1.48-4.19-4.59-7.06-8.32-7.69a8.46,8.46,0,0,0-1.21-.1C198.7,133.83,197.05,146.33,197,146.46Z"/><path class="cls-28" d="M196.47,146.38s1.52-12.14,8.73-13.06c-1.35,1.39-.72,3.45.47,5.33a8.87,8.87,0,0,0,2.93,2.62c4.4,2.8,2.36,6.48.49,10-1.2,2.28-4.16,6.17-3.1,9a6.41,6.41,0,0,0,1.62,2.46c-5.87,3.74-10.75,2.21-11,.16C196.32,160.31,195.86,151.08,196.47,146.38Z"/><path class="cls-2" d="M205.09,142.33c3.55-1.34,4.32,3.26,4.31,5.52,0,.29-.34-.06-.34-.23,0-2.92-1.31-5.49-4.17-4.19-1.18.54-1.95,2.08-2.54,3.15a18.27,18.27,0,0,0-.92,1.89,19.16,19.16,0,0,1,3.25,4.85c.1.2,0,.41-.2.17-.66-1-1.2-2-1.92-2.86a10.78,10.78,0,0,0-1.13-1.38c-.08-.07-.15-.15-.22-.22-.76,1.87-1.32,3.79-2.12,5.69-.18.44-.66-.27-.63-.53C199,150.44,201.16,143.81,205.09,142.33Z"/><path class="cls-29" d="M209.06,151.14c.92-2.71.59-8.11-2.85-9.07-2.9-.11-4.92,2.73-6,5.18s-2.72,6.39-1,8.73C202.27,160.21,208,154.3,209.06,151.14Z"/><path class="cls-48" d="M116.21,190.49c-.37.75.75,2.06,2.51,2.93s3.5,1,3.86.23-.75-2.06-2.51-2.94S116.57,189.74,116.21,190.49Z"/><path class="cls-48" d="M112.94,189.2c-.13.42.24.93.83,1.12s1.2,0,1.33-.43-.23-.93-.83-1.13A1,1,0,0,0,112.94,189.2Z"/><path class="cls-49" d="M74.47,95c.38,6.85,21.66-6.46,28.51-21.29,6.84,12.55,12.55,17.49,12.55,3.8C134.16,93.5,145.94,92,145.94,92c16.74,7.6,28.9,8.75,28.9,8.75l-.38-5a88.14,88.14,0,0,0,17.11,16s5.71,6.09,1.9,22.43c-2.66,10.65,6.47,36.88-10.26,48.29s-42.21,26.62-65.4,22.44-43-10.65-57-36.13c-12.93-22.81-8-43-5.32-58.93C56.59,116.69,70.28,106.05,74.47,95Z"/><path class="cls-50" d="M190.36,103.82c.55,3.8-12.2-7-19-14.38l1.9,7.33s-23.33-4.61-31.47-13c2.44,4.62,2.17,6,2.17,6s-19-7-29-18.18c-1.09,9-.82,14.11-3.8,9s-7.06-13.3-7.06-13.3-13.83,25-28.48,26.32c.81-5.15,1.09-6.51,1.09-6.51s-9.23,19.25-19,19.53c1.08-8.68.81-11.39.81-11.39S47.14,117.12,48,132c0,11.39-4.35-10.31-14.38-10.85-.42,0-.81-.09-1.19-.15,5.64-2,10.53.21,13.4,9.35.57-26.24,18.83-49.79,18.83-49.79s-1.93,10.32-4.84,22.26c11.45-4.84,20.81-29,20.81-29a108.69,108.69,0,0,1-2.42,16.61c11-4,22.9-19.83,25.16-27.9,3.38,4.84,8.87,15.81,8.87,15.81a36.86,36.86,0,0,0-1-13.55c10.33,13.71,29.35,21.13,29.35,21.13s-2.74-3.71-8.55-12.75c19,21.13,38.23,19.2,38.23,19.2a177.05,177.05,0,0,1-8.55-20.16c5.81,9.84,19.51,26.12,26.45,27.73-.33-3.87-5.48-16.44-5.48-16.44s11.38,17.7,14.62,28.59A53.6,53.6,0,0,0,190.36,103.82Z"/></g></g></g></svg>