<svg xmlns="http://www.w3.org/2000/svg" xmlns:xlink="http://www.w3.org/1999/xlink" viewBox="0 0 377.23 638.6"><defs><style>.cls-1{fill:none;}.cls-2{clip-path:url(#clip-path);}.cls-3{fill:#c5b579;}.cls-4{fill:#e2d492;}.cls-5{fill:#ffb79b;}.cls-6{fill:#ffa98c;}.cls-7{fill:#f7edb2;}.cls-8{fill:#da8a99;}.cls-9{fill:#fff8cb;}.cls-10{fill:#29160d;}.cls-11{fill:#d3f4f4;}.cls-12{fill:#812b3a;}.cls-13{fill:#ff9898;}.cls-14,.cls-19{fill:#fff;}.cls-15{fill:#e3e2e1;}.cls-16{fill:#ffc3b0;}.cls-17{fill:#003b74;}.cls-18{fill:#883640;}.cls-19{font-size:16.96px;font-family:UTM-Androgyne, UTM Androgyne;}.cls-20{letter-spacing:0em;}</style><clipPath id="clip-path" transform="translate(-24.09 -26.43)"><rect class="cls-1" width="399.37" height="617.64"/></clipPath></defs><g id="Layer_2" data-name="Layer 2"><g id="Layer_2-2" data-name="Layer 2"><g class="cls-2"><path class="cls-3" d="M302.33,190.52s-33.18-12.67-60-.25l5.26,15.67,46.61.58Z" transform="translate(-24.09 -26.43)"/><path class="cls-4" d="M232.72,202.7l11.74-2.4,52,1.74,12.33,5S284.4,225,266.43,223.64C250.12,222.39,234.29,214.67,232.72,202.7Z" transform="translate(-24.09 -26.43)"/><path class="cls-5" d="M162,260,95.61,229.19l-10.77-11.4-24.3-15.57-1.82,3.1a6.89,6.89,0,0,0,.85,8.15l9.3,10.16-13,10L28.81,248.92a9.29,9.29,0,0,0-2.57,14h0L50,252.73l22.95,11.81L87.27,254l82.39,61.27s31-40.67,38-53c17-29.73,22.36-31.42,22.34-38.77,0-9.52-9.64-26.39-20.7-18.3C204.23,208.87,162,260,162,260Z" transform="translate(-24.09 -26.43)"/><path class="cls-6" d="M70.56,227.34l5.37,12.35,12.52-.79L72.68,256,60.52,243.16s12.17-3.36,11.86-4S70.56,227.34,70.56,227.34Z" transform="translate(-24.09 -26.43)"/><path class="cls-6" d="M26.24,262.94s-1.63-2.06-.63-3.48,30.33-17.63,30.33-17.63l-4,9.79Z" transform="translate(-24.09 -26.43)"/><path class="cls-5" d="M58.72,259.62l-11.61-3.21s-14.58-11.65-14.52-13.7a2.72,2.72,0,0,1,.66-1.37A9,9,0,0,1,46,239.82L52.67,245l10.62,4.57Z" transform="translate(-24.09 -26.43)"/><path class="cls-6" d="M35.07,241.29a8.62,8.62,0,0,1,11.34,3.63l4.88,8.63,2,3.75,2.58,1.43,7.44-9.13L52.67,245,46,239.82a9,9,0,0,0-12.74,1.52,2.72,2.72,0,0,0-.66,1.37,1.1,1.1,0,0,0,.11.4A8.78,8.78,0,0,1,35.07,241.29Z" transform="translate(-24.09 -26.43)"/><path class="cls-5" d="M59.22,264.32l-6.71-10.09s-.58-18.66,1-19.94a5.58,5.58,0,0,1,3.21-.35,8.32,8.32,0,0,1,7.64,7.95l.39,9.2,4.69,8.27Z" transform="translate(-24.09 -26.43)"/><path class="cls-6" d="M56.75,233.94a5.58,5.58,0,0,0-3.21.35,1.53,1.53,0,0,0-.37.71,8.32,8.32,0,0,1,5.29,7.41l-1.22,13.77,2,8.14,10.25-5-5.69-7.27.2-10.65A7.53,7.53,0,0,0,56.75,233.94Z" transform="translate(-24.09 -26.43)"/><path class="cls-5" d="M63,264.86l-5.31-14s14.94-8.5,16.92-8,2.56,6.78,2.56,6.78l-7.73,5.66,3.47,9.22Z" transform="translate(-24.09 -26.43)"/><path class="cls-6" d="M67.21,254l-1.52-1.32s6-3.94,8.4-6.81c1.61-1.88-.86-2.78-.07-2.57,2,.54,2.35,6,2.35,6l-6.9,6,3.47,9.22Z" transform="translate(-24.09 -26.43)"/><polygon class="cls-6" points="63.17 227.54 70.71 222.18 145.56 288.8 63.17 227.54"/><path class="cls-7" d="M151.66,259.63l4.12-2.79L162,260l.64-4.58,3.2-1.38,22.3-27.6-2.48-7.56,17.79-10.76s37.63-3.63,40.48,17l-25.7,26.55-47,67-34.36-25.42Z" transform="translate(-24.09 -26.43)"/><path class="cls-4" d="M198.07,276.68c.3.79.63,1.57,1,2.36l19.18-27.34,18.42-19L235,225.56l-42.5-7.76S191.24,259,198.07,276.68Z" transform="translate(-24.09 -26.43)"/><path class="cls-8" d="M205.47,204.55l-15.35,8s.57,30.15,22.41,45.63Z" transform="translate(-24.09 -26.43)"/><path class="cls-9" d="M119.38,287.79s15.27-30,20.24-41.3l21.32,9.45s-6.66,31-19.64,44.61Z" transform="translate(-24.09 -26.43)"/><polygon class="cls-4" points="153.97 237.59 137.9 233.61 139.26 230.6 148.5 233.58 153.97 237.59"/><path class="cls-6" d="M245.29,174.33,244.4,202s8.62,17.73,25,15L296,198.56l4-28.47Z" transform="translate(-24.09 -26.43)"/><polygon class="cls-10" points="216.98 98.45 203.68 59.22 211 64.54 218.98 40.27 236.93 47.59 216.98 98.45"/><path class="cls-5" d="M322.1,120.07c-4.19-1.48-9.21,1.27-12.87,6.47l7.48-51.7s-52.86-12.46-72.81,9c0,0-2.9,16-5.9,34.53a7.09,7.09,0,0,0-1.66-.07c-6,.55-10.2,8.87-9.31,18.57.56,6.06,3,11.22,6.15,14.11-1,7.64-1.64,14.25-1.75,18.63,0,0,13,17.71,20.45,20.2s25.43.75,25.43.75,25.94-10.47,31.92-18.95V152.8a6.81,6.81,0,0,0,1.16.54c5.71,2,13-3.8,16.2-13S327.82,122.08,322.1,120.07Z" transform="translate(-24.09 -26.43)"/><path class="cls-6" d="M233.93,144.16s-4.82-7.23-3.19-14.21S237.17,122.47,233.93,144.16Z" transform="translate(-24.09 -26.43)"/><path class="cls-10" d="M244.92,83.93a33.86,33.86,0,0,1-10.48-2.1c-5.31-2.23-9.29-6.74-12.73-11.36a116,116,0,0,1-13.43-23.15,56.87,56.87,0,0,0,17.35,13.73c-.41-5.84-.66-12.24,2.83-16.93a22.5,22.5,0,0,1,6.79-5.52,130.46,130.46,0,0,1,26.63-12.17c-3,9.23-4.11,8.42-5.56,18,1.51-3.25,5.51-4.36,9-5,19-3.63,42.45-.57,61.83,0,.83,8.05-1.71,17.26-4.32,24.93,6.52.91,9.53,6.55,16.05,7.46C322.2,88.31,317.46,120,317.46,120c-5.49,5-7,14.72-7,14.72l-4.78.22s10.18-16.35,3.53-32.14c-.26-.63,12.33-24-6.48-21.44a353.71,353.71,0,0,1-35.48,3.06A175.48,175.48,0,0,1,244.92,83.93Z" transform="translate(-24.09 -26.43)"/><path class="cls-11" d="M261.65,116.92a19.36,19.36,0,0,1-38.71,0c0-10.7,8.17-10.35,18.86-10.35S261.65,106.22,261.65,116.92Z" transform="translate(-24.09 -26.43)"/><path class="cls-12" d="M242.29,137.77a20.88,20.88,0,0,1-20.85-20.85c0-5.39,2-8.81,6.05-10.46,3.47-1.4,8-1.39,13.34-1.39h1.93c5.23,0,10.13,0,13.82,1.38,4.42,1.66,6.57,5.08,6.57,10.47A20.88,20.88,0,0,1,242.29,137.77Zm-2.41-29.71c-4.58,0-8.53.07-11.27,1.18-2.06.83-4.18,2.4-4.18,7.68a17.87,17.87,0,0,0,35.73,0c0-5.26-2.47-6.86-4.63-7.67-3.18-1.2-7.84-1.19-12.76-1.19h-2.89Z" transform="translate(-24.09 -26.43)"/><path class="cls-11" d="M311,118.25a19.36,19.36,0,0,1-38.72,0c0-10.7,7.25-11.68,17.94-11.68S311,107.55,311,118.25Z" transform="translate(-24.09 -26.43)"/><path class="cls-12" d="M291.59,139.1a20.88,20.88,0,0,1-20.85-20.85c0-12.19,8.8-13.18,19.43-13.18,8.33,0,22.27,0,22.27,13.18A20.88,20.88,0,0,1,291.59,139.1Zm-1.42-31c-11.6,0-16.44,1.42-16.44,10.19a17.86,17.86,0,0,0,35.72,0C309.45,109.73,302.38,108.06,290.17,108.06Z" transform="translate(-24.09 -26.43)"/><path class="cls-12" d="M271.18,118.49c-5.43-3.54-8.32-.67-8.44-.55l-2.19-2c1.58-1.71,6.17-3.88,12.26.08Z" transform="translate(-24.09 -26.43)"/><path class="cls-13" d="M267,118.82l3.48,18.55a2.48,2.48,0,0,1-2.16,2.94L255,141.84a2.6,2.6,0,0,1-2.88-3.77l11.13-20.5A2,2,0,0,1,267,118.82Z" transform="translate(-24.09 -26.43)"/><path class="cls-14" d="M244.07,148.48s22.44-.25,44.71-1.58c0,0-2.82,20.2-22.44,20.2C243.4,167.1,244.07,148.48,244.07,148.48Z" transform="translate(-24.09 -26.43)"/><path class="cls-6" d="M315.05,146.16s12.63-8.23,8.39-18C320.35,121.11,313.39,133.19,315.05,146.16Z" transform="translate(-24.09 -26.43)"/><path class="cls-10" d="M245.41,116a.43.43,0,0,0,.54.66c4.89-2.8,9.3,1,10.56,2.2a.43.43,0,0,0,.66-.06l1.24-1.77a.45.45,0,0,0,0-.55C252.67,110.17,247.94,113.22,245.41,116ZM294,117.08c-3.29-2.78-9.53-6-17.08.35a.46.46,0,0,0-.05.64l1.71,1.85a.43.43,0,0,0,.58.06c1.42-1.11,7.6-5.39,14.38-2.16A.44.44,0,0,0,294,117.08Z" transform="translate(-24.09 -26.43)"/><path class="cls-12" d="M335.16,121.47c-.25-2-23.27-5.82-23.27-5.82l-.08,4.74s1.64.2,4.5.74c1.77-1.93,7.41-2.68,10.47,3.49a13.55,13.55,0,0,1,4.14,2.12c.77.7.66,2.4,4.12.5C336.15,126.62,335.41,123.47,335.16,121.47Z" transform="translate(-24.09 -26.43)"/><path class="cls-15" d="M287.59,151.43a25.42,25.42,0,0,0,1.19-4.53c-22.27,1.33-44.71,1.58-44.71,1.58a17.19,17.19,0,0,0,.42,3.75C250.88,150.29,265.29,147.45,287.59,151.43Z" transform="translate(-24.09 -26.43)"/><path class="cls-16" d="M274.2,173.21a32.08,32.08,0,0,1-10.85,1.37,25,25,0,0,1-9.22-2l-3.43,16.7a9.67,9.67,0,0,0,1.18.5c6.57,2.19,21.2,1.11,24.68.82Z" transform="translate(-24.09 -26.43)"/><path class="cls-6" d="M250,171.87a84,84,0,0,0,28.3.88S259.5,182.42,250,171.87Z" transform="translate(-24.09 -26.43)"/><path class="cls-14" d="M256.87,168.26s10,.34,11.3.84S254.54,170.59,256.87,168.26Z" transform="translate(-24.09 -26.43)"/><polygon class="cls-3" points="246.54 176.48 241.75 192.52 272.31 174.57 278.24 164.1 246.54 176.48"/><polygon class="cls-3" points="234.07 175.61 237.85 193.02 210.93 176.22 218.2 163.85 234.07 175.61"/><path class="cls-17" d="M257.58,216.36l-4,11.69h17.14l-2.2-13S256.87,212.93,257.58,216.36Z" transform="translate(-24.09 -26.43)"/><path class="cls-10" d="M256.58,205.76c2.55-2.91,13-3.12,15.48-.18s-2.53,14.78-2.53,14.78-3.59-2.91-12.47-1.42C256.17,219.09,254.26,208.42,256.58,205.76Z" transform="translate(-24.09 -26.43)"/><path class="cls-10" d="M209.86,360.3S198.92,427.89,213,499c0,0,16.39,59.84,6.58,101.07,0,0,27.49,8.64,49.07,0,0,0-4.63-69.15-20.12-96.41l.95-90.46h12.42L277.52,503l16.57,97.08S345,614.43,342,594.79c-.62-4-32-98.41-32-98.41l-4.07-126.51Z" transform="translate(-24.09 -26.43)"/><polygon class="cls-7" points="180.03 330.93 177.56 355.48 209.65 370.97 230.9 358.01 232.55 340.91 240.82 370.97 287.8 364.99 292.88 356.47 285.51 340.01 271.74 334.77 180.03 330.93"/><polygon class="cls-9" points="287.8 359.71 240.82 365.69 227.04 321.8 226.17 356.28 209.46 368.81 177.81 353.05 177.56 355.48 209.65 370.97 230.9 358.01 232.55 340.91 240.82 370.97 287.8 364.99 292.88 356.47 291.53 353.45 287.8 359.71"/><path class="cls-4" d="M253,377.37a2.76,2.76,0,1,1-2.76-2.75A2.75,2.75,0,0,1,253,377.37Z" transform="translate(-24.09 -26.43)"/><path class="cls-9" d="M252.55,377.15a2.53,2.53,0,1,1-2.53-2.53A2.52,2.52,0,0,1,252.55,377.15Z" transform="translate(-24.09 -26.43)"/><path class="cls-4" d="M249.91,376.46a.47.47,0,1,1-.47-.47A.47.47,0,0,1,249.91,376.46Z" transform="translate(-24.09 -26.43)"/><path class="cls-4" d="M251.07,377.84a.47.47,0,1,1-.46-.47A.47.47,0,0,1,251.07,377.84Z" transform="translate(-24.09 -26.43)"/><path class="cls-18" d="M312.8,206.63c-2.94,7.75-19.75,22.23-50.86,19.3-35.91-3.39-33.87-22.19-31.55-25.63h0c-12.52,1.35-23.52,3.19-24.94,4.25-12,9-14.95,36.78-14.46,49.61.78,20.39,3.7,88.42,7.48,108.5,1,5.22,43.8,14,113.32,6.62-.57-21.71,27.27-114.42,37.35-138.65C350.9,226.43,340.56,214.73,312.8,206.63Z" transform="translate(-24.09 -26.43)"/><path class="cls-12" d="M210.8,276.42q1.89-3.14,3.83-6.26c2.3-1.09,4.61-2.18,6.93-3.24-2.23-1.25-4.48-2.47-6.75-3.69q-1.8-3.21-3.66-6.42-2,3.13-3.88,6.29-3.47,1.69-6.89,3.43,3.44,1.73,6.81,3.5Q209,273.21,210.8,276.42Z" transform="translate(-24.09 -26.43)"/><path class="cls-12" d="M237.17,252.36a5.06,5.06,0,1,0-5.14,4.87A5,5,0,0,0,237.17,252.36Z" transform="translate(-24.09 -26.43)"/><path class="cls-12" d="M326.05,302.46c.54-1.92,1.09-3.84,1.63-5.76a516.76,516.76,0,0,0-135.5-15.63q.13,2.94.29,6A510.23,510.23,0,0,1,326.05,302.46Z" transform="translate(-24.09 -26.43)"/><path class="cls-12" d="M315.53,260.73a5.06,5.06,0,1,0-5.85,4A5,5,0,0,0,315.53,260.73Z" transform="translate(-24.09 -26.43)"/><path class="cls-12" d="M274.14,254.75a5.06,5.06,0,1,0-5.49,4.47A5,5,0,0,0,274.14,254.75Z" transform="translate(-24.09 -26.43)"/><path class="cls-12" d="M253.2,272.55q3.56-1.38,7.14-2.73c-2.13-1.4-4.29-2.79-6.46-4.16q-1.56-3.35-3.17-6.67-2.19,3-4.33,6-3.58,1.44-7.12,2.92,3.28,2,6.53,4,1.59,3.31,3.13,6.63C250.33,276.52,251.76,274.54,253.2,272.55Z" transform="translate(-24.09 -26.43)"/><path class="cls-12" d="M297.16,278.78q3.68-1.08,7.36-2.12c-2-1.58-4-3.14-6.1-4.69-.85-2.31-1.71-4.61-2.6-6.92q-2.43,2.79-4.82,5.6c-2.46.75-4.9,1.52-7.34,2.31q3.12,2.24,6.18,4.52c.86,2.29,1.72,4.58,2.55,6.88Q294.76,281.56,297.16,278.78Z" transform="translate(-24.09 -26.43)"/><path class="cls-12" d="M263,353.14a5.06,5.06,0,1,0-5.74,4.15A5,5,0,0,0,263,353.14Z" transform="translate(-24.09 -26.43)"/><path class="cls-12" d="M226.22,348.63a5.06,5.06,0,1,0-5.42,4.56A5,5,0,0,0,226.22,348.63Z" transform="translate(-24.09 -26.43)"/><path class="cls-12" d="M304,361.5a5.06,5.06,0,1,0-6.07,3.66A5,5,0,0,0,304,361.5Z" transform="translate(-24.09 -26.43)"/><path class="cls-12" d="M195.9,248a5,5,0,1,0,.55,9.95,5.06,5.06,0,0,0,4.79-5.23A5,5,0,0,0,195.9,248Z" transform="translate(-24.09 -26.43)"/><path class="cls-12" d="M195.1,230.34q1.67-3.27,3.37-6.52,3.33-1.89,6.69-3.74-3.48-1.62-7-3.18l-.73-1.1A67.91,67.91,0,0,0,193.55,228C194.06,228.79,194.59,229.56,195.1,230.34Z" transform="translate(-24.09 -26.43)"/><path class="cls-12" d="M195,329c.15,2,.3,4.05.46,6A511.07,511.07,0,0,1,314,351.7q.54-2.81,1.18-5.87A515.87,515.87,0,0,0,195,329Z" transform="translate(-24.09 -26.43)"/><path class="cls-12" d="M241.81,300.59a5.06,5.06,0,0,0,10.07.93,5.06,5.06,0,0,0-10.07-.93Z" transform="translate(-24.09 -26.43)"/><path class="cls-12" d="M233.05,229.65q1.9-3.14,3.84-6.26c1.62-.77,3.27-1.53,4.91-2.3-5.13-2.39-8.28-5.31-10.13-8.23l-2.15,3.46q-3.47,1.69-6.88,3.44,3.42,1.73,6.81,3.5C230.66,225.38,231.87,227.51,233.05,229.65Z" transform="translate(-24.09 -26.43)"/><path class="cls-12" d="M192.22,235.17c-.31,2.06-.55,4.09-.74,6.06a510.14,510.14,0,0,1,149.34,12.65q1-3,1.91-5.72A516.82,516.82,0,0,0,192.22,235.17Z" transform="translate(-24.09 -26.43)"/><path class="cls-12" d="M320.15,313.32a5,5,0,0,0,1.61,5c.74-2.84,1.51-5.72,2.3-8.62A4.94,4.94,0,0,0,320.15,313.32Z" transform="translate(-24.09 -26.43)"/><path class="cls-12" d="M193.92,313.4c.05.72.09,1.44.14,2.16.69-.33,1.37-.68,2.07-1C195.4,314.16,194.65,313.78,193.92,313.4Z" transform="translate(-24.09 -26.43)"/><path class="cls-12" d="M312.09,230.71q1.31,3.43,2.56,6.88,2.37-2.81,4.77-5.58,3.66-1.08,7.36-2.12c-2-1.58-4-3.14-6.1-4.7-.85-2.3-1.72-4.61-2.6-6.91-1.62,1.86-3.23,3.72-4.82,5.6q-3.69,1.13-7.34,2.31Q309,228.43,312.09,230.71Z" transform="translate(-24.09 -26.43)"/><path class="cls-12" d="M268.61,226.29c.86,1.82,1.72,3.63,2.56,5.45,1.33-1.87,2.68-3.74,4-5.61Q272,226.36,268.61,226.29Z" transform="translate(-24.09 -26.43)"/><path class="cls-12" d="M347.18,235.66c.33-.89.66-1.74,1-2.53l-3.09.72Z" transform="translate(-24.09 -26.43)"/><path class="cls-12" d="M303.82,324.57c-2.5.61-5,1.24-7.46,1.89q3,2.42,5.91,4.87,1.1,3.5,2.15,7c1.68-1.77,3.38-3.54,5.09-5.29,2.47-.58,5-1.15,7.46-1.69q-2.88-2.55-5.81-5.05-1.08-3.53-2.2-7.05C307.23,321,305.52,322.79,303.82,324.57Z" transform="translate(-24.09 -26.43)"/><path class="cls-12" d="M283.31,305.74a5.06,5.06,0,1,0,5.85-4.06A5,5,0,0,0,283.31,305.74Z" transform="translate(-24.09 -26.43)"/><path class="cls-12" d="M209.94,294a5,5,0,1,0,5,5.1A5,5,0,0,0,209.94,294Z" transform="translate(-24.09 -26.43)"/><path class="cls-12" d="M322.81,280.62q2.94,2.47,5.83,5c.38,1.3.75,2.6,1.13,3.9,1.42-4.88,2.87-9.69,4.3-14.37-1.26,1.24-2.52,2.49-3.76,3.74Q326.55,279.73,322.81,280.62Z" transform="translate(-24.09 -26.43)"/><path class="cls-12" d="M259.6,316.33q-3.66,1.23-7.27,2.51,3.16,2.16,6.29,4.35c.92,2.27,1.84,4.54,2.73,6.81q2.29-2.87,4.62-5.7,3.63-1.19,7.29-2.32-3.08-2.28-6.21-4.53-1.37-3.42-2.78-6.84Q261.91,313.46,259.6,316.33Z" transform="translate(-24.09 -26.43)"/><path class="cls-12" d="M223.42,325.71q2.07-3,4.19-6,3.52-1.44,7.1-2.84c-2.16-1.37-4.33-2.73-6.53-4.07-1.08-2.21-2.17-4.41-3.28-6.62-1.42,2-2.84,4-4.24,6q-3.56,1.5-7.07,3,3.32,1.92,6.6,3.89C221.28,321.32,222.36,323.52,223.42,325.71Z" transform="translate(-24.09 -26.43)"/><path class="cls-8" d="M304.78,204.51c-4.38,8.64-20.69,14.93-42.34,13.42-23.05-1.62-27.93-11.35-25.95-18.09,7.14-.67,3.21-.54-6.1.46-2.32,3.44-4.36,22.24,31.55,25.63,31.11,2.93,47.92-11.55,50.86-19.3Q309,205.52,304.78,204.51Z" transform="translate(-24.09 -26.43)"/><polygon class="cls-9" points="284.68 178.43 278.24 164.1 246.54 176.48 253.43 197.22 284.68 178.43"/><polygon class="cls-9" points="208.75 177.05 218.2 163.85 234.07 175.61 224.67 195.19 208.75 177.05"/><path class="cls-8" d="M328.68,223.59c-3.77,9-7.82,22.81-5.87,37.37,3.38,25.23,15.22,30.58,15.22,30.58l10.12-5.34s3.13-55.34,0-62.48a17.1,17.1,0,0,0-6.15-6.79C338.12,214.24,331.45,217,328.68,223.59Z" transform="translate(-24.09 -26.43)"/><path class="cls-7" d="M335.92,227c-4.63,11-11.43,31.63-2.77,42.37l26.61,71,39.61,7V301.6l-42.89-69.88V226.5l-5.14-2.12-8.14-3.16S337.79,222.56,335.92,227Z" transform="translate(-24.09 -26.43)"/><path class="cls-4" d="M369.7,253.61l-39.62-8.32c-1.78,8.83-1.81,18,3.07,24.07l19.31,51.53Z" transform="translate(-24.09 -26.43)"/><polygon class="cls-4" points="337.72 267.61 368.3 267.61 361.65 264.41 337.72 267.61"/><polygon class="cls-10" points="227.81 296.68 275.87 194.79 343.98 224.18 302.68 325.28 227.81 296.68"/><path class="cls-5" d="M264.32,278c.49-4.61,10.88-26.28,10.88-26.28l11.67-3.17-3.21,7.08,17.08,2.58,14.06,26.13,55.1,8.87-5.72,32.48-4.42,8.81-87-40.49Z" transform="translate(-24.09 -26.43)"/><polygon class="cls-6" points="285.9 267.61 265.61 248.7 248.63 267.61 335.66 308.09 340.08 299.29 343.46 280.09 285.9 267.61"/><path class="cls-9" d="M348.18,287.18s0,22.2-9.27,43.8l28.23,9.78s12.28-34.6,4.48-53.58Z" transform="translate(-24.09 -26.43)"/><polygon class="cls-6" points="258.58 231.63 259.57 229.22 273.57 237.98 272.27 242.32 258.58 231.63"/><text class="cls-19" transform="translate(276.25 220.02) rotate(23.37)">Dig<tspan class="cls-20" x="24.74" y="0">E</tspan><tspan x="33.01" y="0">du</tspan></text></g><path class="cls-10" d="M171.2,659.28a23.6,23.6,0,0,1-4.77-1.88,13.49,13.49,0,0,1-4.73-2.73c-4.37-4.09-3.4-12.14-2-17.45s3.59-8.4,8.87-10.18c10.61-3.58,21.35-6.37,31.53-11.17,8.94-4.22,19-8.64,25.2-16.61a17,17,0,0,1,3.35-4.38c1.87-1.52,6.26-1,8.38-1,4.26.08,9,.49,12,3.86.87,1,1.12,2.82,1.14,4.57,2.86,1.52,5.28.71,8.25-.48l2.74-1.09a7.27,7.27,0,0,1,3.56,2.21c1.39,1.72,2.12,4.42,2.83,6.49a75.43,75.43,0,0,1,3.14,12.84,56,56,0,0,1,.07,16.76c-2.76,3.83-7.3,6-11.52,7.85-5.51,2.43-11.08,4.76-16.72,6.84a169.24,169.24,0,0,1-19.91,5.74c-2.55.41-5.11.79-7.71,1.09C200.85,662.22,185,663.24,171.2,659.28Z" transform="translate(-24.09 -26.43)"/><path class="cls-10" d="M387.83,663.38a24.73,24.73,0,0,0,4.86-1.6,13.55,13.55,0,0,0,4.89-2.45c4.6-3.83,4.09-11.93,3-17.31s-3.1-8.6-8.27-10.68c-10.38-4.18-20.94-7.59-30.83-13-8.68-4.72-18.48-9.72-24.19-18a16.86,16.86,0,0,0-3.1-4.57c-1.78-1.62-6.19-1.36-8.3-1.45-4.26-.17-9,0-12.21,3.16-.93.92-1.28,2.75-1.41,4.5-2.94,1.34-5.3.4-8.2-1-.9-.43-1.78-.83-2.67-1.24a7.1,7.1,0,0,0-3.68,2c-1.49,1.63-2.37,4.29-3.2,6.31a75.35,75.35,0,0,0-3.88,12.64,55.88,55.88,0,0,0-1,16.72c2.53,4,6.94,6.4,11.05,8.5,5.35,2.75,10.78,5.4,16.29,7.8a169.17,169.17,0,0,0,19.54,6.88c2.53.56,5.07,1.09,7.64,1.54C358.06,664.59,373.82,666.53,387.83,663.38Z" transform="translate(-24.09 -26.43)"/></g></g></svg>