<svg xmlns="http://www.w3.org/2000/svg" xmlns:xlink="http://www.w3.org/1999/xlink" viewBox="0 0 139.85 139.85"><defs><style>.cls-1{fill:none;}.cls-2{fill:#13bf9e;}.cls-3{clip-path:url(#clip-path);}.cls-4{fill:#fff;}</style><clipPath id="clip-path"><rect class="cls-1" x="14.52" y="21.61" width="110.81" height="96.63"/></clipPath></defs><g id="Layer_2" data-name="Layer 2"><g id="Layer_2-2" data-name="Layer 2"><circle class="cls-2" cx="69.92" cy="69.92" r="69.92"/><g class="cls-3"><path class="cls-4" d="M122.89,46.56,100.38,24.05a7.54,7.54,0,0,0-10.67,0l-5.29,5.29a7.66,7.66,0,0,0-1.76,2.79L57.92,27.7h0A20.66,20.66,0,0,0,33.67,43.86l-1.14,5.66a11.57,11.57,0,1,0,22.68,4.57l.7-3.46,11.1,1,29,29,5.25,5.26a2.72,2.72,0,0,1-3.85,3.85L83.32,75.62a2.51,2.51,0,0,0-3.55,3.55L93.84,93.24A2.73,2.73,0,0,1,90,97.1L75.91,83a2.51,2.51,0,0,0-3.55,3.55l14.07,14.07a2.73,2.73,0,1,1-3.86,3.86L68.5,90.44A2.51,2.51,0,0,0,65,94L79,108.06a2.73,2.73,0,1,1-3.85,3.86L18.8,55.55a2.51,2.51,0,0,0-3.55,3.55L29,72.83l-3.94,4a6.84,6.84,0,0,0,0,9.67l1.29,1.29a6.74,6.74,0,0,0,4.15,2,6.73,6.73,0,0,0,2,4.15l1.28,1.29a6.82,6.82,0,0,0,4.16,2,6.7,6.7,0,0,0,2,4.15l1.28,1.29a6.78,6.78,0,0,0,4.15,2,6.8,6.8,0,0,0,2,4.15L48.55,110a6.84,6.84,0,0,0,9.67,0L62.16,106l9.46,9.46a7.74,7.74,0,0,0,13.21-5.16,7.7,7.7,0,0,0,7.4-7.41,7.7,7.7,0,0,0,7.41-7.41,7.65,7.65,0,0,0,5.15-2.25,7.73,7.73,0,0,0,0-10.95l-3.47-3.48L114,66.08l8.85-8.85a7.56,7.56,0,0,0,0-10.67ZM28.59,82.9a1.82,1.82,0,0,1,0-2.57l3.7-3.7,3.86,3.86-3.7,3.7a1.84,1.84,0,0,1-2.57,0ZM36,90.31a1.82,1.82,0,0,1,0-2.57L39.69,84l3.86,3.85-3.69,3.7a1.83,1.83,0,0,1-2.58,0Zm7.4,7.4a1.81,1.81,0,0,1-.53-1.28,1.83,1.83,0,0,1,.53-1.29l3.7-3.7L51,95.3,47.26,99a1.82,1.82,0,0,1-2.57,0Zm11.27,8.7a1.82,1.82,0,0,1-2.57,0l-1.29-1.29a1.82,1.82,0,0,1,0-2.57l3.7-3.7,3.86,3.86Zm43.1-31.15L69.91,47.4a2.55,2.55,0,0,0-1.56-.72L54.11,45.43h-.22a2.52,2.52,0,0,0-2.46,2L50.29,53.1a6.54,6.54,0,0,1-7.71,5.12,6.55,6.55,0,0,1-5.13-7.71l1.14-5.66A15.63,15.63,0,0,1,57,32.63H57L81.42,37l27.3,27.3Zm21.57-21.58-7.07,7.08L88,36.46a2.52,2.52,0,0,1,0-3.57l5.29-5.29a2.52,2.52,0,0,1,3.57,0l22.51,22.51a2.52,2.52,0,0,1,0,3.57Z"/></g><path class="cls-4" d="M115.78,52.89a2.51,2.51,0,1,1-2.51-2.51,2.51,2.51,0,0,1,2.51,2.51Z"/></g></g></svg>