<svg xmlns="http://www.w3.org/2000/svg" viewBox="0 0 140.98 140.98"><defs><style>.cls-1{fill:#13bf9e;}.cls-2{fill:#fff;}</style></defs><g id="Layer_2" data-name="Layer 2"><g id="Layer_2-2" data-name="Layer 2"><circle class="cls-1" cx="70.49" cy="70.49" r="70.49"/><path class="cls-2" d="M103.12,70.05H74.91v48.68h28.21a3,3,0,0,0,2.94-2.93V73A3,3,0,0,0,103.12,70.05Z"/><path class="cls-2" d="M66.06,70.05H37.86A2.94,2.94,0,0,0,34.92,73V115.8a2.94,2.94,0,0,0,2.94,2.93h28.2Z"/><path class="cls-2" d="M66.06,52.5H37.86a2.94,2.94,0,0,0-2.94,2.94v7.71a2.94,2.94,0,0,0,2.94,2.93h28.2Z"/><path class="cls-2" d="M103.12,52.5H74.91V66.08h28.21a3,3,0,0,0,2.94-2.93V55.44A3,3,0,0,0,103.12,52.5Z"/><path class="cls-2" d="M70.49,27.07c5.12,0,5.86,4.37,5.1,8.61-.62,3.46-3.16,12.12-2,9.92,8.15-16.07,9.24-22.16,7.65-24.81s-4.12-3.7-10.71-3.7-9.13,1.06-10.72,3.7-.49,8.74,7.66,24.81c1.11,2.2-1.42-6.46-2.05-9.92C64.62,31.44,65.36,27.07,70.49,27.07Z"/><path class="cls-2" d="M75.91,46.69c-1.68,1.4,5.36-13.87,8.49-17.5,3.29-3.81,5.89-2.94,7.8-1.56S99.13,37,100,39.93c1.14,3.88.87,6.06-1.73,7.28s-20.79,2.25-20.79,1.38c0-1.21,9.88-1.38,12.65-4.67a4.18,4.18,0,0,0-3.29-7.11C81.11,37,77,45.82,75.91,46.69Z"/><path class="cls-2" d="M65.07,46.69c1.68,1.4-5.36-13.87-8.49-17.5-3.3-3.81-5.89-2.94-7.8-1.56S41.85,37,41,39.93c-1.14,3.88-.86,6.06,1.74,7.28S63.5,49.46,63.5,48.59c0-1.21-9.87-1.38-12.64-4.67a4.18,4.18,0,0,1,3.29-7.11C59.87,37,64,45.82,65.07,46.69Z"/></g></g></svg>