<svg xmlns="http://www.w3.org/2000/svg" viewBox="0 0 140.98 140.98"><defs><style>.cls-1{fill:#13bf9e;}.cls-2{fill:#fff;}</style></defs><g id="Layer_2" data-name="Layer 2"><g id="Layer_2-2" data-name="Layer 2"><circle class="cls-1" cx="70.49" cy="70.49" r="70.49"/><path class="cls-2" d="M55.25,41.85h2.22c1.09,0,2-.5,2-1.09v-6a1.34,1.34,0,0,1,1.32-1.32H80.17a1.34,1.34,0,0,1,1.33,1.32v6.12c0,.54.94,1,2,1h2.22c1.07,0,2-.48,2-1V34.71a7.57,7.57,0,0,0-7.57-7.56H60.8a7.57,7.57,0,0,0-7.56,7.56v6C53.24,41.31,54.16,41.85,55.25,41.85Z"/><rect class="cls-2" x="65.42" y="78.47" width="10.14" height="6.31" rx="2.01"/><rect class="cls-2" x="65.42" y="88.25" width="10.14" height="7.04" rx="2.01"/><path class="cls-2" d="M111.63,81.19l-1.46.52a119.61,119.61,0,0,1-31.44,6.14v3.9a6.2,6.2,0,0,1-6.2,6.19H68.44a6.2,6.2,0,0,1-6.19-6.19v-3.9a118.31,118.31,0,0,1-33.7-6.95c-.3-.09-.85-.3-2.16-.83L26.22,80,26,79.92v25.41a5.08,5.08,0,0,0,5.07,5.07h78.84a5.08,5.08,0,0,0,5.07-5.07V79.89l-1.13.45Z"/><path class="cls-2" d="M111.9,45.67H29.08a4.92,4.92,0,0,0-4.92,4.92v22a2.05,2.05,0,0,0,1,1.52s.91.4,2.36,1a115.61,115.61,0,0,0,34.75,7.59V79c0-2.45,3.7-4.12,6.18-4.12h4.09c2.89,0,6.18,1.89,6.11,4.77v3a116.77,116.77,0,0,0,30.39-6c3-1,6.77-2.64,6.8-2.65a2,2,0,0,0,1-1.49v-22A4.93,4.93,0,0,0,111.9,45.67Z"/></g></g></svg>