<svg xmlns="http://www.w3.org/2000/svg" viewBox="0 0 139.85 139.85"><defs><style>.cls-1{fill:#13bf9e;}.cls-2{fill:#fff;}</style></defs><g id="Layer_2" data-name="Layer 2"><g id="Layer_2-2" data-name="Layer 2"><circle class="cls-1" cx="69.92" cy="69.92" r="69.92"/><path class="cls-2" d="M96.2,28.08H43.64A15.58,15.58,0,0,0,28.08,43.64V96.2a15.59,15.59,0,0,0,15.56,15.57H96.2A15.59,15.59,0,0,0,111.77,96.2V43.64A15.59,15.59,0,0,0,96.2,28.08ZM107.32,96.2A11.13,11.13,0,0,1,96.2,107.32H43.64A11.13,11.13,0,0,1,32.53,96.2V43.64A11.12,11.12,0,0,1,43.64,32.53H96.2a11.13,11.13,0,0,1,11.12,11.11Z"/><path class="cls-2" d="M95.54,47.17H63.59a2.22,2.22,0,0,0,0,4.44h32a2.22,2.22,0,0,0,0-4.44Z"/><path class="cls-2" d="M95.54,67.36H63.59a2.23,2.23,0,0,0,0,4.45h32a2.23,2.23,0,0,0,0-4.45Z"/><path class="cls-2" d="M95.54,87.55H63.59a2.23,2.23,0,0,0,0,4.45h32a2.23,2.23,0,0,0,0-4.45Z"/><path class="cls-2" d="M56.36,49.94a2.21,2.21,0,0,0-2.22,2.22v1H46.53V47.38a2.23,2.23,0,0,0-4.45,0v8a2.23,2.23,0,0,0,2.23,2.22h12a2.22,2.22,0,0,0,2.22-2.22V52.16A2.21,2.21,0,0,0,56.36,49.94Z"/><path class="cls-2" d="M56.36,61.33h-12a2.23,2.23,0,0,0-2.23,2.22V75.61a2.22,2.22,0,0,0,2.23,2.22h12a2.21,2.21,0,0,0,2.22-2.22V63.55A2.22,2.22,0,0,0,56.36,61.33ZM54.14,73.39H46.53V65.78h7.61Z"/><path class="cls-2" d="M56.36,81.52h-12a2.23,2.23,0,0,0-2.23,2.23v12A2.22,2.22,0,0,0,44.31,98h12a2.21,2.21,0,0,0,2.22-2.22v-12A2.22,2.22,0,0,0,56.36,81.52ZM54.14,93.58H46.53V86h7.61Z"/><path class="cls-2" d="M58.71,33.17a2.21,2.21,0,0,0-2.9,1.21L51.6,44.58l-2.11-4.75a2.22,2.22,0,1,0-4.06,1.8l4.21,9.51a2.24,2.24,0,0,0,2,1.32h0a2.22,2.22,0,0,0,2-1.38l6.19-15A2.23,2.23,0,0,0,58.71,33.17Z"/></g></g></svg>