<svg xmlns="http://www.w3.org/2000/svg" viewBox="0 0 140.98 140.98"><defs><style>.cls-1{fill:#13bf9e;}.cls-2{fill:#fff;}</style></defs><g id="Layer_2" data-name="Layer 2"><g id="Layer_2-2" data-name="Layer 2"><circle class="cls-1" cx="70.49" cy="70.49" r="70.49"/><path class="cls-2" d="M104.11,41a65.54,65.54,0,0,0-17.53-2.22c-8.52,0-17,1.29-25.27,2.55s-16.65,2.53-25,2.53a62.06,62.06,0,0,1-16.9-2.16l-.9-.32V81.26l.42.19a65.31,65.31,0,0,0,17.56,2.22c8.51,0,17-1.29,25.27-2.55s16.66-2.53,25-2.53a62.21,62.21,0,0,1,16.86,2.16l.86.32V41.18Zm-9,33.77C72.19,72.85,50.52,82,27.6,79.94c0-.13,0-.25,0-.38,0-3.28-2.67-6.41-6-7.37-.08,0-.17,0-.17-.06v-19c0,.25,1.29.38,2,.36a4.4,4.4,0,0,0,3.62-2A5.61,5.61,0,0,0,27.84,48c22.83,2,44.41-7.11,67.24-5.22a6.19,6.19,0,0,0,.2,1.79,7.59,7.59,0,0,0,1.54,2.91,9.14,9.14,0,0,0,2.72,2.11,5,5,0,0,0,1.95.7V69.61s-.15,0-.2,0a4.77,4.77,0,0,0-6.17,4.82C95.12,74.5,95.1,74.63,95.11,74.76Z"/><path class="cls-1" d="M101.29,69.56s.2,0,.2,0V50.33a5,5,0,0,1-1.95-.7,8.74,8.74,0,0,1-2.68-2.11,7.38,7.38,0,0,1-1.56-2.91,6.23,6.23,0,0,1-.22-1.79C72.25,40.93,50.66,50,27.83,48A5.56,5.56,0,0,1,27,51.45a4.33,4.33,0,0,1-3.58,2c-.66,0-2-.11-2-.36v19s.09,0,.17.06c3.29,1,6,4.09,6,7.37,0,.13,0,.25,0,.38,22.92,2,44.58-7.09,67.5-5.18,0-.13,0-.26,0-.38A4.77,4.77,0,0,1,101.29,69.56Zm-62.11-2a2.92,2.92,0,0,1-3-3,3.1,3.1,0,0,1,3-3.07,2.83,2.83,0,0,1,3,2.83A3.22,3.22,0,0,1,39.18,67.58Zm22.16,6.8c-6.54,1.38-11.54-4.57-11.45-10.9.11-6.86,4.73-13.56,11.45-15,6.55-1.39,11.55,4.56,11.46,10.88C72.69,66.25,68.07,73,61.34,74.38ZM83.51,61.27a2.81,2.81,0,0,1-3-2.81,3.23,3.23,0,0,1,3-3.2,2.89,2.89,0,0,1,3,2.93A3.12,3.12,0,0,1,83.51,61.27Z"/><path class="cls-2" d="M59.1,58.39c0,.4.6.69.84.87s.55.26,1.55.23V56.84c-1,.11-1.26.31-1.52.59S59.1,58,59.1,58.39Z"/><path class="cls-2" d="M62.49,62.51v2.81c0-.1.68-.3.94-.57a1.4,1.4,0,0,0,.28-1.08c0-.46.06-.77-.19-1A2.14,2.14,0,0,0,62.49,62.51Z"/><path class="cls-2" d="M61.34,48.51c-6.72,1.41-11.34,8.11-11.45,15-.09,6.33,4.91,12.28,11.45,10.9,6.73-1.41,11.35-8.13,11.46-15C72.89,53.07,67.89,47.12,61.34,48.51Zm4.27,17.36a8.66,8.66,0,0,1-3.12,1.78v3.07a14.44,14.44,0,0,0-1.72.29c0-1.22-.13-1.83-.13-3.05a12.14,12.14,0,0,1-2.14.14c-.71,0-2-.11-2-.27V65.18c0,.27,1.27.44,2,.52a7.87,7.87,0,0,0,2.11,0c0-1.26,0-1.89,0-3.15h-.32a5,5,0,0,1-3.1-.75,3,3,0,0,1-.92-2.45,4.36,4.36,0,0,1,1.11-3,6.07,6.07,0,0,1,3.19-1.72c0-.93.25-1.4.25-2.34a14.91,14.91,0,0,1,1.72-.28v2.3a7.81,7.81,0,0,1,1.58-.1,13.73,13.73,0,0,1,1.7.11c0,1-.06,1.54-.06,2.57a7,7,0,0,0-1.61-.32,5.62,5.62,0,0,0-1.61.06v2.91h0a4.66,4.66,0,0,1,3.13.74,3.26,3.26,0,0,1,1,2.63A4.29,4.29,0,0,1,65.61,65.87Z"/><path class="cls-1" d="M65.54,60.18a4.29,4.29,0,0,0-3-.74h0V56.53a5.38,5.38,0,0,1,1.58-.06,7.92,7.92,0,0,1,1.71.32c0-1-.07-1.54-.07-2.57a12.32,12.32,0,0,0-1.61-.11,8.2,8.2,0,0,0-1.61.1v-2.3a14.91,14.91,0,0,0-1.72.28c0,.94-.13,1.41-.13,2.34a6.22,6.22,0,0,0-3.25,1.72,4.4,4.4,0,0,0-1.15,3,2.94,2.94,0,0,0,.91,2.45,6.64,6.64,0,0,0,3.56.75c.12,0-.22,0,.78,0v3.15a11.53,11.53,0,0,1-2.53,0c-.72-.08-2.47-.25-2.47-.52v2.65c0,.16,1.24.24,1.95.27A12.14,12.14,0,0,0,60.58,68c0,1.22.22,1.83.22,3.05a13.71,13.71,0,0,1,1.69-.29V67.65a8.66,8.66,0,0,0,3.12-1.78,4.26,4.26,0,0,0,1-3.06A3.28,3.28,0,0,0,65.54,60.18Zm-4.05-.69c-1,0-1.31-.05-1.55-.23s-.6-.47-.6-.87.49-.67.75-1,.4-.48,1.4-.59Zm1.94,5.26c-.26.27-.94.47-.94.57V62.51a1.94,1.94,0,0,1,1,.21,1.08,1.08,0,0,1,.37,1A1.46,1.46,0,0,1,63.43,64.75Z"/><path class="cls-2" d="M39.18,61.56a3.1,3.1,0,0,0-3,3.07,2.92,2.92,0,0,0,3,3,3.22,3.22,0,0,0,3-3.19A2.83,2.83,0,0,0,39.18,61.56Z"/><path class="cls-2" d="M83.51,55.26a3.23,3.23,0,0,0-3,3.2,2.81,2.81,0,0,0,3,2.81,3.12,3.12,0,0,0,3-3.08A2.89,2.89,0,0,0,83.51,55.26Z"/><path class="cls-2" d="M113.74,50.26A66.49,66.49,0,0,0,96,48C87.52,48,79,49.33,70.67,50.59S54,53.12,45.61,53.12A63.6,63.6,0,0,1,28.55,51l-1.06-.32V90.53l.56.18a65.81,65.81,0,0,0,17.62,2.23c8.51,0,17-1.3,25.3-2.55s16.68-2.53,25-2.53A64.53,64.53,0,0,1,113.25,90l1.24.32V50.45ZM104.38,84c-22.92-1.9-44.59,7.24-67.51,5.19,0-.13,0-.25,0-.38,0-3.29-2.8-6.41-6.09-7.37-.09,0-.31,0-.31-.06v-19c0,.25,1.42.37,2.08.36a4.52,4.52,0,0,0,3.69-2.05,5.56,5.56,0,0,0,.81-3.41c22.84,2,44.43-7.11,67.26-5.22a6.58,6.58,0,0,0,.21,1.79,7.38,7.38,0,0,0,1.55,2.9,8.18,8.18,0,0,0,2.58,2.11,4.17,4.17,0,0,0,1.82.71V78.88s0,0-.06,0c-3.35-1-6.1,1.47-6.1,4.82C104.33,83.77,104.37,83.9,104.38,84Z"/><path class="cls-1" d="M110.43,78.83s.06,0,.06,0V59.6a4.17,4.17,0,0,1-1.82-.71,8.29,8.29,0,0,1-2.61-2.11,7.33,7.33,0,0,1-1.53-2.9,6.19,6.19,0,0,1-.2-1.79C81.5,50.2,59.92,59.27,37.09,57.31a5.62,5.62,0,0,1-.8,3.41,4.59,4.59,0,0,1-3.72,2.05c-.66,0-2.08-.11-2.08-.36v19s.22,0,.31.06c3.29,1,6.06,4.08,6.06,7.37,0,.13,0,.25,0,.38,22.93,2.05,44.6-7.09,67.52-5.19,0-.12-.05-.25-.05-.37C104.32,80.3,107.08,77.88,110.43,78.83Zm-62-2a2.92,2.92,0,0,1-3-3,3.11,3.11,0,0,1,3-3.06,2.82,2.82,0,0,1,3,2.83A3.2,3.2,0,0,1,48.45,76.84Zm22.16,6.81C64.07,85,59.06,79.08,59.16,72.75c.1-6.86,4.73-13.56,11.45-15,6.55-1.38,11.55,4.57,11.46,10.89C82,75.52,77.34,82.24,70.61,83.65ZM92.77,70.54a2.8,2.8,0,0,1-3-2.81,3.22,3.22,0,0,1,3-3.2,2.9,2.9,0,0,1,3,2.93A3.13,3.13,0,0,1,92.77,70.54Z"/><path class="cls-2" d="M68.37,67.66c0,.4.46.69.7.87s.42.26,1.42.23V66.11c-1,.11-1.12.31-1.39.59S68.37,67.3,68.37,67.66Z"/><path class="cls-2" d="M71.49,71.78v2.81c0-.1.81-.3,1.08-.57a1.47,1.47,0,0,0,.34-1.08c0-.46,0-.78-.29-1A2.34,2.34,0,0,0,71.49,71.78Z"/><path class="cls-2" d="M70.61,57.77c-6.72,1.42-11.35,8.12-11.45,15-.1,6.33,4.91,12.28,11.45,10.9,6.73-1.41,11.35-8.13,11.46-15C82.16,62.34,77.16,56.39,70.61,57.77Zm4.13,17.37a4.7,4.7,0,0,1-3.25,1.78V80a10.09,10.09,0,0,0-1.59.29c0-1.22-.06-1.83-.06-3a7.49,7.49,0,0,1-1.74.13c-.71,0-1.61-.1-1.61-.26V74.45c0,.27.91.44,1.62.52a6.59,6.59,0,0,0,1.93,0c0-1.26-.12-1.9-.12-3.16h-.37A5.1,5.1,0,0,1,66.43,71a3,3,0,0,1-.93-2.45,4.36,4.36,0,0,1,1.1-3,6.11,6.11,0,0,1,3.19-1.72c0-.93.11-1.4.12-2.34a11.58,11.58,0,0,1,1.58-.28v2.3a8.77,8.77,0,0,1,1.72-.1,17.67,17.67,0,0,1,1.77.1c0,1,0,1.55,0,2.58a8.09,8.09,0,0,0-1.73-.32,6.19,6.19,0,0,0-1.73.06v2.9h.18a4.86,4.86,0,0,1,3.19.74,3.21,3.21,0,0,1,1,2.62A4.32,4.32,0,0,1,74.74,75.14Z"/><path class="cls-1" d="M74.81,69.45a4.7,4.7,0,0,0-3.14-.74h-.18V65.8a6.11,6.11,0,0,1,1.72-.06,8.57,8.57,0,0,1,1.77.32c0-1,0-1.55,0-2.58a16.72,16.72,0,0,0-1.73-.1,8.89,8.89,0,0,0-1.73.1v-2.3a12.12,12.12,0,0,0-1.59.28c0,.94-.06,1.41-.06,2.34a6.2,6.2,0,0,0-3.22,1.72,4.38,4.38,0,0,0-1.13,3A2.94,2.94,0,0,0,66.41,71a6.23,6.23,0,0,0,3.43.75h.65v3.16a7.46,7.46,0,0,1-2,0c-.72-.08-2-.25-2-.52V77.1c0,.16.87.24,1.58.26a9.45,9.45,0,0,0,2-.13c0,1.22,0,1.83,0,3A7.92,7.92,0,0,1,71.49,80V76.92a4.7,4.7,0,0,0,3.25-1.78,4.31,4.31,0,0,0,1.06-3.07A3.25,3.25,0,0,0,74.81,69.45Zm-4.32-.69c-1,0-1.18-.05-1.42-.23a1.14,1.14,0,0,1-.53-.87c0-.36.39-.68.65-1s.3-.48,1.3-.59ZM72.57,74c-.27.27-1.08.47-1.08.57V71.78a2.28,2.28,0,0,1,1.11.2,1.13,1.13,0,0,1,.36,1A1.49,1.49,0,0,1,72.57,74Z"/><path class="cls-2" d="M48.45,70.83a3.11,3.11,0,0,0-3,3.06,2.92,2.92,0,0,0,3,3,3.2,3.2,0,0,0,3-3.18A2.82,2.82,0,0,0,48.45,70.83Z"/><path class="cls-2" d="M92.77,64.53a3.22,3.22,0,0,0-3,3.2,2.8,2.8,0,0,0,3,2.81,3.13,3.13,0,0,0,3-3.08A2.9,2.9,0,0,0,92.77,64.53Z"/><path class="cls-2" d="M121.8,59.53a66.33,66.33,0,0,0-17.69-2.23c-8.51,0-17.07,1.3-25.34,2.56s-16.69,2.53-25.06,2.53A64,64,0,0,1,36.6,60.23l-1.11-.33V99.79l.61.19a66,66,0,0,0,17.65,2.23c8.51,0,17-1.3,25.32-2.55s16.68-2.54,25.05-2.54a64.28,64.28,0,0,1,17.19,2.17l1.18.32V59.72Zm-9.31,33.76C89.57,91.39,67.9,100.53,45,98.47c0-.12,0-.24,0-.37a7.89,7.89,0,0,0-5.65-7.37c-.08,0,.14,0,.14-.07v-19c0,.24,1,.37,1.64.36A4.12,4.12,0,0,0,44.59,70a5.6,5.6,0,0,0,.71-3.41c22.83,2,44.36-7.11,67.2-5.23a6.09,6.09,0,0,0,.18,1.79,7.43,7.43,0,0,0,1.53,2.91,10.27,10.27,0,0,0,3,2.11c.63.33.26.56,2.26.71V88.14s-.46,0-.51,0a4.88,4.88,0,0,0-6.32,4.81C112.66,93,112.48,93.17,112.49,93.29Z"/><path class="cls-1" d="M119,88.1s.51,0,.51,0V68.87c-2-.15-1.64-.38-2.26-.71a9.24,9.24,0,0,1-2.84-2.11,7.69,7.69,0,0,1-1.64-2.91,6.19,6.19,0,0,1-.25-1.79c-22.84-1.88-44.44,7.19-67.28,5.23A5.58,5.58,0,0,1,44.41,70,3.83,3.83,0,0,1,41.13,72c-.66,0-1.64-.12-1.64-.36v19s-.22,0-.14.07a8.07,8.07,0,0,1,5.84,7.37c0,.13-.11.25-.11.37,22.92,2.06,44.53-7.08,67.46-5.18,0-.12.14-.25.14-.38A4.87,4.87,0,0,1,119,88.1Zm-62.42-2a2.92,2.92,0,0,1-3-3,3.1,3.1,0,0,1,3-3.06,2.81,2.81,0,0,1,3,2.83A3.2,3.2,0,0,1,56.56,86.11Zm22.16,6.81C72.18,94.3,67.17,88.34,67.27,82c.1-6.86,4.73-13.56,11.45-15,6.55-1.38,11.55,4.56,11.46,10.89C90.07,84.78,85.45,91.5,78.72,92.92ZM100.88,79.8a2.79,2.79,0,0,1-3-2.81,3.23,3.23,0,0,1,3-3.2,2.9,2.9,0,0,1,3,2.93A3.12,3.12,0,0,1,100.88,79.8Z"/><path class="cls-2" d="M76.48,76.93c0,.4.41.69.65.87s.36.25,1.36.22V75.38c-1,.11-1.07.31-1.33.59S76.48,76.57,76.48,76.93Z"/><path class="cls-2" d="M79.49,81v2.82c0-.11.87-.3,1.13-.57A1.47,1.47,0,0,0,81,82.21a1.09,1.09,0,0,0-.33-1A2.66,2.66,0,0,0,79.49,81Z"/><path class="cls-2" d="M78.72,67C72,68.46,67.37,75.16,67.27,82c-.1,6.32,4.91,12.28,11.45,10.9,6.73-1.42,11.35-8.14,11.46-15C90.27,71.6,85.27,65.66,78.72,67Zm4.07,17.37a9.51,9.51,0,0,1-3.3,1.78v3.07a10.53,10.53,0,0,0-1.53.28c0-1.22,0-1.83,0-3.05a12.75,12.75,0,0,1-2.28.14,6.92,6.92,0,0,1-2.15-.26V83.72c0,.27,1.46.44,2.18.52a8.22,8.22,0,0,0,2.21-.06c0-1.26,0-1.89,0-3.15h-.3a5.08,5.08,0,0,1-3.09-.75,3,3,0,0,1-.91-2.46,4.32,4.32,0,0,1,1.11-3,6.1,6.1,0,0,1,3.2-1.72c0-.94,0-1.4.06-2.34a10.53,10.53,0,0,1,1.53-.28v2.3a9.41,9.41,0,0,1,1.77-.1,15.51,15.51,0,0,1,1.8.1c0,1,0,1.54,0,2.57A9.39,9.39,0,0,0,81.27,75a6.46,6.46,0,0,0-1.78.07V78a1,1,0,0,0,.23,0,5,5,0,0,1,3.23.73,3.27,3.27,0,0,1,.94,2.63A4.33,4.33,0,0,1,82.79,84.41Z"/><path class="cls-1" d="M82.92,78.71a4.89,4.89,0,0,0-3.2-.73,1,1,0,0,1-.23,0v-2.9A6.38,6.38,0,0,1,81.26,75a9.45,9.45,0,0,1,1.8.32c0-1,0-1.54,0-2.57a15,15,0,0,0-1.77-.1,9.54,9.54,0,0,0-1.78.1v-2.3a10.53,10.53,0,0,0-1.53.28c0,.94,0,1.4,0,2.34a6.1,6.1,0,0,0-3.2,1.72,4.33,4.33,0,0,0-1.12,3,3,3,0,0,0,.91,2.46,6.12,6.12,0,0,0,3.38.75h.6v3.15a11,11,0,0,1-2.53.06c-.72-.08-2.47-.25-2.47-.52v2.65a6.85,6.85,0,0,0,2.14.26,12.37,12.37,0,0,0,2.24-.14c0,1.22.07,1.83.07,3.05a10.94,10.94,0,0,1,1.55-.28V86.19a9.51,9.51,0,0,0,3.3-1.78,4.32,4.32,0,0,0,1.09-3.07A3.28,3.28,0,0,0,82.92,78.71ZM78.49,78c-1,0-1.12,0-1.36-.22a1.12,1.12,0,0,1-.51-.87c0-.36.35-.68.61-1s.26-.48,1.26-.59Zm2.13,5.27c-.26.27-1.13.46-1.13.57V81a2.62,2.62,0,0,1,1.16.21,1.1,1.1,0,0,1,.37,1A1.49,1.49,0,0,1,80.62,83.29Z"/><path class="cls-2" d="M56.56,80.1a3.1,3.1,0,0,0-3,3.06,2.92,2.92,0,0,0,3,3,3.2,3.2,0,0,0,3-3.18A2.81,2.81,0,0,0,56.56,80.1Z"/><path class="cls-2" d="M100.88,73.79a3.23,3.23,0,0,0-3,3.2,2.79,2.79,0,0,0,3,2.81,3.12,3.12,0,0,0,3-3.08A2.9,2.9,0,0,0,100.88,73.79Z"/></g></g></svg>