<svg xmlns="http://www.w3.org/2000/svg" viewBox="0 0 139.85 139.85"><defs><style>.cls-1{fill:#13bf9e;}.cls-2{fill:#fff;}.cls-3{fill:none;stroke:#fff;stroke-miterlimit:10;stroke-width:2px;}</style></defs><g id="Layer_2" data-name="Layer 2"><g id="Layer_2-2" data-name="Layer 2"><circle class="cls-1" cx="69.92" cy="69.92" r="69.92"/><path class="cls-2" d="M82.85,116.57H63.34S60.85,120,60.85,96.16c-4,4-7,7.94-18.15,7.94C37.59,99,23,79.82,23,79.82s.45-9.3,8.17-9.3,7.48,8.62,7.48,8.62a10.5,10.5,0,0,0,7.49,4.08c4.77.23,9.53-14.29,13.61-17.24S86,59.18,98.28,64.85s18.61,29.49,18.61,29.49l-13.84,16.11s-7.94,2.83-11.12,6.29c-5.45-2-10.44-6.74,2.72-16.73,2.95,2,5,1.14,7.49-3-5.67-8.62-9.08-13.38-9.08-13.38L73.33,96.16Z"/><line class="cls-3" x1="30.22" y1="37.85" x2="30.22" y2="72.7"/><ellipse class="cls-2" cx="79.71" cy="40.69" rx="12.82" ry="17.58"/></g></g></svg>